<svg xmlns="http://www.w3.org/2000/svg" enable-background="new 0 0 512 512" viewBox="0 0 512 512"><rect width="452" height="304" x="5" y="128" fill="#ffc970"/><polygon fill="#ffb233" points="430.7 432 231 197.1 31.3 432"/><polygon fill="#ffc970" points="231 228 412 432 50 432"/><polygon fill="#ffb233" points="231 358 5 154 5 128 457 128 457 154"/><polygon fill="#ffdca3" points="231 332 5 128 457 128"/><path fill="#ffb233" d="M347,150c0,49.7,40.3,90,90,90c6.9,0,13.6-0.8,20-2.2V128H349.7
			C347.9,135,347,142.4,347,150z"/><path fill="#ffc970" d="M349.7,128c-1.8,7-2.7,14.4-2.7,22c0,22.1,8,42.4,21.3,58.1L457,128H349.7z"/><circle cx="437" cy="150" r="70" fill="#d84861"/><path fill="#c12944" d="M472.4,89.6c6.1,10.4,9.6,22.5,9.6,35.4c0,38.7-31.3,70-70,70c-12.9,0-25-3.5-35.4-9.6
			c12.2,20.7,34.6,34.6,60.4,34.6c38.7,0,70-31.3,70-70C507,124.3,493.1,101.8,472.4,89.6z"/><circle cx="412" cy="125" r="35" fill="#e17084"/><path fill="#ffc970" d="M437,205c-30.3,0-55-24.7-55-55c0-14.9,5.8-28.8,16.5-39.2c10.6-10.4,24.6-16,39.5-15.8
				c14.7,0.3,28.5,6.3,38.7,17.1c10.3,10.8,15.7,24.9,15.2,39.7c-0.4,12.9-5.3,25.3-13.8,34.8c-4.2,4.7-10.6,6.3-16.5,4
				c-5.9-2.2-9.7-7.7-9.7-14V175h-15c-13.8,0-25-11.2-25-25s11.2-25,25-25s25,11.2,25,25v26.6c0,3.2,2.5,4.4,3.2,4.7
				c0.8,0.3,3.4,1,5.5-1.3c6.9-7.8,10.9-17.9,11.3-28.5c0.4-12.1-4.1-23.6-12.5-32.5c-8.4-8.8-19.7-13.8-31.7-14
				c-12.2-0.2-23.7,4.4-32.3,12.9c-8.7,8.5-13.5,19.9-13.5,32.1c0,24.8,20.2,45,45,45V205z M437,135c-8.3,0-15,6.7-15,15
				s6.7,15,15,15h15v-15C452,141.7,445.3,135,437,135z"/></svg>