<?xml version="1.0" standalone="no"?>
<!DOCTYPE svg PUBLIC "-//W3C//DTD SVG 20010904//EN"
 "http://www.w3.org/TR/2001/REC-SVG-20010904/DTD/svg10.dtd">
<svg version="1.0" xmlns="http://www.w3.org/2000/svg"
 width="1345.000000pt" height="629.000000pt" viewBox="0 0 1345.000000 629.000000"
 preserveAspectRatio="xMidYMid meet">

<g transform="translate(0.000000,629.000000) scale(0.100000,-0.100000)"
fill="#000000" stroke="none">
<path d="M0 3145 l0 -3145 3218 0 3217 1 175 162 c240 222 1021 942 1260 1162
107 99 339 312 515 475 301 277 789 726 864 794 l33 31 -4 -78 c-5 -73 -4 -79
16 -87 12 -5 29 -16 38 -23 24 -19 58 -96 58 -132 0 -17 9 -102 20 -190 11
-88 20 -174 20 -192 0 -31 -2 -33 -32 -33 -18 0 -42 7 -52 15 -30 23 -52 18
-75 -17 -20 -30 -21 -31 -17 -8 2 14 9 38 15 53 15 38 14 39 -8 28 -10 -6 -24
-25 -32 -42 -12 -30 -10 -37 21 -95 26 -49 41 -66 65 -74 28 -9 36 -23 82
-133 74 -178 73 -167 21 -167 -24 0 -52 7 -62 15 -11 8 -23 15 -26 15 -17 0
-50 -85 -65 -170 -10 -52 -33 -143 -51 -202 -39 -124 -51 -193 -59 -336 -5
-92 -4 -108 15 -147 12 -24 38 -59 59 -77 35 -32 46 -36 204 -62 146 -24 309
-62 402 -94 202 -68 282 -92 313 -92 l24 0 -28 30 c-36 37 -52 83 -68 189 -11
69 -11 96 0 154 23 121 75 283 95 297 13 9 48 131 42 146 -2 7 3 39 13 71 10
32 18 60 19 63 7 30 18 49 26 45 5 -3 6 1 3 9 -3 9 -8 16 -11 16 -10 0 -32
-28 -26 -34 4 -3 -1 -6 -11 -6 -9 0 -15 -4 -12 -9 8 -12 -15 -114 -27 -122 -5
-4 -7 -11 -4 -16 8 -13 -14 -94 -23 -88 -5 3 -4 21 1 41 6 19 9 45 7 57 -1 12
0 27 4 32 3 6 9 32 12 58 4 27 14 51 22 54 8 3 14 13 14 22 0 10 -3 12 -8 4
-8 -13 -102 -9 -111 5 -3 5 -22 12 -42 16 -27 5 -40 2 -49 -9 -11 -13 -15 -13
-21 -3 -6 10 -13 10 -26 2 -14 -9 -21 -8 -31 2 -20 22 -79 18 -87 -5 -3 -11
-13 -25 -22 -33 -15 -12 -16 -9 -10 24 8 51 35 84 78 97 45 14 118 77 159 138
l31 46 -11 104 c-6 57 -8 108 -4 114 9 16 14 89 5 89 -4 0 -12 -5 -19 -12 -9
-9 -12 -8 -12 6 0 24 -37 56 -65 56 -20 0 -65 -37 -65 -53 0 -4 18 -4 40 -1
43 7 46 4 30 -27 -9 -15 -6 -24 14 -44 14 -14 31 -25 39 -25 16 0 27 -66 27
-162 0 -54 -10 -72 -25 -48 -12 20 -43 10 -53 -17 -12 -35 -15 -28 -42 107
-12 57 -22 106 -24 107 -2 2 -40 -4 -85 -12 -53 -10 -91 -24 -107 -38 -23 -19
-25 -27 -19 -66 8 -50 62 -208 79 -230 8 -10 6 -17 -8 -27 -11 -7 -22 -11 -26
-9 -4 3 -10 -9 -14 -25 -6 -31 -26 -42 -26 -15 0 8 -9 34 -20 57 -10 24 -34
81 -51 128 -18 47 -39 94 -46 105 -21 32 -17 57 10 53 13 -2 21 2 20 9 -2 8 8
10 31 6 37 -6 48 5 51 46 1 14 3 33 6 41 2 9 -2 15 -11 15 -8 0 -18 5 -23 10
-4 6 -12 4 -21 -7 -9 -13 -16 -14 -24 -6 -8 8 -13 2 -20 -23 l-9 -34 -21 35
c-26 42 -27 61 -6 101 20 41 14 45 -22 14 -57 -49 -80 -32 -86 63 -2 40 -9 76
-14 80 -16 10 -23 62 -13 90 13 33 -6 213 -23 223 -8 5 -13 35 -15 81 -4 101
-9 154 -27 293 -19 143 -93 818 -110 995 -8 85 -9 134 -2 152 8 21 6 31 -7 46
-19 20 -23 37 -7 27 6 -3 7 1 4 9 -5 13 1 16 30 16 35 0 36 -1 36 -36 0 -49
15 -73 40 -67 14 4 20 0 20 -11 0 -10 -8 -16 -21 -16 -21 0 -21 -3 -15 -71 9
-83 14 -99 31 -99 14 0 25 22 25 51 0 11 5 17 10 14 6 -4 8 -10 5 -15 -9 -14
23 -19 35 -5 14 16 6 48 -16 66 -13 10 -17 10 -25 -2 -6 -10 -9 -7 -9 13 0 15
5 30 10 33 5 3 10 17 10 30 0 18 4 23 15 19 8 -4 15 -1 15 5 0 19 16 12 29
-11 9 -20 10 -20 7 -3 -2 11 -7 46 -11 79 -5 46 -11 59 -26 63 -18 5 -18 7 -4
23 14 16 14 24 -4 91 -11 41 -36 162 -55 269 -20 107 -42 218 -48 245 -19 82
-12 176 36 475 25 157 47 294 48 305 2 13 -4 21 -17 23 -11 2 -24 7 -28 11 -9
9 12 61 25 61 4 0 8 9 8 21 0 11 10 43 21 70 24 54 42 61 76 29 26 -24 37 -58
59 -189 20 -117 -13 -60 282 -491 56 -82 102 -155 102 -161 0 -6 -8 -9 -17 -7
-10 2 -81 97 -163 221 -161 240 -175 259 -160 206 18 -63 128 -267 189 -349
34 -45 61 -86 61 -91 0 -23 -59 6 -99 50 -13 14 -20 20 -17 13 9 -15 1 -15
-26 -1 -24 13 -130 32 -173 30 -76 -2 -115 -60 -115 -173 0 -69 9 -114 60
-303 23 -86 28 -211 11 -244 -17 -31 -13 -48 6 -22 29 43 23 184 -15 328 -39
147 -48 224 -33 279 12 46 42 88 72 105 17 9 16 4 -8 -32 -41 -62 -39 -159 6
-284 67 -185 83 -242 88 -302 7 -75 0 -103 -31 -140 -17 -20 -22 -34 -15 -44
7 -11 13 -8 33 16 63 77 59 169 -20 401 -62 184 -70 262 -34 322 30 49 48 43
39 -15 -14 -93 13 -198 95 -363 89 -181 115 -274 95 -351 -7 -27 -20 -55 -28
-62 -18 -15 -73 -32 -146 -45 -27 -5 -43 -11 -35 -14 8 -3 28 -9 44 -14 27 -8
30 -13 33 -64 5 -73 10 -87 26 -71 9 9 9 14 -2 20 -7 5 -11 13 -8 17 2 5 2 30
-3 57 -5 37 -4 47 7 47 8 0 11 4 8 10 -3 5 3 10 14 10 14 0 21 -6 21 -20 0
-23 33 -27 73 -9 60 27 111 168 102 282 l-5 52 14 -49 c8 -27 19 -52 24 -55
21 -13 91 -105 86 -113 -6 -10 24 -23 33 -15 3 3 -8 23 -24 44 -36 48 -60 85
-91 143 -13 25 -29 50 -37 56 -8 5 -17 23 -20 40 -4 16 -9 37 -12 47 -11 41
17 12 51 -53 21 -38 39 -70 42 -70 2 0 -7 22 -21 50 -26 50 -31 71 -17 69 4
-1 13 -1 21 0 13 1 12 3 -1 14 -8 6 -23 39 -33 72 -9 33 -23 78 -30 100 -12
36 -11 42 7 65 l20 25 -23 3 c-13 2 -25 -1 -27 -7 -2 -6 -8 -9 -13 -5 -15 9
-10 -95 6 -119 18 -29 47 -109 36 -103 -5 3 -14 19 -21 36 -9 21 -16 27 -21
19 -14 -23 -22 139 -9 186 18 63 35 74 61 41 26 -33 37 -33 37 0 0 14 5 31 11
37 8 8 11 8 11 0 0 -6 7 -19 16 -28 13 -13 14 -18 3 -31 -11 -13 -10 -18 9
-32 18 -14 21 -24 17 -57 -4 -30 -3 -35 4 -19 18 41 15 107 -7 153 -27 54 -26
51 -3 51 11 0 29 -12 41 -27 18 -23 23 -25 31 -13 8 12 16 8 45 -25 20 -22 50
-60 67 -85 17 -25 43 -60 58 -77 34 -40 59 -119 59 -189 0 -43 3 -53 20 -57
21 -6 27 7 9 19 -8 5 -6 10 5 16 9 5 21 6 26 3 6 -4 10 5 10 20 0 36 23 27 31
-11 3 -16 36 -76 74 -134 38 -58 97 -150 132 -204 l64 -99 42 40 c47 44 322
297 617 568 107 99 222 204 255 236 33 31 211 195 395 364 257 236 702 646
836 770 6 5 89 82 184 170 95 88 181 166 191 173 23 16 24 35 4 52 -8 7 -12
16 -9 21 3 5 -2754 9 -6580 9 l-6586 0 0 -3145z m687 1735 c17 -10 36 -28 42
-38 17 -32 -24 -36 -54 -6 -31 31 -69 31 -100 -1 -34 -33 -36 -117 -3 -152 36
-38 118 -22 118 24 0 7 11 13 25 13 60 0 -4 -88 -71 -97 -92 -12 -150 51 -142
153 9 103 101 155 185 104z m1283 -5 c0 -18 -5 -25 -20 -25 -15 0 -20 7 -20
25 0 18 5 25 20 25 15 0 20 -7 20 -25z m688 -113 l3 -132 -33 1 c-18 0 -44 -2
-58 -6 -40 -10 -79 11 -96 50 -36 87 36 181 112 146 23 -10 24 -9 24 28 0 42
7 53 30 49 12 -3 15 -26 18 -136z m-1808 28 c19 -55 37 -100 40 -100 3 0 22
45 40 100 30 87 38 100 58 100 12 0 22 -4 22 -9 0 -20 -90 -245 -101 -251 -24
-15 -49 3 -65 49 -10 25 -30 80 -46 121 -15 41 -28 78 -28 82 0 5 11 8 23 8
21 0 28 -11 57 -100z m581 81 c35 -28 33 -96 -3 -125 l-27 -21 29 -47 c17 -27
30 -49 30 -51 0 -1 -11 -4 -24 -5 -20 -1 -31 9 -58 53 -29 49 -36 55 -63 53
-28 -3 -30 -5 -31 -48 -1 -38 -4 -45 -22 -48 -22 -3 -22 -1 -22 127 l0 131 84
0 c67 0 88 -4 107 -19z m216 -67 c7 -10 13 -45 13 -80 0 -39 4 -64 12 -66 7
-3 9 -12 5 -22 -5 -13 -13 -16 -30 -11 -27 8 -33 8 -78 0 -64 -12 -103 51 -59
95 11 11 29 20 39 20 37 0 71 18 65 35 -8 19 -63 20 -70 1 -5 -14 -44 -10 -44
4 0 5 12 18 28 30 32 26 98 22 119 -6z m506 15 c33 -18 37 -28 37 -96 0 -38 4
-63 12 -65 7 -3 9 -12 5 -22 -5 -13 -13 -16 -30 -11 -27 8 -33 8 -78 0 -30 -6
-41 -3 -58 14 -45 45 -18 91 62 105 28 5 37 12 37 26 0 28 -41 30 -70 5 -19
-17 -43 -5 -35 17 13 33 78 48 118 27z m241 -10 c24 -19 26 -26 26 -99 0 -58
-4 -79 -14 -83 -21 -8 -26 2 -26 59 0 71 -13 104 -43 104 -37 0 -47 -19 -47
-92 0 -61 -2 -68 -20 -68 -19 0 -20 7 -20 96 l0 97 28 -6 c15 -3 34 -2 42 4
23 14 45 11 74 -12z m439 10 c33 -18 37 -28 37 -94 0 -34 5 -66 12 -73 20 -20
-6 -38 -34 -25 -13 6 -32 7 -43 2 -53 -21 -105 7 -105 56 0 29 29 50 83 59 28
5 37 12 37 26 0 24 -45 28 -69 6 -11 -10 -21 -12 -31 -5 -13 8 -10 13 13 34
30 27 66 32 100 14z m6924 -67 c27 -25 39 -43 34 -51 -7 -10 -15 -10 -40 3
-39 21 -67 6 -81 -42 -20 -73 4 -140 126 -357 15 -27 34 -61 41 -75 19 -37 16
-128 -6 -175 l-19 -40 -1 65 c-2 118 -47 249 -140 405 -56 94 -77 237 -46 311
l14 35 38 -20 c21 -12 57 -38 80 -59z m-8000 28 c6 -19 16 -48 23 -65 13 -35
19 -29 45 53 15 44 21 52 42 52 20 0 24 -4 18 -17 -4 -10 -20 -53 -37 -95 -27
-70 -32 -78 -56 -78 -25 0 -30 8 -59 89 -18 48 -33 91 -33 95 0 4 10 6 22 4
16 -2 27 -14 35 -38z m213 -55 c0 -88 -1 -95 -20 -95 -19 0 -20 7 -20 95 0 88
1 95 20 95 19 0 20 -7 20 -95z m7929 -14 c-3 -6 -10 -7 -18 -2 -7 5 -10 14 -6
21 9 14 29 -2 24 -19z m-8821 -57 c2 -16 -3 -23 -22 -26 -27 -5 -40 11 -29 38
8 22 47 13 51 -12z m8213 -180 c10 -55 28 -140 40 -190 11 -50 19 -108 17
-130 -3 -36 -5 -39 -36 -41 -52 -2 -58 27 -54 265 2 112 6 201 8 199 3 -3 14
-49 25 -103z m563 43 c4 -19 3 -26 -4 -22 -5 3 -10 18 -10 32 0 32 5 28 14
-10z m-4 -120 c0 -5 -4 -5 -10 -2 -5 3 -10 14 -10 23 0 15 2 15 10 2 5 -8 10
-19 10 -23z m-6100 -271 c133 -66 157 -280 43 -388 -63 -60 -189 -76 -278 -34
-59 27 -77 46 -104 106 -36 80 -25 188 26 258 66 88 201 114 313 58z m390 -11
c0 -43 -1 -45 -28 -45 -27 0 -52 -15 -52 -32 0 -4 16 -8 35 -8 34 0 35 -1 35
-39 0 -37 -2 -40 -32 -43 l-33 -3 -3 -127 -3 -128 -64 0 -65 0 0 130 0 130
-25 0 c-22 0 -25 4 -25 40 0 36 3 40 25 40 20 0 25 5 25 25 0 71 47 104 148
105 l62 0 0 -45z m470 19 c19 -8 45 -25 58 -37 28 -26 65 -94 54 -100 -4 -2
-34 -7 -67 -11 -59 -6 -62 -6 -82 22 -28 37 -64 47 -103 27 -45 -23 -54 -48
-51 -151 3 -105 136 -130 167 -31 5 17 12 19 51 13 25 -3 57 -6 70 -6 22 0 24
-3 19 -26 -44 -175 -322 -211 -418 -54 -50 81 -48 203 4 280 61 89 186 120
298 74z m-3712 -46 l3 -58 -71 0 -70 0 0 -170 0 -170 -70 0 -70 0 0 170 0 170
-70 0 -70 0 0 53 c0 30 3 57 7 61 4 3 97 5 207 4 l201 -3 3 -57z m152 -18 c0
-44 3 -80 6 -80 3 0 17 9 31 20 36 28 83 34 127 16 54 -23 66 -59 66 -211 l0
-125 -65 0 -65 0 0 108 c0 114 -6 132 -46 132 -45 0 -54 -23 -54 -136 l0 -104
-65 0 -65 0 0 230 0 230 65 0 65 0 0 -80z m1117 57 c63 -34 82 -113 38 -165
l-25 -30 29 -30 c41 -40 47 -73 26 -128 -27 -72 -63 -84 -252 -84 l-153 0 0
231 0 231 153 -4 c119 -3 159 -7 184 -21z m5403 -17 c0 -46 -15 -54 -91 -48
-40 3 -44 6 -47 31 -6 51 2 57 73 57 l65 0 0 -40z m-4380 -35 c0 -43 1 -45 30
-45 28 0 30 -2 30 -40 0 -38 -2 -40 -30 -40 l-31 0 3 -82 c3 -82 3 -83 31 -86
25 -3 27 -7 27 -48 l0 -44 -64 0 c-75 0 -110 11 -121 37 -6 14 -14 136 -15
211 0 6 -11 12 -25 12 -22 0 -25 4 -25 40 0 36 3 40 25 40 17 0 25 6 26 18 2
22 6 55 7 65 1 4 31 7 67 7 l65 0 0 -45z m2870 0 c0 -43 1 -45 30 -45 28 0 30
-2 30 -40 0 -38 -2 -40 -30 -40 l-30 0 0 -80 0 -80 30 -6 c28 -6 30 -10 30
-50 l0 -44 -66 0 c-63 0 -101 11 -116 34 -4 6 -8 59 -8 119 l0 107 -25 0 c-22
0 -25 4 -25 40 0 36 3 40 25 40 23 0 25 4 25 45 l0 45 65 0 65 0 0 -45z m1290
0 c0 -43 1 -45 30 -45 28 0 30 -2 30 -40 0 -38 -2 -40 -30 -40 l-31 0 3 -82
c3 -82 3 -83 31 -86 25 -3 27 -7 27 -49 l0 -45 -80 3 c-47 3 -84 9 -92 17 -8
8 -15 53 -18 125 -5 107 -6 112 -27 115 -19 3 -23 10 -23 43 0 35 3 39 25 39
23 0 25 4 25 45 l0 45 65 0 65 0 0 -45z m-5755 -64 c37 -21 73 -73 81 -117 11
-62 7 -64 -121 -64 -107 0 -115 -1 -115 -19 0 -25 26 -51 50 -51 11 0 28 10
39 21 17 18 28 21 75 17 31 -3 59 -8 63 -11 10 -11 -30 -60 -68 -82 -48 -28
-170 -28 -219 0 -94 55 -107 209 -24 287 52 49 172 58 239 19z m913 18 c61
-13 106 -57 123 -120 20 -76 17 -79 -116 -79 -101 0 -115 -2 -115 -17 0 -23
29 -53 51 -53 10 0 27 10 38 21 18 19 27 21 77 16 31 -3 59 -8 62 -12 10 -9
-33 -59 -69 -80 -48 -28 -170 -28 -219 0 -53 31 -83 95 -77 169 11 123 108
185 245 155z m418 -14 c27 -11 73 -70 62 -80 -2 -1 -29 -5 -61 -7 -50 -4 -60
-2 -68 14 -7 13 -19 18 -37 16 -35 -4 -42 -35 -10 -42 112 -23 135 -31 160
-57 38 -38 39 -100 3 -133 -67 -62 -233 -60 -297 4 -43 43 -37 56 30 64 51 6
59 5 71 -14 17 -25 76 -28 85 -3 8 21 -6 30 -63 38 -25 4 -65 15 -88 25 -33
15 -44 25 -52 55 -12 43 0 81 31 104 55 40 160 47 234 16z m2112 1 c57 -30 84
-79 85 -155 1 -114 -70 -181 -192 -181 -55 0 -126 33 -154 72 -22 30 -33 108
-23 162 15 81 100 131 204 121 30 -3 66 -12 80 -19z m422 4 c37 -20 50 -72 50
-204 l0 -126 -65 0 -65 0 0 94 c0 119 -9 146 -49 146 -43 0 -51 -23 -51 -139
l0 -101 -65 0 -65 0 0 170 0 170 61 0 c53 0 62 -3 66 -20 5 -19 7 -19 22 -6
39 35 112 42 161 16z m308 5 c49 -15 92 -52 92 -80 0 -9 -20 -14 -57 -17 -47
-3 -60 0 -71 15 -17 23 -65 19 -70 -5 -4 -18 -3 -18 102 -39 78 -15 106 -42
106 -104 0 -56 -28 -88 -91 -105 -58 -16 -160 -7 -201 17 -31 18 -68 67 -58
76 3 2 33 7 66 11 57 6 62 5 67 -14 5 -18 12 -21 44 -18 26 2 39 8 41 20 3 17
-24 28 -112 43 -53 9 -96 53 -96 98 0 47 32 84 88 101 61 19 88 19 150 1z
m622 -44 l0 -58 -42 -6 c-60 -8 -68 -25 -68 -134 l0 -93 -65 0 -65 0 0 170 0
170 60 0 c59 0 60 -1 60 -27 l1 -28 19 23 c18 21 55 39 88 41 8 1 12 -17 12
-58z m690 34 c31 -16 70 -65 70 -88 0 -10 -17 -17 -57 -24 -55 -8 -59 -7 -84
19 -18 19 -32 25 -47 21 -48 -12 -54 -144 -7 -165 30 -13 55 -4 62 22 5 17 14
20 58 20 76 0 86 -5 74 -39 -31 -89 -169 -129 -269 -78 -62 32 -83 65 -88 140
-8 131 70 204 206 191 30 -2 66 -11 82 -19z m805 -3 c99 -58 111 -223 20 -292
-82 -63 -231 -47 -289 32 -45 62 -26 205 33 247 60 43 173 49 236 13z m401 13
c52 -22 64 -60 64 -210 l0 -125 -65 0 -65 0 0 101 c0 116 -8 139 -51 139 -40
0 -49 -27 -49 -146 l0 -94 -65 0 -65 0 0 170 0 170 61 0 c53 0 62 -3 66 -20 5
-19 7 -20 23 -5 37 34 95 42 146 20z m1112 -14 c-4 -18 -68 -29 -68 -12 0 6 7
8 17 4 12 -5 15 -2 11 14 -4 16 -1 19 19 15 15 -3 23 -10 21 -21z m-2858 -90
c0 -86 3 -113 16 -125 28 -28 56 -17 73 27 6 16 11 69 11 118 l0 90 63 -3 62
-3 3 -167 2 -168 -65 0 c-58 0 -65 2 -65 20 0 18 -2 18 -37 -6 -51 -34 -122
-30 -161 10 -26 26 -27 30 -30 171 l-3 145 65 0 66 0 0 -109z m1030 -61 l0
-170 -70 0 -70 0 0 163 c0 90 3 167 7 170 3 4 35 7 70 7 l63 0 0 -170z m1593
67 c3 -22 2 -35 -4 -32 -5 4 -9 22 -9 42 0 45 5 40 13 -10z m25 -242 c0 -22
-3 -18 -9 15 -4 25 -7 61 -7 80 1 29 2 26 8 -15 5 -27 8 -63 8 -80z m9 -72
c-3 -10 -5 -4 -5 12 0 17 2 24 5 18 2 -7 2 -21 0 -30z m10 -75 c-3 -7 -5 -2
-5 12 0 14 2 19 5 13 2 -7 2 -19 0 -25z m-8309 -205 l-3 -58 -67 -3 -68 -3 0
-169 0 -170 -70 0 -70 0 0 170 0 169 -67 3 -68 3 -3 58 -3 57 211 0 211 0 -3
-57z m892 -173 l0 -230 -65 0 -65 0 0 230 0 230 65 0 65 0 0 -230z m-670 110
c80 -22 127 -114 110 -211 -16 -89 -79 -134 -185 -134 -79 1 -123 20 -159 68
-30 41 -30 173 0 214 44 61 145 88 234 63z m431 -16 c59 -35 74 -66 74 -152 0
-90 -20 -127 -82 -158 -54 -26 -157 -26 -202 1 -67 40 -98 115 -81 203 9 51
58 107 105 122 46 14 149 5 186 -16z m498 16 c41 -12 91 -57 91 -82 0 -15 -9
-18 -60 -18 -45 0 -62 4 -66 15 -7 17 -59 20 -70 4 -11 -18 8 -28 80 -43 38
-8 80 -23 94 -33 59 -44 46 -134 -24 -169 -51 -25 -175 -26 -221 -1 -30 16
-73 61 -73 77 0 5 27 11 61 15 55 7 62 5 76 -14 20 -30 78 -26 78 4 0 15 -9
22 -40 28 -129 27 -165 51 -165 111 0 87 119 141 239 106z m7208 -172 c-3 -8
-6 -5 -6 6 -1 11 2 17 5 13 3 -3 4 -12 1 -19z m10 -105 c-3 -10 -5 -2 -5 17 0
19 2 27 5 18 2 -10 2 -26 0 -35z m41 -308 c9 -65 8 -85 -2 -74 -8 7 -36 271
-35 319 1 27 7 1 14 -65 7 -60 18 -141 23 -180z m-11 -122 c-3 -10 -5 -4 -5
12 0 17 2 24 5 18 2 -7 2 -21 0 -30z m-8696 -73 c20 -11 26 -54 9 -65 -6 -4
-4 -12 5 -21 36 -37 6 -76 -61 -78 l-49 -1 -3 74 c-2 41 -1 80 2 88 6 16 69
18 97 3z m333 -73 c1 -42 -1 -82 -6 -89 -4 -7 -8 29 -8 81 0 112 9 117 14 8z
m1435 -9 c0 -51 -3 -88 -5 -82 -4 9 -13 9 -34 1 -24 -9 -32 -8 -49 8 -35 31
-22 116 17 114 14 0 14 -2 2 -6 -22 -9 -30 -24 -30 -58 0 -35 15 -55 41 -55
30 0 51 30 48 69 -3 51 0 101 6 101 3 0 5 -42 4 -92z m1078 -41 c-2 -23 -3 -1
-3 48 0 50 1 68 3 42 2 -26 2 -67 0 -90z m366 52 c2 -71 3 -74 30 -84 24 -8
31 -6 43 10 21 29 17 71 -8 89 -18 13 -19 16 -6 16 39 0 52 -85 17 -115 -17
-16 -25 -17 -49 -8 -21 8 -30 8 -34 -1 -2 -6 -5 31 -5 83 -1 52 2 92 5 89 3
-4 6 -39 7 -79z m1358 -14 c10 4 19 2 19 -3 0 -5 -9 -12 -19 -15 -12 -3 -21
-16 -24 -33 -2 -16 -4 12 -4 61 1 50 2 66 4 37 4 -47 6 -52 24 -47z m1748 -25
c-5 -48 -6 -44 -6 35 -1 59 2 78 6 55 4 -19 4 -60 0 -90z m381 37 c0 -69 -3
-84 -15 -84 -11 0 -12 4 -5 11 16 16 12 67 -7 90 -17 20 -17 20 0 7 15 -12 17
-10 17 23 0 20 2 36 5 36 3 0 5 -37 5 -83z m-4496 31 c8 -6 7 -8 -1 -8 -21 0
-17 -97 5 -110 15 -10 15 -10 -3 -8 -18 3 -20 12 -22 88 0 47 1 76 4 65 3 -11
10 -23 17 -27z m874 1 c15 -1 15 -2 0 -6 -14 -3 -18 -15 -18 -53 0 -36 5 -52
18 -60 15 -10 15 -10 -3 -8 -17 3 -21 12 -23 58 -2 30 -9 58 -15 62 -9 6 -9 8
1 8 6 0 13 10 13 23 l2 22 4 -22 c2 -13 12 -24 21 -24z m700 0 c15 -1 15 -2 0
-6 -14 -3 -18 -15 -18 -53 0 -36 5 -52 18 -60 15 -10 15 -10 -3 -8 -17 3 -21
13 -25 63 -5 64 1 132 8 88 2 -13 11 -24 20 -24z m2049 -81 c-2 -24 -4 -5 -4
42 0 47 2 66 4 43 2 -24 2 -62 0 -85z m-5729 71 c-21 -12 -25 -78 -5 -99 10
-12 9 -12 -4 -2 -34 26 -23 113 14 112 7 0 4 -5 -5 -11z m62 -4 c19 -22 8 -25
-12 -3 -10 10 -14 18 -9 18 5 0 14 -7 21 -15z m113 8 c-31 -6 -41 -22 -46 -73
-3 -40 -4 -38 -5 15 l-2 60 38 1 c20 1 27 0 15 -3z m151 -15 c21 -30 20 -50
-5 -82 -20 -26 -53 -34 -63 -17 -4 5 3 7 14 4 30 -8 50 15 50 58 0 26 -6 41
-17 48 -10 6 -13 11 -6 11 6 0 19 -10 27 -22z m84 15 c-10 -2 -18 -9 -18 -15
0 -6 -3 -9 -6 -5 -10 10 6 27 24 26 15 -1 15 -2 0 -6z m64 -68 c2 -42 0 -51
-9 -43 -8 6 -10 20 -7 34 5 20 2 24 -17 25 l-24 0 23 9 c25 11 27 20 10 40
-11 12 -10 12 4 2 11 -9 17 -31 20 -67z m87 72 c-2 -1 -12 -9 -22 -16 -15 -12
-17 -12 -11 3 3 9 13 16 22 16 8 0 13 -1 11 -3z m50 -153 c-6 -8 -17 -14 -23
-14 -6 0 -3 5 6 11 14 8 17 23 17 72 -1 91 4 103 8 19 3 -47 0 -79 -8 -88z
m100 153 c-2 -1 -13 -9 -24 -17 -19 -14 -19 -14 -6 3 7 9 18 17 24 17 6 0 8
-1 6 -3z m45 -19 c10 -46 11 -107 3 -99 -6 6 -19 5 -33 -1 -25 -12 -54 -5 -54
13 0 8 4 8 15 -1 12 -10 21 -10 40 -2 33 15 34 52 3 53 l-23 0 23 9 c25 10 28
20 10 38 -9 9 -9 12 0 12 6 0 14 -10 16 -22z m63 -75 c-2 -21 -4 -6 -4 32 0
39 2 55 4 38 2 -18 2 -50 0 -70z m130 15 c-2 -18 -4 -6 -4 27 0 33 2 48 4 33
2 -15 2 -42 0 -60z m74 63 c-42 -42 8 -130 55 -93 5 4 4 0 -3 -7 -10 -11 -19
-13 -40 -5 -37 13 -52 63 -29 99 9 14 21 25 26 25 6 0 2 -8 -9 -19z m69 0 c5
-11 10 -26 9 -33 0 -7 -5 -1 -10 14 -6 15 -18 29 -27 31 -16 4 -16 5 0 6 10 0
22 -8 28 -18z m71 -44 c-4 -74 -11 -72 -11 3 0 35 3 60 7 56 4 -3 6 -30 4 -59z
m77 51 c7 -7 11 -35 11 -62 l-2 -51 -6 53 c-4 30 -13 57 -21 62 -8 6 -10 10
-4 10 5 0 15 -5 22 -12z m69 -80 c-2 -18 -4 -4 -4 32 0 36 2 50 4 33 2 -18 2
-48 0 -65z m72 76 c-11 -14 -10 -18 6 -30 17 -13 17 -14 2 -14 -10 0 -20 7
-23 15 -8 19 2 45 17 45 8 0 7 -5 -2 -16z m62 -1 c13 -17 13 -17 -6 -3 -11 8
-22 16 -24 17 -2 2 0 3 6 3 6 0 17 -8 24 -17z m318 14 c-2 -1 -13 -9 -24 -17
-19 -14 -19 -14 -6 3 7 9 18 17 24 17 6 0 8 -1 6 -3z m41 -7 c0 -5 -7 -7 -15
-4 -8 4 -15 8 -15 10 0 2 7 4 15 4 8 0 15 -4 15 -10z m71 -53 c-4 -74 -11 -72
-11 3 0 35 3 60 7 56 4 -3 6 -30 4 -59z m77 51 c7 -7 11 -35 11 -62 l-2 -51
-6 53 c-4 30 -13 57 -21 62 -8 6 -10 10 -4 10 5 0 15 -5 22 -12z m229 -85 c-2
-21 -4 -6 -4 32 0 39 2 55 4 38 2 -18 2 -50 0 -70z m77 86 c4 6 12 11 19 11 6
0 2 -7 -10 -15 -18 -13 -21 -25 -21 -81 0 -36 -3 -68 -6 -71 -3 -4 -6 34 -6
83 0 53 4 84 9 75 6 -9 11 -10 15 -2z m76 -10 c6 -11 9 -25 6 -32 -2 -7 -5 -5
-5 5 -1 9 -8 24 -17 32 -8 9 -11 16 -5 16 6 0 15 -9 21 -21z m86 8 c-23 -17
-29 -72 -10 -92 19 -18 45 -19 64 -2 12 10 12 9 1 -5 -28 -38 -91 -4 -91 49 0
27 25 63 43 63 6 0 3 -6 -7 -13z m58 -3 c9 -8 16 -23 15 -32 0 -13 -3 -11 -9
5 -5 12 -17 26 -27 32 -10 6 -13 11 -6 11 6 0 19 -7 27 -16z m165 13 c-2 -1
-13 -9 -24 -17 -19 -14 -19 -14 -6 3 7 9 18 17 24 17 6 0 8 -1 6 -3z m41 -7
c0 -5 -7 -7 -15 -4 -8 4 -15 8 -15 10 0 2 7 4 15 4 8 0 15 -4 15 -10z m150 6
c0 -2 -8 -10 -17 -17 -16 -13 -17 -12 -4 4 13 16 21 21 21 13z m46 -4 c6 -4
13 -33 16 -65 3 -38 1 -54 -5 -48 -7 7 -16 7 -29 0 -31 -16 -60 -2 -56 29 2
14 9 27 16 28 7 1 8 0 2 -3 -15 -7 -12 -43 4 -49 22 -8 56 14 56 36 0 14 -7
20 -22 21 l-23 2 23 4 c26 5 29 28 5 42 -10 6 -13 10 -8 11 6 0 15 -4 21 -8z
m408 -6 c-10 -8 -21 -12 -24 -10 -5 6 21 24 34 24 6 0 1 -6 -10 -14z m60 -2
c9 -8 16 -23 15 -32 0 -13 -3 -11 -9 5 -5 12 -17 26 -27 32 -10 6 -13 11 -6
11 6 0 19 -7 27 -16z m73 -76 c-2 -18 -4 -4 -4 32 0 36 2 50 4 33 2 -18 2 -48
0 -65z m50 86 c-3 -3 -12 -4 -19 -1 -8 3 -5 6 6 6 11 1 17 -2 13 -5z m73 2 c0
-2 -7 -7 -16 -10 -8 -3 -12 -2 -9 4 6 10 25 14 25 6z m45 -8 c8 -28 11 -117 3
-112 -4 3 -8 18 -8 35 0 20 -5 29 -17 30 -17 1 -17 2 0 6 9 2 17 13 17 23 0
10 -8 21 -17 23 -17 4 -17 5 0 6 10 0 19 -5 22 -11z m226 -14 c5 -15 8 -29 5
-31 -2 -2 -8 10 -14 26 -13 38 -5 41 9 5z m75 -11 c-29 -78 -56 -133 -66 -133
-6 0 -4 7 4 16 11 10 14 25 10 42 -4 18 -3 23 4 14 9 -14 14 -6 41 71 6 15 13
27 15 27 3 0 -1 -17 -8 -37z m84 33 c0 -2 -7 -7 -16 -10 -8 -3 -12 -2 -9 4 6
10 25 14 25 6z m45 -8 c8 -28 11 -117 3 -112 -4 3 -8 18 -8 35 0 20 -5 29 -17
30 -17 1 -17 2 0 6 20 5 23 39 5 46 -10 4 -10 6 0 6 7 1 14 -5 17 -11z m88 0
c-6 -7 -12 -20 -15 -28 -3 -9 -7 -10 -11 -3 -4 6 0 19 9 27 18 19 31 21 17 4z
m63 -53 c1 -52 0 -54 -3 -10 -2 32 -10 55 -21 63 -16 13 -15 14 3 10 17 -3 20
-11 21 -63z m80 49 c-19 -19 -21 -65 -3 -84 10 -12 9 -12 -5 -1 -31 23 -19
101 15 101 5 0 1 -7 -7 -16z m82 -54 c0 -36 -2 -57 -5 -47 -2 9 -10 17 -16 17
-8 0 -7 4 1 12 19 19 14 55 -9 71 -20 15 -20 15 4 13 23 -1 24 -4 25 -66z
m192 60 c0 -5 -5 -10 -11 -10 -5 0 -7 5 -4 10 3 6 8 10 11 10 2 0 4 -4 4 -10z
m84 -4 c-21 -15 -30 -14 -19 3 3 6 14 11 23 11 13 0 13 -2 -4 -14z m60 -8 c13
-64 14 -109 2 -99 -7 6 -17 6 -26 1 -8 -6 -22 -9 -30 -9 -8 0 -4 5 10 10 43
18 56 59 18 60 l-23 0 23 9 c25 10 28 20 10 38 -9 9 -9 12 0 12 6 0 14 -10 16
-22z m66 -48 l-7 -55 -2 65 c0 36 3 60 8 55 4 -6 5 -35 1 -65z m76 59 c4 -8 9
-8 17 0 6 6 16 11 21 11 6 0 1 -7 -11 -15 -16 -11 -23 -28 -26 -63 l-3 -47 -2
51 c-1 27 -7 55 -14 62 -9 9 -9 12 -1 12 7 0 15 -5 19 -11z m81 -25 c1 -25 0
-26 -4 -4 -3 14 -10 29 -17 33 -7 6 -6 7 4 4 8 -2 16 -16 17 -33z m202 20
c-11 -14 -10 -18 6 -30 17 -13 17 -14 2 -14 -10 0 -20 7 -23 15 -8 19 2 45 17
45 8 0 7 -5 -2 -16z m62 -1 c13 -16 12 -17 -3 -4 -10 7 -18 15 -18 17 0 8 8 3
21 -13z m79 -3 c-11 -11 -17 -26 -14 -34 3 -8 1 -17 -5 -21 -17 -10 -13 27 5
53 8 12 19 22 25 22 5 0 0 -9 -11 -20z m70 -1 c6 -11 9 -25 6 -32 -2 -7 -5 -5
-5 5 -1 9 -8 24 -17 32 -8 9 -11 16 -5 16 6 0 15 -9 21 -21z m80 1 c-35 -35
-20 -84 30 -103 12 -4 11 -6 -2 -6 -25 -1 -58 34 -58 62 0 25 26 67 41 67 5 0
0 -9 -11 -20z m80 -7 c-1 -24 -2 -26 -11 -10 -5 9 -7 22 -4 27 10 17 15 11 15
-17z m138 13 c-7 -8 -15 -12 -17 -11 -5 6 10 25 20 25 5 0 4 -6 -3 -14z m60
-19 c3 -24 0 -27 -25 -26 -23 2 -24 2 -5 6 23 5 31 37 12 46 -6 3 -5 4 2 3 7
-1 14 -15 16 -29z m231 30 c-2 -1 -13 -9 -24 -17 -19 -14 -19 -14 -6 3 7 9 18
17 24 17 6 0 8 -1 6 -3z m46 -9 c10 -33 12 -119 2 -109 -7 7 -16 7 -29 0 -31
-16 -60 -2 -56 29 2 14 9 27 16 28 7 1 8 0 2 -3 -15 -7 -12 -43 4 -49 22 -8
56 14 56 36 0 14 -7 20 -22 21 l-23 2 23 4 c26 5 30 39 5 46 -17 4 -17 5 0 6
10 0 19 -5 22 -11z m87 0 c-5 -7 -12 -22 -14 -33 -3 -18 -4 -18 -10 -3 -4 10
-1 24 8 33 18 18 31 20 16 3z m64 -53 c1 -52 0 -54 -3 -10 -2 32 -10 55 -21
63 -16 13 -15 14 3 10 17 -3 20 -11 21 -63z m213 51 c7 -8 11 -35 8 -63 l-3
-48 -2 52 c-2 38 -7 55 -19 62 -10 6 -13 11 -7 11 6 0 17 -6 23 -14z m79 0
c-7 -8 -15 -12 -17 -11 -5 6 10 25 20 25 5 0 4 -6 -3 -14z m59 -22 c1 -25 0
-26 -4 -4 -3 14 -10 29 -17 33 -7 6 -6 7 4 4 8 -2 16 -16 17 -33z m83 16 c-11
-11 -20 -33 -20 -50 0 -25 6 -34 33 -45 17 -8 25 -14 17 -15 -32 0 -60 30 -60
65 0 32 21 65 41 65 5 0 0 -9 -11 -20z m240 7 c-20 -10 -26 -22 -31 -62 l-6
-50 -1 58 c-1 34 2 56 7 52 5 -3 12 -1 16 5 3 5 14 10 23 10 12 0 9 -4 -8 -13z
m-103 -79 c-2 -18 -4 -6 -4 27 0 33 2 48 4 33 2 -15 2 -42 0 -60z m-4845 0 c2
-22 0 -34 -5 -29 -5 5 -21 4 -37 -2 -47 -18 -81 25 -42 54 14 11 15 11 5 -1
-19 -20 -16 -38 7 -45 26 -8 60 11 60 35 0 14 -7 20 -22 20 -23 0 -23 1 2 13
27 14 27 15 32 -45z m881 9 c3 -32 1 -45 -5 -39 -6 6 -20 6 -38 -1 -48 -18
-81 24 -42 54 15 13 16 12 3 -3 -11 -15 -11 -21 -1 -33 16 -19 35 -19 54 1 23
22 20 44 -6 44 -23 0 -23 1 2 13 14 8 26 13 26 13 1 -1 4 -23 7 -49z m3071 39
c-3 -7 7 -27 21 -45 15 -17 23 -31 18 -31 -4 0 -17 14 -28 30 -11 16 -24 30
-29 30 -5 0 -3 7 4 15 15 19 21 19 14 1z m-5206 -64 c17 -7 21 -11 10 -11 -25
-1 -58 35 -57 62 1 17 3 15 10 -10 6 -21 18 -35 37 -41z m2724 -3 c19 -12 42
-11 58 4 12 10 12 9 1 -5 -29 -38 -92 -3 -90 50 1 25 2 25 9 -7 4 -18 14 -37
22 -42z m-2894 31 c-7 -10 -14 -17 -17 -15 -4 4 18 35 25 35 2 0 -1 -9 -8 -20z
m1056 11 c4 -5 -3 -7 -14 -4 -23 6 -26 13 -6 13 8 0 17 -4 20 -9z m2079 2
c-21 -8 -15 -43 10 -53 12 -5 17 -9 10 -9 -25 -2 -43 12 -43 33 0 25 8 36 24
35 6 0 5 -3 -1 -6z m429 -2 c-8 -5 -12 -17 -10 -27 3 -14 12 -19 33 -17 28 1
29 1 8 -9 -17 -8 -27 -8 -38 2 -24 20 -18 60 9 60 6 0 5 -4 -2 -9z m640 -22
c-4 -26 -6 -29 -14 -15 -6 11 -6 22 2 32 17 19 17 19 12 -17z m566 7 c8 -40
-38 -59 -74 -31 -18 14 -17 15 8 4 15 -6 34 -9 42 -6 18 7 22 43 6 50 -6 3 -5
4 2 3 7 -1 14 -10 16 -20z m1214 12 c-19 -19 -14 -38 11 -48 13 -5 16 -9 7 -9
-33 -2 -56 51 -27 62 20 9 22 8 9 -5z m-4048 -39 c-18 -20 -49 -25 -59 -9 -3
5 0 7 9 4 20 -8 56 13 57 34 0 11 2 13 6 4 3 -7 -3 -22 -13 -33z m2207 -1 c15
-28 5 -21 -21 15 -15 20 -17 27 -6 18 9 -8 22 -23 27 -33z m1081 -3 c15 1 24
-3 22 -7 -8 -12 -38 -10 -52 4 -7 7 -12 21 -11 33 1 17 2 16 8 -5 5 -19 14
-25 33 -25z m60 -2 c7 -9 7 -13 0 -13 -12 0 -22 25 -21 48 1 13 3 12 6 -3 3
-11 10 -26 15 -32z m338 10 c0 -25 -15 -12 -17 14 -1 19 1 22 8 12 5 -8 9 -20
9 -26z m-550 13 c0 -8 -7 -16 -15 -20 -12 -4 -13 -2 -2 14 14 24 17 25 17 6z
m993 -36 c-6 -7 -23 23 -23 40 0 8 6 4 13 -10 8 -14 12 -27 10 -30z m-6397 14
c-11 -8 -27 -14 -35 -13 -9 0 -4 5 12 11 15 5 27 15 27 21 0 5 3 7 7 3 5 -4
-1 -14 -11 -22z m1317 12 c3 -8 16 -16 29 -19 21 -4 21 -4 2 -6 -11 0 -29 8
-39 19 -10 11 -13 20 -8 20 6 0 13 -6 16 -14z m68 -9 c-10 -9 -11 -8 -5 6 3
10 9 15 12 12 3 -3 0 -11 -7 -18z m3819 -7 c7 0 22 7 32 17 11 10 18 12 18 4
0 -6 -11 -17 -25 -23 -28 -13 -75 2 -75 23 0 8 7 6 18 -4 10 -10 25 -17 32
-17z m-4827 -2 c-2 -5 -13 -8 -23 -8 -10 0 -21 3 -23 8 -3 4 8 7 23 7 15 0 26
-3 23 -7z m6387 -8 c0 -11 -2 -20 -4 -20 -2 0 -6 9 -9 20 -3 11 -1 20 4 20 5
0 9 -9 9 -20z m-5873 -25 c-4 -8 -12 -15 -19 -14 -10 0 -10 2 0 6 6 2 12 12
12 21 0 8 3 13 6 9 4 -3 4 -13 1 -22z m3363 -5 c-24 -15 -36 -11 -14 4 10 8
21 12 24 10 2 -3 -2 -9 -10 -14z m-55 -8 c-3 -3 -11 0 -18 7 -9 10 -8 11 6 5
10 -3 15 -9 12 -12z m-3857 -156 l37 27 -37 -34 c-22 -21 -38 -46 -41 -64 -2
-16 -4 11 -4 60 1 50 2 66 4 37 l4 -52 37 26z m1642 -11 c0 -70 -2 -83 -15
-79 -10 4 -12 11 -5 23 5 9 7 36 5 60 -3 40 3 81 11 81 2 0 4 -38 4 -85z m942
15 c0 -48 4 -66 19 -81 10 -10 15 -19 10 -19 -6 0 -13 5 -17 11 -4 8 -9 7 -15
-2 -5 -9 -9 22 -9 75 0 49 3 87 6 83 3 -3 6 -33 6 -67z m-2859 -24 c1 -42 -1
-76 -5 -76 -5 0 -8 37 -8 82 0 102 11 97 13 -6z m-92 44 c16 -9 19 -20 17 -68
l-2 -57 -3 50 c-5 56 -18 79 -45 72 -10 -3 -16 -1 -12 4 7 12 21 11 45 -1z
m592 -1 c22 -10 24 -16 20 -57 -7 -70 -11 -74 -12 -11 -1 48 -4 58 -23 67 -30
14 -16 15 15 1z m86 -3 c7 -9 11 -36 8 -68 l-3 -53 -2 56 c-2 57 -18 79 -44
62 -7 -3 -8 -1 -4 5 10 16 31 15 45 -2z m147 -8 l19 -23 -23 19 c-19 16 -26
17 -50 7 -25 -10 -26 -10 -8 4 27 20 40 19 62 -7z m146 9 c13 -11 15 -22 8
-67 l-8 -55 -1 57 c-1 43 -5 60 -18 67 -10 6 -13 10 -8 10 6 0 17 -5 27 -12z
m79 -4 c13 -15 12 -15 -11 -3 -34 17 -36 20 -18 20 9 0 22 -7 29 -17z m157 1
c33 -23 25 -114 -10 -114 -6 0 -4 8 5 18 10 10 17 30 17 44 0 30 -33 63 -55
54 -9 -3 -13 -2 -10 4 9 14 27 12 53 -6z m148 -6 l19 -23 -23 19 c-19 16 -26
17 -50 7 -25 -10 -26 -10 -8 4 27 20 40 19 62 -7z m124 12 c-8 -5 -19 -10 -25
-10 -5 0 -3 5 5 10 8 5 20 10 25 10 6 0 3 -5 -5 -10z m142 -4 c12 0 14 -4 8
-10 -6 -6 -11 -33 -11 -60 l-2 -51 -6 54 c-5 35 -13 58 -26 68 -20 16 -20 16
0 8 11 -4 28 -8 37 -9z m62 -2 c11 -11 15 -31 14 -67 l-2 -52 -3 52 c-3 40 -9
56 -26 68 -12 8 -16 15 -10 15 6 0 19 -7 27 -16z m261 4 c-48 -26 -58 -65 -25
-98 11 -11 16 -20 11 -20 -15 0 -41 42 -41 64 0 24 38 66 59 66 12 -1 11 -3
-4 -12z m184 -2 c16 -19 23 -116 8 -110 -8 3 -11 22 -9 54 4 45 1 51 -20 59
-15 6 -17 10 -7 10 9 1 22 -5 28 -13z m150 0 c7 -9 11 -36 8 -68 l-3 -53 -2
58 c-2 50 -5 59 -24 67 -16 6 -18 9 -7 9 9 1 22 -5 28 -13z m219 -2 c12 -8 22
-23 21 -32 0 -15 -1 -14 -8 2 -4 10 -18 24 -32 32 -13 7 -19 13 -14 14 6 0 21
-7 33 -16z m148 1 c18 -14 17 -14 -9 -3 -23 9 -30 9 -43 -3 -22 -23 -25 -60
-7 -89 l16 -25 -21 19 c-28 24 -28 66 -2 94 24 26 39 27 66 7z m147 1 c11 -12
17 -12 28 -3 11 10 11 9 2 -3 -7 -9 -13 -38 -16 -65 l-3 -50 -2 51 c-2 60 -19
81 -51 65 -15 -8 -21 -24 -24 -59 -3 -46 -3 -46 -5 11 -1 32 2 56 6 53 4 -2
14 -1 22 5 20 12 26 11 43 -5z m81 -5 c13 -14 16 -32 13 -67 l-3 -49 -2 52
c-2 41 -7 55 -24 67 -12 9 -18 16 -12 16 6 0 19 -9 28 -19z m158 2 c10 -9 18
-23 17 -32 0 -10 -4 -8 -9 7 -5 12 -20 27 -32 32 -13 5 -17 9 -9 9 8 1 23 -6
33 -16z m142 1 c18 -18 21 -54 5 -54 -6 0 -8 7 -5 16 7 19 -10 44 -30 44 -7 0
-20 -7 -28 -16 -9 -8 -16 -11 -16 -5 0 11 29 30 47 31 6 0 19 -7 27 -16z m148
-1 c13 -12 18 -29 16 -67 l-1 -51 -6 55 c-5 45 -10 57 -31 67 -14 7 -19 13
-11 13 8 0 23 -7 33 -17z m132 8 c4 -5 -2 -7 -12 -4 -23 6 -52 -21 -52 -48 0
-10 9 -28 20 -39 15 -15 16 -20 5 -20 -18 0 -35 31 -35 64 0 36 58 73 74 47z
m320 -4 c14 -10 16 -24 13 -67 l-3 -55 -2 57 c-2 52 -4 57 -29 66 -16 6 -21
11 -12 11 8 1 23 -5 33 -12z m138 1 c18 -15 30 -120 13 -115 -5 2 -10 25 -10
52 0 59 -22 80 -54 51 -12 -11 -21 -14 -21 -8 0 12 28 31 46 32 5 0 17 -6 26
-12z m149 2 c16 -9 19 -20 17 -68 l-2 -57 -3 50 c-5 56 -18 79 -45 72 -10 -3
-16 -1 -12 4 7 12 21 11 45 -1z m144 -1 c4 -6 13 -8 21 -5 12 5 12 2 3 -16
l-12 -22 -9 23 c-6 17 -14 22 -28 18 -11 -3 -18 -1 -14 4 7 12 31 11 39 -2z
m87 -6 c13 -12 18 -29 16 -67 l-1 -51 -6 55 c-5 45 -10 57 -31 67 -14 7 -19
13 -11 13 8 0 23 -7 33 -17z m-4499 -103 c11 -13 10 -13 -5 -1 -14 10 -18 26
-16 65 l2 51 3 -50 c3 -27 10 -56 16 -65z m77 49 c0 -33 -3 -58 -7 -56 -8 5
-5 117 3 117 2 0 4 -27 4 -61z m70 35 c0 -8 -4 -14 -9 -14 -6 0 -9 9 -8 19 1
22 17 18 17 -5z m330 -35 c0 -44 -3 -59 -12 -56 -7 2 -12 9 -11 14 1 5 3 31 4
56 4 69 19 57 19 -14z m257 -31 c-2 -18 -4 -4 -4 32 0 36 2 50 4 33 2 -18 2
-48 0 -65z m374 22 l-9 -55 -1 65 c-1 39 3 60 8 55 6 -6 6 -33 2 -65z m539 10
c0 -27 -3 -51 -7 -53 -5 -3 -8 21 -9 54 0 32 3 56 8 53 4 -3 8 -27 8 -54z
m110 46 c-5 -7 -10 -34 -13 -61 -3 -49 -3 -49 -5 11 -2 48 1 61 13 61 10 0 12
-4 5 -11z m223 -96 c11 -13 10 -13 -5 -1 -14 10 -18 26 -16 65 l2 51 3 -50 c3
-27 10 -56 16 -65z m77 52 c0 -51 -2 -58 -20 -58 -17 0 -18 2 -5 16 8 9 15 35
15 58 0 23 2 42 5 42 3 0 5 -26 5 -58z m361 10 c-4 -54 -11 -53 -11 3 0 27 3
45 7 41 4 -4 6 -24 4 -44z m211 1 c-2 -23 4 -43 15 -57 15 -17 15 -19 1 -8
-15 12 -17 9 -21 -25 -2 -21 -4 2 -5 51 -1 49 1 86 5 82 4 -4 6 -23 5 -43z
m825 -45 c-2 -18 -4 -4 -4 32 0 36 2 50 4 33 2 -18 2 -48 0 -65z m235 -60 c-5
-5 -7 4 -4 21 4 27 2 29 -19 25 l-24 -5 23 10 c18 9 22 19 24 58 1 32 3 23 5
-26 2 -41 0 -78 -5 -83z m158 91 c0 -33 -3 -58 -7 -56 -8 5 -5 117 3 117 2 0
4 -27 4 -61z m350 -9 l-7 -55 -2 65 c0 36 3 60 8 55 4 -6 5 -35 1 -65z m150 0
l-7 -55 -2 65 c0 36 3 60 8 55 4 -6 5 -35 1 -65z m243 -39 c10 -11 9 -13 -3
-9 -11 3 -15 21 -16 64 -1 53 -1 54 3 9 2 -27 10 -56 16 -64z m77 48 c0 -37
-4 -58 -10 -54 -5 3 -10 31 -10 61 0 30 5 54 10 54 6 0 10 -27 10 -61z m-3327
-20 c-3 -97 -13 -101 -13 -6 0 43 3 77 8 77 4 0 6 -32 5 -71z m2568 10 l-9
-54 -1 51 c0 28 2 54 6 57 12 13 13 0 4 -54z m-2897 22 c25 2 46 1 46 -3 0 -5
-22 -8 -50 -8 -54 0 -65 -14 -34 -44 8 -9 12 -16 7 -16 -19 0 -33 26 -33 60 0
23 3 31 9 21 6 -9 23 -12 55 -10z m506 -4 c25 -4 25 -4 -2 -6 -32 -1 -36 -16
-11 -43 9 -10 11 -18 5 -18 -6 0 -16 9 -22 19 -11 22 -14 82 -2 65 4 -7 18
-14 32 -17z m1360 8 c0 -11 -11 -15 -42 -13 l-43 1 38 4 c20 2 37 8 37 14 0 5
2 9 5 9 3 0 5 -7 5 -15z m877 -17 c-3 -7 -5 -2 -5 12 0 14 2 19 5 13 2 -7 2
-19 0 -25z m-3354 -51 c8 -6 7 -7 -3 -4 -10 2 -15 17 -16 43 -1 37 -1 38 3 4
3 -19 10 -39 16 -43z m1187 63 c0 -5 -10 -10 -22 -9 -22 0 -22 1 -3 9 11 5 21
9 23 9 1 1 2 -3 2 -9z m-999 -27 c13 -16 12 -17 -3 -4 -10 7 -18 15 -18 17 0
8 8 3 21 -13z m1682 -4 c-4 -12 0 -25 8 -30 11 -6 11 -9 1 -9 -16 0 -26 25
-18 45 8 23 15 18 9 -6z m1047 6 c-10 -12 -10 -18 0 -30 8 -9 8 -15 2 -15 -13
0 -26 36 -17 50 3 5 11 10 17 10 7 0 6 -6 -2 -15z m745 -14 c0 -16 -3 -27 -7
-24 -5 2 -8 15 -8 29 0 13 3 24 8 24 4 0 7 -13 7 -29z m-3928 -13 c-3 -7 -5
-2 -5 12 0 14 2 19 5 13 2 -7 2 -19 0 -25z m2583 -3 c-7 -8 -18 -15 -24 -15
-6 0 -3 5 7 11 9 5 17 18 18 27 0 11 2 12 6 4 3 -7 -1 -19 -7 -27z m530 0 c-7
-8 -18 -15 -24 -15 -6 0 -3 5 7 11 9 5 17 18 18 27 0 11 2 12 6 4 3 -7 -1 -19
-7 -27z m155 -13 c-1 -1 -9 0 -18 4 -13 5 -14 9 -4 25 12 19 12 19 18 -3 3
-13 5 -24 4 -26z m-2365 8 c-24 -15 -36 -11 -14 4 10 8 21 12 24 10 2 -3 -2
-9 -10 -14z m540 11 c0 -5 -7 -12 -16 -15 -14 -5 -15 -4 -4 9 14 17 20 19 20
6z m1290 -6 c-7 -8 -17 -15 -23 -15 -6 0 -2 7 9 15 25 19 30 19 14 0z m915
-14 c-6 -5 -25 10 -25 20 0 5 6 4 14 -3 8 -7 12 -15 11 -17z m955 -9 c0 -15
-2 -15 -10 -2 -13 20 -13 33 0 25 6 -3 10 -14 10 -23z m-1077 -39 c-7 -2 -19
-2 -25 0 -7 3 -2 5 12 5 14 0 19 -2 13 -5z m-1141 -173 c7 0 23 10 37 23 l26
22 -23 -26 c-14 -16 -19 -29 -13 -33 5 -4 20 -21 31 -39 18 -26 16 -25 -14 8
-38 43 -51 41 -59 -10 -2 -16 -4 13 -4 65 1 52 2 71 4 43 2 -31 9 -53 15 -53z
m778 0 c5 0 12 4 15 10 3 5 16 15 28 21 19 9 19 8 -3 -10 l-25 -20 33 -43 33
-43 -35 39 c-39 43 -52 41 -59 -9 -2 -16 -4 13 -4 65 1 52 2 71 4 43 2 -29 8
-53 13 -53z m-3287 -73 c7 -2 5 -3 -3 -3 -11 1 -16 18 -20 62 -3 34 -3 69 0
80 3 10 6 -16 8 -58 2 -49 7 -78 15 -81z m2435 0 c13 -4 12 -5 -4 -6 -20 -1
-22 5 -26 67 -3 37 -2 74 1 82 3 8 7 -20 9 -62 2 -62 6 -78 20 -81z m-530 88
c-2 -12 -6 -11 -16 6 -8 11 -9 18 -3 14 6 -3 12 2 12 12 1 17 2 17 6 1 2 -10
3 -25 1 -33z m7614 -2 c7 -9 7 -13 0 -13 -12 0 -22 25 -21 48 1 13 3 12 6 -3
3 -11 10 -26 15 -32z m-9228 31 c9 -3 16 -13 16 -22 0 -14 -1 -14 -12 0 -7 9
-20 18 -28 21 -8 3 -10 6 -3 6 6 1 18 -2 27 -5z m121 -1 c-38 -10 -47 -25 -42
-67 4 -26 2 -35 -4 -25 -24 39 4 100 45 98 20 -1 20 -2 1 -6z m162 1 c-3 -3
-12 -4 -19 -1 -8 3 -5 6 6 6 11 1 17 -2 13 -5z m358 -1 c-11 -3 -27 -10 -35
-17 -13 -10 -13 -9 -1 7 7 9 23 16 35 16 20 -1 20 -2 1 -6z m102 -126 c-2 -23
-3 -1 -3 48 0 50 1 68 3 42 2 -26 2 -67 0 -90z m85 116 c40 -36 11 -114 -41
-112 -25 1 -25 2 4 8 37 8 54 48 37 87 -10 21 -18 25 -42 22 -16 -2 -27 -1
-24 4 9 14 46 9 66 -9z m108 10 c-14 -3 -28 -10 -32 -17 -5 -7 -8 -7 -8 0 0
17 12 24 39 23 l26 -2 -25 -4z m97 -15 c-3 -8 -6 -5 -6 6 -1 11 2 17 5 13 3
-3 4 -12 1 -19z m116 15 c-7 -2 -19 -2 -25 0 -7 3 -2 5 12 5 14 0 19 -2 13 -5z
m132 0 c-32 -8 -45 -23 -45 -52 0 -32 16 -51 45 -52 17 -1 18 -2 2 -6 -25 -6
-57 25 -57 55 0 32 27 62 54 61 20 -1 20 -2 1 -6z m463 -5 c14 -18 20 -117 6
-111 -6 2 -8 17 -6 33 3 21 0 30 -9 30 -12 0 -12 2 0 9 19 12 7 39 -21 44 -21
4 -21 4 -2 6 12 0 26 -5 32 -11z m154 0 c17 -14 31 -48 20 -48 -4 0 -12 10
-17 22 -6 12 -21 25 -35 29 -21 6 -22 7 -4 8 11 1 27 -5 36 -11z m146 0 c14
-17 20 -119 7 -114 -5 2 -9 17 -7 35 1 19 -3 31 -10 31 -10 0 -10 2 0 8 18 12
5 40 -21 45 l-22 4 21 2 c12 0 26 -5 32 -11z m337 5 c-11 -3 -27 -10 -35 -17
-13 -10 -13 -9 -1 7 7 9 23 16 35 16 20 -1 20 -2 1 -6z m183 -5 c7 -7 11 -35
10 -67 -1 -45 -2 -48 -5 -16 -6 68 -12 83 -36 88 -20 4 -20 4 -1 6 11 0 25 -4
32 -11z m203 -5 c11 -15 11 -16 -1 -5 -19 16 -57 15 -63 -2 -7 -18 12 -36 39
-36 22 0 51 -26 41 -37 -4 -3 -9 2 -13 11 -3 9 -15 16 -26 16 -27 0 -58 18
-58 33 0 36 58 50 81 20z m122 10 c-7 -2 -19 -2 -25 0 -7 3 -2 5 12 5 14 0 19
-2 13 -5z m272 0 c-11 -3 -27 -10 -35 -17 -13 -10 -13 -9 -1 7 7 9 23 16 35
16 20 -1 20 -2 1 -6z m269 -8 c10 -10 14 -28 12 -48 -2 -18 0 -40 5 -49 7 -12
6 -18 -1 -18 -14 0 -20 16 -23 70 -2 38 -6 45 -27 51 -23 6 -23 7 -3 8 12 1
29 -6 37 -14z m144 3 c7 -7 12 -16 12 -22 0 -5 -6 -3 -12 6 -7 9 -22 18 -33
21 -20 5 -20 5 1 6 11 0 25 -4 32 -11z m117 5 c-32 -8 -45 -23 -45 -52 0 -32
16 -51 45 -52 17 -1 18 -2 2 -6 -25 -6 -57 25 -57 55 0 32 27 62 54 61 20 -1
20 -2 1 -6z m5505 -3 c0 -5 -4 -10 -9 -10 -6 0 -13 5 -16 10 -3 6 1 10 9 10 9
0 16 -4 16 -10z m-9410 -57 c0 -31 -2 -54 -5 -51 -9 8 -11 108 -3 108 5 0 8
-25 8 -57z m147 25 c-3 -7 -5 -2 -5 12 0 14 2 19 5 13 2 -7 2 -19 0 -25z m222
-120 c-27 -22 -53 -23 -70 -1 -13 15 -12 15 8 3 17 -11 27 -11 48 -2 25 11 26
15 22 77 -2 36 -1 68 2 71 3 3 7 -25 9 -63 3 -60 0 -70 -19 -85z m78 122 c-7
-17 -13 -26 -15 -21 -3 10 15 51 22 51 3 0 -1 -14 -7 -30z m93 7 c0 -11 -1
-18 -3 -16 -1 2 -8 11 -15 20 -9 13 -9 16 3 16 8 0 15 -9 15 -20z m67 -45 c-2
-55 -17 -30 -17 28 1 32 3 41 10 29 5 -8 8 -34 7 -57z m80 31 c-3 -10 -5 -4
-5 12 0 17 2 24 5 18 2 -7 2 -21 0 -30z m515 -73 c6 0 9 -2 6 -5 -14 -14 -35
8 -30 32 3 15 -1 29 -9 34 -10 6 -10 9 -1 9 6 0 13 10 14 23 1 12 3 -4 5 -35
2 -34 9 -58 15 -58z m347 43 c-1 -38 -4 -58 -6 -45 -3 14 -9 20 -16 15 -7 -4
-7 0 1 10 8 9 13 29 12 44 -3 34 -1 43 5 43 3 0 4 -30 4 -67z m58 -25 c-2 -18
-4 -4 -4 32 0 36 2 50 4 33 2 -18 2 -48 0 -65z m130 63 c-16 -42 3 -81 40 -82
25 -2 26 -2 5 -6 -14 -3 -32 3 -43 13 -21 19 -26 73 -7 92 17 17 18 15 5 -17z
m300 -2 c-8 -20 -8 -35 1 -54 7 -14 8 -24 3 -20 -5 3 -12 -9 -14 -27 -2 -18
-5 3 -5 48 -2 62 1 81 12 81 10 0 11 -6 3 -28z m665 -16 c-5 -76 -10 -83 -11
-15 0 34 2 62 7 62 4 0 6 -21 4 -47z m438 5 c0 -15 -9 -18 -45 -18 -45 0 -50
-5 -39 -34 7 -19 54 -21 74 -3 12 10 12 9 1 -5 -16 -21 -64 -24 -79 -5 -16 20
-19 97 -3 97 5 0 7 -9 4 -20 -5 -18 0 -20 37 -20 41 0 42 1 36 28 -5 20 -4 23
4 12 5 -8 10 -23 10 -32z m272 17 c3 -16 1 -25 -7 -25 -8 0 -10 9 -7 25 2 14
6 25 7 25 1 0 5 -11 7 -25z m78 11 c-5 -7 -10 -34 -13 -61 -3 -49 -3 -49 -5
11 -2 48 1 61 13 61 10 0 12 -4 5 -11z m231 -49 c-4 -74 -11 -72 -11 3 0 35 3
60 7 56 4 -3 6 -30 4 -59z m239 -5 c0 -36 -3 -63 -6 -59 -4 3 -6 27 -6 53 1
26 -3 53 -8 59 -7 8 -5 12 5 12 12 0 15 -15 15 -65z m-1318 -52 c-8 -11 -19
24 -14 46 2 14 0 24 -7 24 -8 0 -8 4 1 14 11 12 14 6 18 -33 3 -25 4 -48 2
-51z m-1752 80 c0 -5 -8 -10 -17 -10 -15 0 -16 2 -3 10 19 12 20 12 20 0z
m500 0 c0 -5 -5 -10 -11 -10 -5 0 -7 5 -4 10 3 6 8 10 11 10 2 0 4 -4 4 -10z
m-866 -111 c-21 -23 -43 -24 -70 -4 -17 13 -16 13 13 3 39 -15 65 3 63 41 -3
47 3 67 7 22 3 -31 -1 -48 -13 -62z m308 90 c-30 -12 -25 -41 8 -51 23 -6 23
-7 -5 -5 -20 1 -31 8 -33 20 -5 22 15 47 37 46 10 0 8 -3 -7 -10z m301 1 c-32
-13 -30 -47 2 -53 23 -4 23 -4 -2 -3 -21 1 -29 7 -31 25 -4 25 12 41 38 40 8
0 5 -4 -7 -9z m199 -1 c-30 -12 -25 -41 8 -50 14 -4 18 -7 8 -8 -28 -2 -48 10
-48 28 0 21 19 41 40 40 9 0 6 -4 -8 -10z m878 4 c-8 -4 -20 -13 -27 -22 -7
-9 -13 -11 -13 -5 0 15 22 34 40 33 13 0 13 -1 0 -6z m363 -3 c-33 -14 -27
-43 12 -53 16 -5 15 -5 -4 -4 -48 4 -50 68 -2 66 11 0 9 -3 -6 -9z m787 1
c-16 -4 -25 -14 -25 -26 0 -12 9 -22 25 -26 14 -4 18 -7 8 -8 -28 -2 -48 10
-48 28 0 23 20 41 45 40 17 -1 16 -2 -5 -8z m232 -2 c-30 -12 -25 -41 8 -51
23 -6 23 -7 -5 -5 -20 1 -31 8 -33 20 -5 22 15 47 37 46 10 0 8 -3 -7 -10z
m-3512 -24 c0 -14 -4 -25 -9 -25 -4 0 -6 11 -3 25 2 14 6 25 8 25 2 0 4 -11 4
-25z m607 -12 c-3 -10 -5 -4 -5 12 0 17 2 24 5 18 2 -7 2 -21 0 -30z m3110
-10 c-3 -10 -5 -2 -5 17 0 19 2 27 5 18 2 -10 2 -26 0 -35z m-3309 6 c24 -2
25 -2 4 -6 -24 -5 -52 12 -52 31 0 6 5 3 11 -6 5 -10 22 -19 37 -19z m416 -18
c-7 -9 -24 13 -24 32 0 21 1 21 13 -3 8 -14 12 -27 11 -29z m500 0 c-7 -9 -24
13 -24 32 0 21 1 21 13 -3 8 -14 12 -27 11 -29z m423 17 c-3 -7 -5 -2 -5 12 0
14 2 19 5 13 2 -7 2 -19 0 -25z m293 -3 c-7 -8 -24 -14 -39 -14 l-26 2 27 4
c17 3 30 13 34 26 4 13 9 17 12 9 2 -7 -2 -19 -8 -27z m1305 -13 c-1 -1 -9 0
-17 3 -10 4 -14 14 -11 26 5 19 6 19 18 -3 6 -13 11 -24 10 -26z m-467 10 c17
2 29 1 26 -4 -14 -23 -84 -1 -84 26 0 5 6 2 13 -8 10 -14 23 -17 45 -14z
m-1038 -5 c22 -4 21 -5 -4 -4 -17 1 -31 9 -33 17 -3 10 -2 11 4 4 4 -7 19 -14
33 -17z m-1577 6 c-7 -2 -19 -2 -25 0 -7 3 -2 5 12 5 14 0 19 -2 13 -5z m1873
-11 c-10 -2 -22 0 -28 6 -6 6 0 7 19 4 21 -5 23 -7 9 -10z m1814 8 c0 -5 -4
-10 -10 -10 -5 0 -10 5 -10 10 0 6 5 10 10 10 6 0 10 -4 10 -10z m-3987 -7
c-7 -2 -19 -2 -25 0 -7 3 -2 5 12 5 14 0 19 -2 13 -5z m610 0 c-7 -2 -19 -2
-25 0 -7 3 -2 5 12 5 14 0 19 -2 13 -5z m8277 -23 c13 -9 13 -10 0 -9 -8 0
-24 4 -35 9 l-20 9 20 0 c11 0 27 -4 35 -9z m-7414 -11 c24 11 26 10 14 -3
-16 -21 -54 -20 -71 1 -13 15 -12 15 8 3 17 -11 27 -12 49 -1z m2401 -15 c-3
-3 -12 -4 -19 -1 -8 3 -5 6 6 6 11 1 17 -2 13 -5z m4916 -92 c40 -94 49 -120
45 -133 -2 -7 -21 30 -43 82 -21 52 -43 100 -48 107 -7 9 -6 11 6 7 8 -4 26
-32 40 -63z m122 51 c19 -7 65 -97 65 -126 0 -9 -11 -23 -25 -29 -14 -6 -25
-18 -25 -27 -1 -13 -3 -13 -15 3 -23 30 -68 155 -61 171 6 16 33 19 61 8z m85
-172 c0 -5 3 -16 6 -25 4 -10 1 -16 -9 -16 -20 0 -30 17 -23 35 6 16 26 21 26
6z m-296 -63 c-3 -4 -11 -8 -17 -7 -9 0 -9 2 0 5 7 3 9 13 6 22 -4 14 -3 14 5
2 6 -8 8 -18 6 -22z m521 12 c3 -5 -3 -10 -14 -10 -11 0 -23 -4 -26 -10 -11
-18 -35 -11 -35 10 0 16 7 20 34 20 19 0 38 -4 41 -10z m-470 -20 c-3 -5 -12
-10 -18 -10 -7 0 -6 4 3 10 19 12 23 12 15 0z m-75 -24 c0 -8 -4 -18 -10 -21
-5 -3 -10 3 -10 14 0 12 5 21 10 21 6 0 10 -6 10 -14z m225 -26 c3 -5 -1 -10
-10 -10 -9 0 -13 5 -10 10 3 6 8 10 10 10 2 0 7 -4 10 -10z m135 -25 c7 -9 8
-15 2 -15 -5 0 -12 7 -16 15 -3 8 -4 15 -2 15 2 0 9 -7 16 -15z m-327 -40 l6
-40 -13 35 c-7 19 -11 39 -9 43 7 12 10 6 16 -38z m-59 19 c3 -8 2 -12 -4 -9
-6 3 -10 10 -10 16 0 14 7 11 14 -7z m676 1 c0 -8 -4 -15 -10 -15 -5 0 -7 7
-4 15 4 8 8 15 10 15 2 0 4 -7 4 -15z m-94 -107 c7 -22 7 -22 16 -3 10 25 1
-108 -11 -150 l-8 -30 -12 29 c-10 25 -9 31 3 38 21 12 16 60 -6 66 -10 2 -18
9 -18 16 0 22 13 56 20 56 5 0 12 -10 16 -22z"/>
<path d="M2520 4771 c-26 -50 -4 -111 39 -111 16 0 34 7 41 15 16 19 15 82 -1
101 -17 21 -66 18 -79 -5z"/>
<path d="M1280 4810 l0 -41 56 3 c41 2 60 8 68 21 20 32 -4 52 -68 55 l-56 3
0 -41z"/>
<path d="M1563 4710 c-25 -10 -31 -45 -9 -53 21 -8 61 17 64 41 4 24 -15 28
-55 12z"/>
<path d="M2093 4710 c-26 -11 -31 -45 -7 -54 17 -7 54 9 54 24 0 4 3 15 6 24
7 18 -16 21 -53 6z"/>
<path d="M2785 4713 c-35 -9 -46 -23 -34 -45 7 -14 16 -17 32 -12 28 8 33 14
42 42 7 23 1 25 -40 15z"/>
<path d="M9277 4213 c-4 -3 -7 -16 -6 -27 0 -20 1 -20 11 2 7 13 17 21 25 18
8 -3 11 -1 8 4 -7 11 -28 13 -38 3z"/>
<path d="M3590 4037 c-53 -26 -75 -121 -46 -192 22 -52 73 -69 129 -44 33 15
47 49 47 115 0 69 -20 109 -61 123 -39 14 -38 14 -69 -2z"/>
<path d="M1970 4005 l0 -45 41 0 c53 0 79 15 79 45 0 30 -26 45 -79 45 l-41 0
0 -45z"/>
<path d="M1970 3835 l0 -45 53 0 c58 0 77 12 77 47 0 29 -27 43 -84 43 l-46 0
0 -45z"/>
<path d="M1458 3949 c-10 -5 -18 -17 -18 -24 0 -8 8 -16 18 -16 77 -6 97 4 67
35 -19 18 -42 20 -67 5z"/>
<path d="M2418 3949 c-33 -19 -21 -39 22 -39 22 0 43 0 47 -1 15 -1 13 19 -2
35 -19 18 -42 20 -67 5z"/>
<path d="M4914 3942 c-38 -25 -46 -120 -14 -152 43 -43 90 -8 90 68 0 27 -6
55 -12 64 -16 20 -49 30 -64 20z"/>
<path d="M7750 3932 c-25 -20 -36 -85 -21 -124 15 -39 58 -48 83 -18 26 32 25
113 -2 140 -24 24 -32 25 -60 2z"/>
<path d="M1016 3177 c-23 -17 -32 -88 -16 -127 10 -25 18 -30 46 -30 41 0 54
21 54 84 0 68 -41 104 -84 73z"/>
<path d="M1410 3170 c-14 -14 -20 -33 -20 -66 0 -61 14 -84 50 -84 42 0 64 37
57 97 -7 69 -47 93 -87 53z"/>
<path d="M517 2484 c-4 -4 -7 -20 -7 -36 0 -27 2 -28 45 -28 49 0 67 18 48 49
-10 17 -73 27 -86 15z"/>
<path d="M510 2376 c0 -39 14 -47 64 -39 23 3 38 12 42 25 9 30 -14 48 -62 48
-43 0 -44 -1 -44 -34z"/>
<path d="M13191 6267 c8 -14 14 -16 22 -8 6 6 20 11 31 11 33 0 7 14 -29 15
-31 1 -33 0 -24 -18z"/>
<path d="M13325 6280 c-16 -7 -17 -9 -3 -9 9 -1 20 4 23 9 7 11 7 11 -20 0z"/>
<path d="M9463 5619 c-12 -12 18 -104 43 -129 12 -12 14 -10 14 23 0 27 -4 35
-14 31 -9 -3 -17 6 -24 25 -13 36 0 50 25 29 15 -11 16 -11 10 5 -4 10 -7 21
-7 23 0 9 -37 3 -47 -7z"/>
<path d="M9530 5380 c0 -5 5 -10 11 -10 5 0 7 5 4 10 -3 6 -8 10 -11 10 -2 0
-4 -4 -4 -10z"/>
<path d="M9367 4733 c-4 -3 -7 -11 -7 -17 0 -6 5 -5 12 2 6 6 9 14 7 17 -3 3
-9 2 -12 -2z"/>
<path d="M9830 4639 c0 -5 5 -7 10 -4 6 3 10 8 10 11 0 2 -4 4 -10 4 -5 0 -10
-5 -10 -11z"/>
<path d="M9886 4575 c-3 -8 -1 -15 4 -15 6 0 10 7 10 15 0 8 -2 15 -4 15 -2 0
-6 -7 -10 -15z"/>
<path d="M9900 4535 c0 -8 4 -15 10 -15 5 0 7 7 4 15 -4 8 -8 15 -10 15 -2 0
-4 -7 -4 -15z"/>
<path d="M9922 4390 c0 -14 2 -19 5 -12 2 6 2 18 0 25 -3 6 -5 1 -5 -13z"/>
<path d="M9940 4396 c0 -9 5 -16 10 -16 6 0 10 4 10 9 0 6 -4 13 -10 16 -5 3
-10 -1 -10 -9z"/>
<path d="M10210 4325 c0 -21 27 -55 43 -55 19 0 18 3 -8 30 -28 30 -35 34 -35
25z"/>
<path d="M10286 4233 c-3 -3 3 -13 13 -22 10 -9 21 -26 25 -38 4 -13 11 -23
16 -23 10 0 -18 59 -36 77 -6 7 -14 9 -18 6z"/>
<path d="M9495 4060 c-3 -5 -1 -10 4 -10 6 0 11 5 11 10 0 6 -2 10 -4 10 -3 0
-8 -4 -11 -10z"/>
<path d="M9884 3928 c6 -57 12 -94 14 -84 6 27 -8 186 -17 186 -3 0 -2 -46 3
-102z"/>
<path d="M9914 3908 c-4 -7 -3 -8 4 -4 7 4 12 2 12 -3 0 -6 5 -11 10 -11 15 0
12 17 -5 23 -8 4 -17 1 -21 -5z"/>
<path d="M9491 3844 c0 -11 3 -14 6 -6 3 7 2 16 -1 19 -3 4 -6 -2 -5 -13z"/>
<path d="M9918 3783 c-2 -43 2 -139 9 -213 7 -74 16 -178 20 -230 l8 -95 108
99 c60 54 112 95 117 90 17 -18 338 -425 424 -537 49 -64 107 -146 129 -183
l40 -66 4 -184 c4 -154 2 -188 -11 -215 -18 -36 -20 -67 -7 -102 11 -29 35
-376 26 -385 -3 -3 -23 -1 -44 4 -54 15 -81 0 -81 -42 0 -39 2 -41 68 -50 36
-4 52 -3 52 5 0 6 -10 11 -22 11 -13 1 -35 6 -49 13 -24 11 -26 15 -16 37 10
25 10 25 14 3 5 -25 33 -32 33 -8 0 9 9 15 24 15 22 0 24 -5 28 -54 2 -46 1
-53 -12 -46 -8 4 -43 11 -77 15 -63 7 -63 7 -63 -18 0 -32 6 -36 77 -47 43 -7
59 -7 65 3 5 8 8 6 9 -8 0 -11 2 -32 3 -47 3 -33 4 -33 -130 -16 -66 8 -94 15
-94 25 0 15 -36 18 -45 3 -3 -5 -21 -11 -38 -11 -31 -2 -31 -2 -4 -6 15 -2 25
-8 22 -13 -3 -5 -1 -11 4 -14 5 -4 12 -2 15 3 6 9 128 5 221 -8 39 -5 50 -10
53 -26 2 -16 1 -17 -7 -6 -7 11 -12 5 -20 -25 -6 -21 -11 -48 -11 -60 0 -42
-20 -53 -80 -43 -30 5 -90 10 -133 10 -48 1 -73 5 -65 10 10 7 9 9 -5 9 -10 0
-16 4 -13 8 3 5 -8 6 -25 4 -16 -2 -29 -8 -29 -13 0 -5 -10 -9 -22 -8 -22 0
-22 1 -3 8 19 8 19 8 -3 15 -15 5 -21 13 -18 24 2 9 8 28 11 42 4 14 15 34 24
44 9 11 10 16 4 12 -7 -4 -13 -2 -13 4 0 8 14 10 43 6 l42 -5 -37 10 c-32 9
-38 16 -38 37 -1 26 -1 26 -20 -8 -10 -19 -24 -63 -31 -98 -11 -53 -15 -61
-31 -56 -12 3 -18 0 -18 -10 0 -9 6 -16 14 -16 8 0 18 -5 22 -12 5 -8 0 -9
-15 -5 -12 3 -27 -1 -34 -8 -8 -7 -22 -15 -33 -18 -17 -4 -17 -5 3 -6 12 0 25
-6 29 -13 5 -7 11 -5 21 8 10 14 24 18 66 16 60 -2 77 -18 77 -69 0 -39 13
-47 107 -68 37 -8 97 -23 133 -33 58 -16 65 -20 68 -45 2 -15 9 -27 16 -27 8
0 16 -9 19 -20 3 -11 12 -20 21 -20 19 0 22 -25 4 -36 -6 -4 -20 4 -33 20 -18
23 -40 32 -121 51 -147 34 -194 40 -194 24 0 -36 51 -418 61 -452 8 -30 7 -42
-3 -55 -8 -10 -9 -13 -1 -9 7 4 14 -1 18 -14 4 -13 12 -18 22 -15 11 5 13 1 8
-17 -5 -19 -4 -20 5 -4 8 12 8 22 1 35 -8 13 -11 14 -11 2 0 -12 -3 -11 -11 3
-14 23 -2 39 23 31 13 -4 26 1 41 17 l21 22 9 -21 c6 -12 14 -22 19 -22 12 0
10 18 -3 22 -5 2 -7 11 -4 20 6 14 10 14 31 3 14 -7 31 -21 39 -31 7 -11 17
-15 22 -10 4 5 3 11 -4 13 -7 2 -10 10 -7 16 3 8 21 11 49 9 36 -3 45 -8 45
-23 0 -10 -5 -19 -10 -19 -6 0 -9 5 -8 12 2 7 -11 13 -29 15 -25 2 -31 -1 -27
-12 5 -11 11 -12 25 -4 15 7 19 6 19 -6 0 -12 -16 -15 -87 -16 -49 -1 -96 -1
-105 0 -20 2 -23 -10 -7 -26 6 -6 17 -28 24 -49 10 -29 14 -33 15 -16 0 16 9
26 30 33 16 6 28 15 25 19 -3 4 17 10 44 12 55 3 81 0 81 -11 0 -4 -26 -6 -57
-3 -65 5 -70 -3 -8 -12 95 -14 140 -16 125 -5 -12 9 -12 10 3 5 10 -3 28 -6
40 -7 20 0 20 -1 4 -8 -12 -4 37 -15 129 -29 82 -12 159 -29 172 -38 13 -9 37
-45 54 -80 17 -36 40 -71 52 -79 40 -26 201 -64 303 -72 92 -8 104 -7 118 9 8
10 24 18 35 18 22 0 201 50 265 74 22 8 46 15 54 16 23 0 57 45 70 93 9 29 21
49 37 58 27 14 42 12 204 -31 56 -14 86 -18 88 -11 2 6 18 11 35 11 18 0 49 5
70 11 48 13 69 57 69 146 1 88 -46 151 -81 109 -9 -10 -8 -15 4 -20 8 -3 15
-15 15 -27 l0 -22 -23 21 c-13 12 -31 22 -40 22 -27 0 -19 17 13 29 17 5 30
14 30 19 0 5 -41 15 -90 22 -80 10 -94 10 -115 -4 -35 -23 -69 -21 -62 3 3 12
-1 22 -9 25 -12 4 -11 9 5 25 16 16 26 18 50 11 17 -4 40 -6 52 -3 15 4 20 2
15 -5 -4 -7 3 -10 22 -8 15 2 47 0 70 -5 23 -5 61 -13 84 -18 24 -5 49 -6 57
-1 24 13 -24 32 -63 25 -32 -6 -33 -6 -31 25 1 20 -4 34 -14 39 -9 5 -79 16
-156 26 -77 10 -147 21 -155 26 -10 5 -23 0 -37 -13 -20 -19 -27 -20 -65 -10
-48 13 -164 26 -175 20 -5 -1 -7 -6 -6 -10 1 -3 -4 -8 -11 -11 -10 -4 -12 0
-9 14 4 16 0 19 -26 19 -25 0 -31 -4 -31 -21 0 -11 -4 -17 -10 -14 -5 3 -10
14 -10 24 0 14 -11 19 -52 24 -46 6 -93 27 -59 27 11 0 11 3 1 15 -9 11 -15
12 -25 2 -9 -8 -9 -14 -2 -19 6 -4 0 -9 -15 -13 -17 -4 -25 -12 -22 -20 4 -10
-6 -13 -39 -13 -25 1 -65 -4 -89 -11 -49 -14 -105 -12 -99 4 2 6 14 9 25 7 40
-5 -7 15 -51 23 -24 4 -43 10 -43 15 0 10 26 20 34 13 3 -4 20 -8 37 -10 44
-4 26 14 -21 22 -44 7 -55 25 -16 25 40 0 56 11 56 37 0 22 3 24 33 18 17 -4
36 -11 42 -16 5 -5 16 -9 25 -8 10 0 9 3 -5 9 l-20 9 20 0 c11 0 38 -4 60 -8
l40 -9 -37 -1 c-29 -1 -38 -5 -38 -18 0 -13 3 -14 8 -6 11 17 180 -3 204 -24
10 -9 25 -12 39 -8 14 5 19 4 15 -4 -7 -10 6 -16 28 -12 4 1 14 -3 20 -9 7 -5
15 -8 18 -5 3 3 24 -2 48 -10 24 -8 45 -13 47 -11 2 2 -35 18 -82 35 -48 17
-97 37 -108 43 -12 6 -35 11 -51 10 -29 -3 -29 -2 -8 15 26 23 62 81 43 69
-11 -7 -13 -4 -9 12 5 18 1 21 -21 21 -54 -1 -132 11 -154 23 -12 7 -26 11
-32 9 -24 -8 -121 1 -153 15 -21 8 -40 11 -49 5 -21 -11 -84 4 -95 23 -5 9
-18 16 -29 16 -13 0 -18 -4 -13 -12 5 -8 2 -9 -9 -5 -9 3 -19 2 -22 -2 -11
-20 -73 14 -75 41 0 3 17 4 38 2 20 -3 96 -11 167 -19 240 -27 390 -45 428
-51 20 -3 37 -2 37 3 0 8 -229 38 -557 74 -96 11 -121 20 -90 32 8 4 9 8 1 14
-8 6 -7 37 5 113 13 87 19 105 35 108 31 6 35 -10 24 -85 -10 -63 -9 -75 6
-98 9 -14 27 -30 40 -35 12 -4 118 -19 234 -31 228 -25 246 -23 277 25 9 13
19 53 23 88 6 56 9 63 31 66 23 4 23 2 18 -55 l-6 -58 15 69 c7 39 18 102 23
140 21 168 54 373 64 396 6 14 11 57 12 96 1 39 6 77 10 84 4 7 9 29 9 49 1
20 6 48 10 64 7 21 5 27 -8 27 -9 0 -16 -6 -16 -13 0 -21 -84 -7 -88 15 -3 14
2 15 32 8 35 -8 36 -7 36 22 0 27 -2 29 -32 26 -23 -2 -36 -10 -43 -25 -9 -20
-32 -28 -75 -25 -3 0 -86 4 -185 7 -99 4 -189 12 -199 17 -14 8 -21 6 -28 -6
-5 -9 -16 -16 -24 -16 -8 0 -12 4 -9 10 9 14 -4 12 -18 -2 -7 -7 -13 -26 -14
-42 -4 -48 -11 -59 -37 -54 l-24 5 17 -33 c15 -28 17 -42 9 -86 -5 -29 -13
-57 -18 -63 -4 -5 -10 -35 -14 -65 -18 -149 -46 -225 -46 -126 0 52 -15 69
-25 29 -5 -20 -9 -23 -15 -14 -6 11 -9 10 -12 -5 -2 -10 -4 31 -3 91 0 89 -3
109 -14 107 -11 -2 -13 9 -8 62 3 36 3 65 -1 65 -19 -3 -35 2 -28 8 4 4 24 6
44 5 20 -2 32 1 26 5 -13 10 -26 43 -16 43 4 0 4 71 0 157 -3 87 -6 221 -7
298 -1 129 1 141 19 152 16 11 19 22 16 65 -4 54 -62 230 -91 274 -27 42 -35
26 -9 -20 27 -49 84 -198 84 -221 0 -8 -7 -15 -15 -15 -8 0 -16 -6 -16 -12 -1
-7 -2 -17 -4 -23 -1 -5 -3 -17 -3 -24 -2 -12 -5 -12 -14 -3 -9 9 -9 18 0 37
16 36 15 45 -7 45 -24 0 -40 -20 -43 -53 -1 -16 -10 -29 -23 -33 -15 -6 -10
-8 23 -11 34 -3 42 -8 42 -24 0 -10 5 -19 11 -19 8 0 10 -24 7 -74 -2 -41 0
-70 3 -64 8 12 1 -330 -7 -399 -3 -24 -8 -43 -12 -43 -4 0 -18 46 -31 103 -28
117 -74 237 -135 352 -46 86 -174 272 -183 267 -4 -2 -13 12 -20 30 -14 32
-106 128 -124 128 -5 0 -6 7 -3 15 4 8 1 15 -5 15 -6 0 -11 5 -11 11 0 6 7 8
16 5 15 -6 15 -4 3 10 -8 10 -15 12 -17 5 -2 -6 -12 -11 -23 -11 -12 0 -16 5
-13 15 4 9 0 15 -10 15 -9 0 -16 6 -16 14 0 7 -7 19 -15 26 -8 7 -12 16 -9 21
3 5 1 9 -4 9 -21 0 -83 73 -79 92 3 10 1 16 -3 13 -5 -3 -14 4 -20 15 -6 11
-18 20 -28 20 -12 0 -14 2 -4 8 9 6 3 18 -23 45 -19 20 -35 41 -35 46 0 6 -11
13 -25 17 -14 3 -25 12 -25 20 0 7 -6 17 -12 21 -7 4 -21 22 -30 38 -10 17
-23 29 -29 27 -6 -2 -9 3 -6 11 7 19 -78 107 -103 107 -11 0 -20 4 -20 9 0 9
-33 25 -55 26 -5 1 -20 7 -33 13 -12 7 -28 10 -34 6 -6 -4 -8 -3 -5 3 6 10
-44 53 -62 53 -5 0 -11 -35 -13 -77z m923 -1300 c16 -43 75 -259 93 -343 22
-101 39 -363 27 -422 -4 -26 -6 -50 -2 -54 3 -4 0 -4 -6 0 -7 4 -13 18 -13 32
0 26 -13 31 -34 12 -10 -10 -11 -15 -1 -23 9 -8 4 -22 -22 -59 -18 -26 -33
-42 -33 -34 0 8 9 25 20 38 14 17 17 26 9 31 -7 4 -9 19 -7 33 3 15 1 29 -4
32 -4 3 -6 9 -3 14 3 5 1 11 -5 15 -6 4 -10 70 -10 170 0 121 -3 165 -12 169
-10 5 -10 7 0 12 14 6 16 40 4 48 -5 3 -9 20 -9 38 l-1 33 13 -35 c12 -31 14
-32 14 -10 1 14 -6 38 -14 54 -8 15 -15 35 -15 42 0 8 -4 14 -10 14 -5 0 -9
45 -7 110 1 111 9 133 28 83z m-38 -278 c-3 -9 -8 -14 -10 -11 -3 3 -2 9 2 15
9 16 15 13 8 -4z m729 -66 c40 -41 67 -76 64 -84 -3 -8 0 -16 7 -19 9 -3 9 -6
0 -13 -14 -10 -23 -43 -27 -103 -4 -45 -12 -114 -22 -179 -3 -19 -9 -30 -13
-23 -4 7 -19 8 -41 4 -19 -4 -45 -6 -56 -4 -23 3 -39 38 -23 48 10 6 12 45 3
68 -5 13 -14 15 -42 10 l-35 -7 7 44 c8 51 62 266 76 304 5 14 15 25 21 25 6
0 43 -32 81 -71z m-702 -59 c8 -5 12 -11 10 -14 -3 -2 -14 2 -24 10 -22 15
-10 19 14 4z m890 -89 c8 -2 56 -6 105 -9 l91 -4 -7 -65 c-8 -81 -19 -93 -19
-21 l0 55 -46 13 c-40 11 -51 11 -73 -1 -46 -26 -47 -92 -1 -136 27 -25 27
-28 13 -50 -13 -20 -13 -23 -1 -18 20 8 39 -17 28 -35 -7 -10 -10 -11 -10 -2
0 6 -9 12 -21 12 -13 0 -23 8 -26 21 -4 12 -11 18 -20 15 -8 -4 -11 -1 -8 5 4
6 13 8 21 5 19 -7 18 8 -4 43 -14 23 -21 27 -34 20 -11 -6 -15 -16 -11 -26 4
-11 3 -14 -5 -9 -7 4 -17 -3 -24 -18 -14 -33 -27 -33 -20 -1 2 15 0 25 -7 25
-6 0 -11 -11 -11 -25 0 -16 -6 -25 -16 -25 -12 0 -14 8 -9 44 5 28 3 46 -4 50
-6 4 -11 12 -11 17 0 6 4 8 9 5 4 -3 6 6 3 19 -2 15 0 25 7 25 6 0 11 17 11
41 0 22 5 49 10 60 11 19 12 19 43 -3 18 -13 39 -25 47 -27z m-533 -233 c-2
-13 -4 -5 -4 17 -1 22 1 32 4 23 2 -10 2 -28 0 -40z m176 -11 c-4 -7 -10 -2
-13 13 -9 33 1 50 12 21 4 -13 5 -28 1 -34z m357 43 c0 -5 -5 -10 -11 -10 -5
0 -7 5 -4 10 3 6 8 10 11 10 2 0 4 -4 4 -10z m156 -51 c3 -6 2 -15 -4 -21 -6
-6 -11 -2 -15 11 -5 22 7 29 19 10z m-246 -9 c0 -5 -7 -10 -15 -10 -8 0 -15 5
-15 10 0 6 7 10 15 10 8 0 15 -4 15 -10z m-522 -85 c18 -39 14 -54 -5 -20 -9
17 -21 33 -27 37 -7 5 -5 8 5 8 9 0 21 -11 27 -25z m82 4 c0 -6 -4 -7 -10 -4
-5 3 -10 11 -10 16 0 6 5 7 10 4 6 -3 10 -11 10 -16z m-245 1 c3 -5 1 -10 -4
-10 -6 0 -11 5 -11 10 0 6 2 10 4 10 3 0 8 -4 11 -10z m465 -35 c0 -8 -4 -15
-9 -15 -5 0 -14 7 -21 15 -10 13 -9 15 9 15 12 0 21 -6 21 -15z m-506 -38 c-1
-17 -2 -47 -3 -65 -2 -59 -21 -24 -21 39 0 40 4 59 13 59 7 0 11 -12 11 -33z
m715 15 c0 -10 -3 -12 -5 -5 -3 7 -12 9 -20 6 -8 -3 -14 -1 -14 4 0 5 9 9 20
10 13 1 20 -4 19 -15z m36 -32 c-4 -27 -5 -50 -2 -50 17 0 37 14 37 26 0 8 5
14 10 14 6 0 10 -7 10 -15 0 -21 13 -19 28 5 11 18 10 20 -13 20 -18 0 -25 5
-25 19 0 14 6 17 28 13 15 -3 30 -9 34 -15 10 -15 -25 -76 -44 -77 -19 0 -61
-55 -56 -72 2 -6 11 3 20 21 14 29 16 30 21 12 3 -12 1 -19 -4 -15 -5 3 -9 3
-9 0 0 -2 -3 -12 -7 -22 -4 -12 -3 -15 5 -10 8 4 10 2 6 -8 -3 -9 -12 -12 -22
-8 -14 4 -15 3 -6 -9 6 -8 8 -24 3 -39 l-7 -25 -1 25 -1 25 -13 -24 c-6 -13
-16 -22 -22 -20 -5 2 -9 6 -9 9 1 3 5 22 8 44 6 32 5 38 -8 33 -16 -6 -15 17
5 118 14 69 17 75 30 75 7 0 9 -16 4 -50z m-60 -89 c-8 -45 -19 -89 -24 -98
-13 -24 -24 3 -11 28 8 14 8 25 2 31 -6 6 -5 23 2 46 13 42 36 86 41 80 2 -2
-2 -41 -10 -87z m195 44 c-31 -32 -38 -25 -8 8 13 14 25 24 27 21 2 -2 -6 -15
-19 -29z m-422 -7 c-6 -18 -28 -21 -28 -4 0 9 7 16 16 16 9 0 14 -5 12 -12z
m-566 -73 c3 -14 2 -27 -1 -30 -4 -2 -8 10 -9 26 -3 36 4 38 10 4z m-355 -61
c-3 -3 -12 -4 -19 -1 -8 3 -5 6 6 6 11 1 17 -2 13 -5z m279 -44 c8 0 14 -7 14
-15 0 -19 -58 -10 -80 13 -13 13 -11 14 19 8 18 -3 40 -6 47 -6z m22 -135 c3
-3 -11 -5 -32 -5 -22 0 -35 4 -31 10 6 10 52 6 63 -5z m62 -11 c0 -2 -9 -4
-20 -4 -11 0 -20 4 -20 9 0 5 9 7 20 4 11 -3 20 -7 20 -9z m193 -26 c-16 -8
-36 -8 -65 -1 l-43 11 65 0 c53 1 61 -1 43 -10z m72 3 c-3 -5 2 -12 10 -14 12
-4 12 -5 -1 -3 -19 1 -32 26 -14 26 6 0 9 -4 5 -9z m329 -67 c4 -11 1 -14 -11
-12 -9 2 -18 9 -21 16 -6 18 25 15 32 -4z m-818 -54 c8 0 14 7 14 15 0 8 5 15
11 15 6 0 9 -7 6 -15 -4 -8 -2 -17 4 -20 5 -4 12 1 15 9 3 9 10 14 15 11 4 -3
5 -13 2 -21 -5 -13 -15 -15 -50 -10 -58 8 -67 14 -51 33 12 15 13 15 16 0 2
-10 10 -17 18 -17z m1151 24 c-3 -3 -12 -4 -19 -1 -8 3 -5 6 6 6 11 1 17 -2
13 -5z m-1212 -25 c0 -7 -8 -15 -17 -17 -12 -2 -15 2 -11 18 6 23 28 22 28 -1z
m161 -47 c-12 -11 -18 7 -10 30 l8 23 4 -23 c2 -13 1 -26 -2 -30z m40 1 c-10
-10 -19 5 -10 18 6 11 8 11 12 0 2 -7 1 -15 -2 -18z m44 -3 c0 -5 -4 -10 -10
-10 -5 0 -10 5 -10 10 0 6 5 10 10 10 6 0 10 -4 10 -10z m1075 -50 c3 -5 1
-10 -4 -10 -6 0 -11 5 -11 10 0 6 2 10 4 10 3 0 8 -4 11 -10z m250 -44 c36 -1
40 -4 46 -34 4 -18 8 -34 10 -36 2 -1 19 -13 37 -25 21 -14 32 -30 31 -44 -1
-16 -2 -18 -6 -5 -2 9 -13 20 -23 23 -10 3 -32 22 -49 40 -39 44 -111 71 -141
53 -11 -7 -20 -16 -20 -21 0 -4 -5 -5 -12 -1 -7 4 -8 3 -4 -5 6 -9 11 -9 23 1
14 11 15 10 9 -10 -6 -17 -4 -21 8 -16 8 3 24 -4 35 -15 12 -12 21 -19 21 -16
0 3 9 1 19 -5 26 -13 17 -53 -10 -45 -14 5 -19 1 -19 -14 0 -12 -5 -21 -11
-21 -7 0 -9 9 -5 23 4 16 -1 26 -14 35 -24 15 -35 15 -36 2 -1 -5 -2 -14 -3
-20 0 -5 -6 -10 -12 -10 -5 0 -7 5 -4 11 4 6 4 26 1 45 -6 31 -10 34 -41 34
-32 0 -35 -3 -35 -29 0 -16 -2 -36 -5 -43 -4 -9 2 -14 17 -15 23 -2 81 -53 60
-53 -6 0 -12 4 -12 10 0 5 -7 7 -15 4 -10 -4 -14 -1 -12 7 2 8 2 11 0 7 -3 -5
-14 -8 -26 -9 -21 0 -21 -1 -3 -8 12 -5 16 -10 9 -14 -14 -9 -42 1 -67 22 -18
15 -18 15 -12 -9 6 -25 6 -25 -5 -2 -7 12 -16 22 -21 22 -4 0 -8 5 -8 11 0 7
14 10 35 7 37 -4 37 -4 50 60 6 29 5 32 -19 32 -14 0 -30 -8 -35 -17 -8 -14
-10 -15 -11 -3 0 8 9 29 19 46 18 29 23 31 73 31 31 0 65 7 83 17 18 9 38 14
50 10 11 -4 38 -7 60 -8z m-1352 -91 c43 -7 59 -33 54 -91 -2 -32 -17 -50 -17
-20 0 27 -22 29 -41 5 l-19 -24 0 22 c0 18 -5 22 -22 20 -13 -1 -28 -11 -35
-22 -10 -16 -12 -16 -13 -4 0 9 3 19 7 23 5 4 9 29 9 54 2 58 1 54 22 49 9 -3
34 -8 55 -12z m245 -41 c9 -2 11 -12 7 -26 -4 -13 -9 -31 -11 -40 -3 -10 -1
-18 5 -18 6 0 11 7 11 15 0 10 10 15 30 15 29 0 30 -1 30 -48 l0 -48 -40 4
c-31 3 -40 8 -39 21 3 29 -1 34 -15 22 -11 -9 -20 -7 -41 11 -23 20 -25 28
-19 65 6 41 7 42 38 37 17 -3 37 -8 44 -10z m102 -14 c90 -14 160 -32 160 -42
0 -4 -19 -5 -42 -2 -24 4 -78 8 -120 11 -68 4 -78 8 -78 24 0 22 -4 22 80 9z
m48 -73 c3 -12 -4 -17 -22 -17 -28 0 -33 9 -14 28 15 15 32 10 36 -11z m1471
-21 c15 -18 41 -21 41 -6 0 6 5 10 11 10 7 0 9 -15 6 -43 -6 -48 -26 -97 -39
-97 -5 0 -4 9 2 20 6 12 7 20 1 20 -5 0 -12 -6 -14 -12 -4 -10 -8 -9 -16 2 -9
13 -11 12 -12 -5 0 -11 -3 -14 -6 -7 -7 17 -29 15 -48 -5 -16 -16 -17 -12 -12
58 8 103 12 112 46 94 15 -7 33 -21 40 -29z m-789 -26 c0 -22 6 -29 25 -32 21
-4 25 -1 25 18 0 17 7 25 25 30 14 4 29 4 32 1 3 -4 21 0 39 8 19 8 34 11 34
7 0 -4 14 -13 30 -19 17 -6 30 -18 30 -26 0 -15 34 -30 44 -19 3 3 6 14 6 24
0 14 6 18 23 16 16 -2 23 3 25 20 2 12 10 22 19 22 13 0 15 -10 9 -67 -9 -90
-24 -145 -38 -137 -7 4 -8 26 -4 60 6 52 5 54 -18 54 -21 0 -26 -6 -32 -35 -3
-20 -4 -39 0 -42 3 -4 6 4 6 17 0 13 3 21 6 17 10 -9 -7 -68 -17 -61 -6 3 -13
-3 -16 -15 -6 -22 -23 -29 -23 -9 0 6 -3 8 -6 5 -4 -4 -2 -13 5 -21 8 -9 8
-21 2 -39 -10 -26 -26 -31 -242 -81 l-57 -13 0 35 c0 19 9 49 19 66 10 17 19
42 18 56 -1 21 -2 19 -11 -10 -15 -55 -28 -60 -27 -10 1 59 9 77 35 75 11 -1
29 2 40 6 17 7 17 8 -3 8 -17 1 -23 7 -24 24 l0 22 -9 -22 c-24 -60 -33 10
-14 106 5 22 6 23 24 6 11 -10 20 -30 20 -45z m483 35 c26 -11 1 -37 -32 -33
-14 1 -32 -1 -39 -5 -9 -6 -12 1 -12 26 0 34 1 35 33 27 17 -4 40 -11 50 -15z
m-1143 -76 c19 -6 52 -10 73 -10 33 2 37 -1 37 -24 0 -29 -7 -31 -46 -10 -16
8 -36 15 -46 15 -9 0 -18 4 -20 9 -1 5 -36 11 -76 14 -40 3 -76 8 -79 11 -11
11 121 6 157 -5z m-221 -3 c-2 -2 -26 -6 -54 -10 -34 -4 -45 -3 -35 4 14 9 99
15 89 6z m-72 -32 c-3 -3 -12 -4 -19 -1 -8 3 -5 6 6 6 11 1 17 -2 13 -5z
m1703 -44 c0 -5 -4 -10 -10 -10 -5 0 -10 5 -10 10 0 6 5 10 10 10 6 0 10 -4
10 -10z"/>
<path d="M12540 650 c0 -5 7 -10 15 -10 8 0 15 5 15 10 0 6 -7 10 -15 10 -8 0
-15 -4 -15 -10z"/>
<path d="M11921 439 c-16 -46 -14 -56 14 -61 16 -3 25 -1 25 7 0 7 10 15 21
18 15 4 20 11 15 22 -3 9 -6 23 -6 31 0 21 -18 17 -25 -6 -4 -11 -10 -18 -15
-15 -5 3 -7 12 -3 20 3 8 1 15 -5 15 -6 0 -15 -14 -21 -31z"/>
<path d="M11785 408 c-8 -28 -15 -53 -15 -55 0 -2 13 -3 29 -3 23 0 31 6 42
32 11 26 14 28 19 13 6 -17 7 -17 13 -1 4 9 11 15 15 12 5 -3 9 8 9 24 0 17
-4 30 -9 30 -4 0 -8 -9 -8 -20 0 -27 -16 -25 -25 3 -6 21 -7 21 -19 -7 -8 -18
-16 -24 -20 -17 -4 6 -5 15 -1 20 3 5 1 12 -4 16 -6 3 -17 -18 -26 -47z"/>
<path d="M10080 3820 c0 -5 5 -10 11 -10 5 0 7 5 4 10 -3 6 -8 10 -11 10 -2 0
-4 -4 -4 -10z"/>
<path d="M9901 3774 c0 -11 3 -14 6 -6 3 7 2 16 -1 19 -3 4 -6 -2 -5 -13z"/>
<path d="M9671 3754 c0 -11 3 -14 6 -6 3 7 2 16 -1 19 -3 4 -6 -2 -5 -13z"/>
<path d="M10670 3746 c0 -15 18 -31 26 -23 7 7 -7 37 -17 37 -5 0 -9 -6 -9
-14z"/>
<path d="M10726 3735 c-3 -10 1 -15 13 -15 10 0 18 7 18 15 0 8 -6 15 -13 15
-6 0 -14 -7 -18 -15z"/>
<path d="M9683 3675 c0 -33 2 -45 4 -27 2 18 2 45 0 60 -2 15 -4 0 -4 -33z"/>
<path d="M9365 3660 c-3 -5 -1 -10 4 -10 6 0 11 5 11 10 0 6 -2 10 -4 10 -3 0
-8 -4 -11 -10z"/>
<path d="M9360 3604 c0 -14 4 -23 10 -19 6 3 10 15 10 26 0 10 -4 19 -10 19
-5 0 -10 -12 -10 -26z"/>
<path d="M9371 3554 c0 -11 3 -14 6 -6 3 7 2 16 -1 19 -3 4 -6 -2 -5 -13z"/>
<path d="M10916 3525 c4 -8 8 -15 10 -15 2 0 4 7 4 15 0 8 -4 15 -10 15 -5 0
-7 -7 -4 -15z"/>
<path d="M10872 3498 c5 -15 28 -23 28 -10 0 5 -7 13 -16 16 -10 4 -14 1 -12
-6z"/>
<path d="M9381 3474 c0 -11 3 -14 6 -6 3 7 2 16 -1 19 -3 4 -6 -2 -5 -13z"/>
<path d="M9608 3478 c-4 -11 -3 -51 2 -98 1 -13 2 -13 7 0 9 22 32 42 41 36 5
-3 9 8 8 23 -1 16 -4 27 -7 25 -4 -2 -12 3 -19 11 -15 18 -26 19 -32 3z"/>
<path d="M9450 3416 c0 -14 5 -26 10 -26 6 0 10 9 10 19 0 11 -4 23 -10 26 -6
4 -10 -5 -10 -19z"/>
<path d="M10970 3381 c0 -5 5 -13 10 -16 6 -3 10 -2 10 4 0 5 -4 13 -10 16 -5
3 -10 2 -10 -4z"/>
<path d="M9491 3368 c1 -27 15 -52 23 -40 4 6 2 21 -4 32 -12 23 -20 26 -19 8z"/>
<path d="M11067 3296 c-4 -10 0 -14 14 -13 10 1 19 7 19 14 0 18 -27 16 -33
-1z"/>
<path d="M9550 3281 c0 -11 -6 -22 -12 -25 -7 -3 -2 -3 12 0 32 8 32 8 24 28
-8 22 -24 20 -24 -3z"/>
<path d="M11002 3168 c-20 -20 -15 -23 33 -24 37 -1 45 1 43 15 -4 20 -58 27
-76 9z"/>
<path d="M10971 3064 c0 -11 3 -14 6 -6 3 7 2 16 -1 19 -3 4 -6 -2 -5 -13z"/>
<path d="M9430 3054 c0 -3 8 -17 19 -30 20 -26 36 -22 21 6 -9 17 -40 35 -40
24z"/>
<path d="M9691 3014 c0 -11 3 -14 6 -6 3 7 2 16 -1 19 -3 4 -6 -2 -5 -13z"/>
<path d="M9469 2960 c-20 -22 -35 -80 -21 -80 6 0 13 6 16 13 3 6 3 1 -1 -13
-12 -44 -2 -125 27 -219 10 -35 16 -70 13 -79 -4 -9 -2 -13 4 -9 11 7 33 -34
33 -61 -1 -10 -6 -5 -15 13 -18 40 -18 25 -1 -33 8 -26 20 -75 27 -109 6 -35
15 -60 20 -57 5 3 6 -2 3 -10 -3 -9 -3 -24 1 -33 5 -10 7 -27 6 -38 -2 -17 0
-18 9 -5 9 12 10 11 5 -7 -5 -18 6 -78 50 -277 2 -11 0 -26 -6 -32 -8 -9 -3
-19 16 -36 36 -31 78 -39 139 -23 28 7 63 15 79 19 23 6 26 9 17 26 -5 10 -10
30 -10 44 0 14 -4 28 -10 31 -5 3 -10 19 -10 34 0 15 -9 37 -20 49 -19 20 -29
69 -12 58 10 -6 9 30 -1 40 -4 4 -7 16 -7 26 0 11 -4 16 -10 13 -5 -3 -7 0 -4
9 3 9 -8 28 -30 50 -20 19 -36 39 -36 45 0 7 -7 14 -15 17 -8 4 -12 10 -9 15
3 5 -4 9 -16 9 -12 0 -19 4 -16 9 3 5 -1 14 -10 21 -12 11 -12 15 -2 22 10 7
10 11 1 14 -7 3 -15 21 -19 40 -7 40 -20 52 -27 25 -8 -33 -42 -19 -45 19 -3
26 -6 30 -13 19 -8 -10 -8 -7 -4 11 4 14 13 30 21 36 8 6 14 18 14 27 0 8 6
18 13 20 10 4 10 6 0 6 -7 1 -13 8 -13 16 0 8 -4 15 -10 15 -5 0 -10 9 -10 20
0 12 -7 20 -17 21 -11 0 -13 3 -6 6 15 5 6 54 -11 65 -6 4 -12 12 -12 18 -1 5
-2 16 -3 23 -1 8 -4 7 -11 -3 -10 -15 -8 10 7 65 3 11 2 17 -2 13 -11 -11 -44
60 -38 82 6 24 3 24 -18 0z m234 -662 c9 -31 2 -33 -11 -3 -6 14 -8 25 -3 25
5 0 11 -10 14 -22z m37 -38 c0 -5 -4 -10 -10 -10 -5 0 -10 5 -10 10 0 6 5 10
10 10 6 0 10 -4 10 -10z m63 -91 c4 -16 3 -18 -9 -8 -16 13 -19 29 -5 29 5 0
11 -9 14 -21z"/>
<path d="M9550 2890 c0 -5 4 -10 9 -10 6 0 13 5 16 10 3 6 -1 10 -9 10 -9 0
-16 -4 -16 -10z"/>
<path d="M11256 2840 c26 -160 52 -290 53 -265 1 38 -25 184 -44 250 -10 32
-13 37 -9 15z"/>
<path d="M11072 2800 c0 -14 2 -19 5 -12 2 6 2 18 0 25 -3 6 -5 1 -5 -13z"/>
<path d="M9787 2550 c-6 -23 24 -132 31 -111 2 6 12 2 23 -11 l20 -23 -6 25
c-4 14 -14 30 -22 37 -8 6 -12 16 -9 21 3 5 -3 26 -13 47 -16 34 -19 36 -24
15z"/>
<path d="M9591 2514 c0 -11 3 -14 6 -6 3 7 2 16 -1 19 -3 4 -6 -2 -5 -13z"/>
<path d="M11260 2446 c0 -9 5 -16 10 -16 6 0 10 4 10 9 0 6 -4 13 -10 16 -5 3
-10 -1 -10 -9z"/>
<path d="M11314 2444 c3 -8 6 -18 6 -20 0 -3 5 -2 10 1 15 9 12 22 -6 29 -12
5 -15 2 -10 -10z"/>
<path d="M9821 2404 c0 -11 3 -14 6 -6 3 7 2 16 -1 19 -3 4 -6 -2 -5 -13z"/>
<path d="M9761 2383 c-1 -17 16 -25 25 -12 4 7 3 9 -4 5 -5 -3 -13 0 -15 6 -4
9 -6 10 -6 1z"/>
<path d="M11368 2372 c-5 -16 0 -19 34 -19 30 0 38 4 36 16 -5 25 -64 27 -70
3z"/>
<path d="M9835 2360 c3 -5 8 -10 11 -10 2 0 4 5 4 10 0 6 -5 10 -11 10 -5 0
-7 -4 -4 -10z"/>
<path d="M9865 2360 c3 -5 8 -10 11 -10 2 0 4 5 4 10 0 6 -5 10 -11 10 -5 0
-7 -4 -4 -10z"/>
<path d="M9750 2330 c0 -5 5 -10 11 -10 5 0 7 5 4 10 -3 6 -8 10 -11 10 -2 0
-4 -4 -4 -10z"/>
<path d="M11272 2265 c-1 -84 11 -211 21 -221 14 -15 17 4 8 57 -22 125 -23
152 -9 143 10 -6 11 -5 1 7 -6 8 -13 30 -16 49 -2 19 -4 4 -5 -35z"/>
<path d="M11331 2294 c0 -11 3 -14 6 -6 3 7 2 16 -1 19 -3 4 -6 -2 -5 -13z"/>
<path d="M11341 2244 c0 -11 3 -14 6 -6 3 7 2 16 -1 19 -3 4 -6 -2 -5 -13z"/>
<path d="M10731 2234 c0 -11 3 -14 6 -6 3 7 2 16 -1 19 -3 4 -6 -2 -5 -13z"/>
<path d="M12094 2176 c-16 -12 -19 -27 -19 -83 0 -64 -1 -68 -25 -74 -21 -6
-19 -7 12 -8 l38 -1 -5 -42 c-25 -212 -35 -298 -35 -309 0 -15 13 -3 16 14 1
7 7 58 14 115 7 56 16 102 21 102 5 0 9 15 9 33 0 47 10 77 26 77 38 0 48 120
13 164 -23 30 -37 32 -65 12z m47 -89 c-8 -8 -11 -7 -11 4 0 20 13 34 18 19 3
-7 -1 -17 -7 -23z"/>
<path d="M10595 2129 c-4 -6 -5 -12 -2 -15 2 -3 7 2 10 11 7 17 1 20 -8 4z"/>
<path d="M10710 2133 c0 -7 -8 -13 -18 -13 -33 0 -51 -32 -54 -95 -3 -58 -2
-60 24 -63 30 -4 52 25 41 54 -4 10 -2 15 3 11 6 -3 8 9 6 31 -2 28 -1 33 7
22 9 -12 11 -10 11 10 0 14 -5 32 -10 40 -6 10 -10 11 -10 3z"/>
<path d="M10032 2075 c0 -16 2 -22 5 -12 2 9 2 23 0 30 -3 6 -5 -1 -5 -18z"/>
<path d="M10532 1995 c-17 -37 -14 -45 4 -12 9 16 14 31 11 33 -2 2 -9 -7 -15
-21z"/>
<path d="M10506 1935 c-9 -26 -7 -32 5 -12 6 10 9 21 6 23 -2 3 -7 -2 -11 -11z"/>
<path d="M10671 1904 c0 -11 3 -14 6 -6 3 7 2 16 -1 19 -3 4 -6 -2 -5 -13z"/>
<path d="M9957 1803 c-2 -5 0 -21 4 -38 l7 -30 1 28 c1 21 6 27 24 27 18 0 19
2 7 10 -18 12 -37 13 -43 3z"/>
<path d="M10718 1793 c7 -3 16 -2 19 1 4 3 -2 6 -13 5 -11 0 -14 -3 -6 -6z"/>
<path d="M10556 1740 c-29 -44 -35 -70 -13 -51 8 6 17 7 22 3 4 -4 6 0 3 8 -3
9 5 20 21 27 22 11 22 12 4 7 -36 -8 -27 4 10 15 29 8 30 9 7 11 l-25 2 25 8
25 8 -26 1 c-20 1 -33 -8 -53 -39z"/>
<path d="M12210 1745 c0 -19 5 -25 23 -25 16 0 19 3 8 9 -8 5 -11 16 -8 25 4
10 1 16 -8 16 -9 0 -15 -10 -15 -25z"/>
<path d="M12207 1703 c-4 -3 -7 -19 -7 -34 0 -21 4 -26 18 -23 15 5 17 -2 12
-76 -4 -68 -2 -84 13 -103 l19 -22 -6 38 c-3 21 -1 75 4 120 9 72 8 84 -7 95
-19 13 -36 16 -46 5z"/>
<path d="M11990 1680 c8 -5 26 -9 40 -9 23 0 23 1 5 9 -11 5 -29 9 -40 9 -17
1 -17 -1 -5 -9z"/>
<path d="M12154 1596 c-6 -27 17 -76 36 -76 15 0 12 22 -10 64 l-19 38 -7 -26z"/>
<path d="M10332 1523 c-6 -16 -13 -41 -16 -58 l-6 -30 17 30 c15 27 28 85 19
85 -2 0 -8 -12 -14 -27z"/>
<path d="M10061 1522 c-18 -15 -19 -20 -6 -49 9 -22 22 -33 45 -38 18 -4 35
-3 40 1 14 16 20 85 7 89 -47 14 -67 14 -86 -3z"/>
<path d="M10438 1503 c7 -3 16 -2 19 1 4 3 -2 6 -13 5 -11 0 -14 -3 -6 -6z"/>
<path d="M10573 1468 c-14 -52 -11 -58 30 -58 28 0 35 6 53 45 24 49 20 55
-40 55 -29 0 -33 -4 -43 -42z m52 -8 c0 -7 -5 -15 -10 -17 -6 -2 -11 6 -11 17
0 11 5 19 11 17 5 -2 10 -10 10 -17z"/>
<path d="M10490 1479 c0 -5 5 -7 10 -4 6 3 10 8 10 11 0 2 -4 4 -10 4 -5 0
-10 -5 -10 -11z"/>
<path d="M12363 1472 c-25 -4 -26 -4 -48 -141 -9 -52 -20 -102 -25 -110 -10
-19 -25 -179 -16 -170 3 3 7 18 8 32 1 15 6 27 10 27 5 0 6 -10 4 -22 -17 -83
-17 -97 4 -118 11 -11 26 -20 33 -20 6 0 56 -7 110 -15 69 -10 104 -12 118 -5
13 7 19 7 19 0 0 -5 8 -10 18 -10 14 0 15 2 2 10 -16 10 -17 115 0 135 13 16
56 309 51 350 -4 31 -12 35 -107 45 -130 15 -156 16 -181 12z m42 -72 c3 -5 2
-10 -4 -10 -5 0 -12 -30 -16 -67 -7 -74 -22 -123 -37 -123 -13 0 -1 133 17
191 7 20 30 26 40 9z m190 -47 c15 -5 16 -15 11 -61 -9 -79 -27 -143 -37 -136
-5 3 -7 21 -5 39 3 19 0 37 -5 40 -5 4 -9 19 -9 34 0 21 -6 30 -22 35 -38 10
-45 7 -51 -21 -4 -16 -17 -41 -30 -58 l-25 -30 3 28 c2 18 -1 27 -8 24 -7 -2
-12 -11 -12 -20 0 -8 -4 -19 -8 -23 -10 -10 -9 40 1 52 14 16 33 66 22 59 -6
-4 -10 7 -10 26 l0 32 84 -7 c46 -3 92 -9 101 -13z m-240 -223 c3 -5 1 -10 -4
-10 -6 0 -11 5 -11 10 0 6 2 10 4 10 3 0 8 -4 11 -10z m189 -16 c20 -8 11 -24
-15 -24 -19 0 -25 11 -12 23 8 8 8 8 27 1z m-202 -66 c-7 -7 -12 -8 -12 -2 0
14 12 26 19 19 2 -3 -1 -11 -7 -17z m-8 -29 c-6 -11 -24 -2 -24 11 0 5 7 7 15
4 8 -4 12 -10 9 -15z m216 -71 c0 -6 -7 -7 -16 -4 -9 3 -28 7 -42 7 -27 1 -27
1 3 8 34 8 55 4 55 -11z"/>
<path d="M12686 1394 c-3 -8 -10 -12 -16 -9 -5 3 -10 -1 -10 -9 0 -9 5 -16 10
-16 6 0 10 -6 10 -14 0 -8 6 -16 14 -19 10 -4 15 4 19 26 7 49 -12 79 -27 41z"/>
<path d="M10088 1383 c-10 -3 -18 -8 -18 -13 0 -11 23 -18 82 -25 41 -5 49 -4
35 5 -32 20 -82 37 -99 33z"/>
<path d="M11893 1330 c0 -25 2 -35 4 -22 2 12 2 32 0 45 -2 12 -4 2 -4 -23z"/>
<path d="M12245 1330 c3 -5 8 -10 11 -10 2 0 4 5 4 10 0 6 -5 10 -11 10 -5 0
-7 -4 -4 -10z"/>
<path d="M10160 1319 c0 -5 5 -7 10 -4 6 3 10 8 10 11 0 2 -4 4 -10 4 -5 0
-10 -5 -10 -11z"/>
<path d="M12227 1185 c-4 -8 -2 -17 3 -20 6 -4 10 3 10 14 0 25 -6 27 -13 6z"/>
<path d="M10320 1154 c0 -55 43 -344 52 -344 11 0 10 15 -16 198 -23 155 -36
210 -36 146z"/>
<path d="M11693 1013 c9 -2 23 -2 30 0 6 3 -1 5 -18 5 -16 0 -22 -2 -12 -5z"/>
<path d="M11530 989 c0 -5 9 -9 20 -9 11 0 20 2 20 4 0 2 -9 6 -20 9 -11 3
-20 1 -20 -4z"/>
<path d="M13184 791 c2 -32 14 -53 27 -46 15 10 10 40 -10 57 -17 15 -18 14
-17 -11z"/>
<path d="M10381 739 c-1 -71 33 -292 50 -318 13 -22 3 80 -26 249 -22 130 -23
132 -24 69z"/>
<path d="M10466 649 c-30 -35 -29 -29 -15 -122 13 -87 23 -101 50 -68 15 19
22 22 28 12 6 -9 10 -7 14 8 6 23 0 25 -36 12 -21 -8 -26 -6 -31 12 -9 35 -7
87 4 87 6 0 10 7 10 15 0 8 7 15 15 15 19 0 19 27 1 46 -12 12 -18 10 -40 -17z"/>
<path d="M10700 636 c0 -9 5 -16 10 -16 6 0 10 4 10 9 0 6 -4 13 -10 16 -5 3
-10 -1 -10 -9z"/>
<path d="M10507 573 c-12 -11 -7 -33 7 -33 12 0 26 20 26 36 0 7 -26 5 -33 -3z"/>
<path d="M10536 534 c-11 -8 -16 -14 -10 -14 13 0 39 18 34 24 -3 2 -14 -2
-24 -10z"/>
</g>
</svg>
