<?xml version="1.0" standalone="no"?>
<!DOCTYPE svg PUBLIC "-//W3C//DTD SVG 20010904//EN"
 "http://www.w3.org/TR/2001/REC-SVG-20010904/DTD/svg10.dtd">
<svg version="1.0" xmlns="http://www.w3.org/2000/svg"
 width="1346.000000pt" height="579.000000pt" viewBox="0 0 1346.000000 579.000000"
 preserveAspectRatio="xMidYMid meet">

<g transform="translate(0.000000,579.000000) scale(0.100000,-0.100000)"
fill="#000000" stroke="none">
<path d="M3363 5783 c1852 -2 4882 -2 6735 0 1852 1 336 2 -3368 2 -3704 0
-5220 -1 -3367 -2z"/>
<path d="M10762 5688 c-15 -15 -17 -281 -2 -309 10 -18 24 -19 281 -19 221 0
273 3 285 14 11 11 14 47 14 156 0 109 -3 145 -14 156 -19 19 -545 21 -564 2z
m138 -153 c0 -38 3 -45 19 -45 14 0 21 8 23 28 4 32 44 44 64 18 10 -14 13
-15 24 -1 7 8 25 15 40 15 26 0 28 -3 27 -37 -3 -50 -13 -63 -45 -62 -24 2
-24 2 -4 6 28 5 29 23 2 23 -11 0 -23 7 -27 16 -5 14 -7 14 -15 1 -6 -11 -26
-15 -73 -16 l-65 0 0 43 c0 23 3 46 7 49 16 16 23 4 23 -38z m227 39 c-3 -3
-12 -4 -19 -1 -8 3 -5 6 6 6 11 1 17 -2 13 -5z m3 -59 c0 -19 -4 -35 -10 -35
-5 0 -10 16 -10 35 0 19 5 35 10 35 6 0 10 -16 10 -35z m82 0 c3 -24 0 -35 -9
-35 -8 0 -13 12 -13 31 0 17 -4 28 -10 24 -5 -3 -10 -17 -10 -31 0 -13 -4 -24
-10 -24 -5 0 -10 16 -10 35 0 32 3 35 29 35 25 0 29 -4 33 -35z"/>
<path d="M10964 5525 c-3 -8 -3 -19 1 -25 11 -18 25 -11 25 15 0 27 -17 34
-26 10z"/>
<path d="M11046 5524 c-4 -10 -2 -22 4 -28 12 -12 17 -7 22 18 4 24 -17 32
-26 10z"/>
<path d="M11497 5682 c-14 -15 -17 -42 -17 -153 1 -96 4 -139 14 -151 12 -17
41 -18 358 -18 321 0 346 1 361 18 14 15 17 42 17 154 0 118 -2 137 -18 151
-17 15 -56 17 -359 17 -317 0 -341 -1 -356 -18z m181 -117 c1 -13 -3 -27 -9
-30 -6 -5 -5 -15 6 -31 13 -21 13 -24 1 -24 -8 0 -21 9 -30 21 l-14 21 -4 -21
c-6 -39 -23 -17 -23 29 0 44 1 45 35 51 19 3 35 7 35 8 0 0 2 -10 3 -24z m187
7 c-3 -3 -11 0 -18 7 -9 10 -8 11 6 5 10 -3 15 -9 12 -12z m109 -13 c-3 -5 0
-9 7 -9 10 0 10 -3 1 -12 -14 -14 -16 -48 -3 -48 5 0 11 12 13 28 3 30 38 42
64 22 10 -9 14 -9 14 -1 0 6 12 11 28 11 21 0 24 -2 12 -10 -15 -9 -16 -13
-19 -46 0 -9 -7 -14 -13 -11 -7 2 -25 0 -40 -4 -15 -4 -30 -4 -33 0 -2 5 -16
6 -30 3 -24 -4 -26 -2 -29 37 -1 8 -12 16 -26 18 l-24 4 22 -21 c29 -28 20
-40 -29 -38 -37 1 -39 3 -39 35 0 18 5 33 10 33 6 0 10 -11 10 -24 0 -15 7
-26 20 -29 24 -6 26 2 3 18 -22 16 -8 35 28 35 16 0 28 3 28 8 -3 16 2 21 16
16 8 -4 12 -10 9 -15z m-227 -25 c5 -15 7 -15 15 0 5 9 22 16 39 16 30 0 30
-1 27 -47 -3 -46 -4 -48 -37 -51 -21 -2 -31 0 -27 7 4 6 13 8 20 5 8 -3 17 -1
20 4 3 5 -6 12 -19 15 -14 2 -28 1 -30 -3 -8 -12 -57 4 -69 22 -7 12 -6 21 3
32 17 21 50 21 58 0z"/>
<path d="M11630 5550 c0 -11 5 -20 10 -20 6 0 10 9 10 20 0 11 -4 20 -10 20
-5 0 -10 -9 -10 -20z"/>
<path d="M12015 5530 c-3 -5 1 -10 10 -10 9 0 13 5 10 10 -3 6 -8 10 -10 10
-2 0 -7 -4 -10 -10z"/>
<path d="M12037 5512 c-15 -2 -25 -8 -22 -13 8 -12 42 -11 50 2 9 14 5 15 -28
11z"/>
<path d="M11710 5530 c0 -5 5 -10 10 -10 6 0 10 5 10 10 0 6 -4 10 -10 10 -5
0 -10 -4 -10 -10z"/>
<path d="M11784 5526 c-4 -10 -2 -22 4 -28 8 -8 13 -7 18 6 4 10 2 22 -4 28
-8 8 -13 7 -18 -6z"/>
<path d="M11715 5500 c3 -5 15 -10 26 -10 10 0 19 5 19 10 0 6 -12 10 -26 10
-14 0 -23 -4 -19 -10z"/>
<path d="M1423 5530 c0 -41 2 -58 4 -37 2 20 2 54 0 75 -2 20 -4 3 -4 -38z"/>
<path d="M1243 5583 c-23 -9 -14 -41 17 -63 36 -26 34 -43 -6 -51 -29 -7 -29
-7 -3 -8 54 -2 63 48 14 71 -32 14 -29 40 5 49 19 5 20 7 5 7 -11 0 -26 -2
-32 -5z"/>
<path d="M1743 5583 c-23 -9 -14 -41 17 -63 36 -26 34 -43 -6 -51 -29 -7 -29
-7 -3 -8 54 -2 63 48 14 71 -32 14 -29 40 5 49 19 5 20 7 5 7 -11 0 -26 -2
-32 -5z"/>
<path d="M1831 5568 c-1 -10 -7 -18 -13 -18 -9 0 -10 -3 -2 -8 6 -4 14 -14 17
-22 4 -12 6 -11 6 3 1 9 7 17 14 17 8 0 9 3 1 8 -6 4 -14 14 -17 22 -4 12 -6
11 -6 -2z"/>
<path d="M3658 5573 c7 -3 16 -2 19 1 4 3 -2 6 -13 5 -11 0 -14 -3 -6 -6z"/>
<path d="M2573 5525 c0 -27 2 -38 4 -23 3 22 10 28 36 31 l32 4 -32 1 c-21 1
-33 8 -36 20 -3 9 -5 -5 -4 -33z"/>
<path d="M3445 5550 c-3 -5 1 -10 10 -10 9 0 13 5 10 10 -3 6 -8 10 -10 10 -2
0 -7 -4 -10 -10z"/>
<path d="M4013 5543 c16 -16 18 -16 34 0 16 16 15 17 -17 17 -32 0 -33 -1 -17
-17z"/>
<path d="M1345 5543 c30 -7 43 -23 18 -23 -25 0 -47 -25 -39 -45 3 -8 13 -14
23 -14 17 1 17 2 0 6 -25 7 -17 37 12 41 19 3 22 0 17 -16 -4 -11 -2 -23 4
-27 6 -4 10 6 10 24 0 46 -10 61 -39 60 -20 -1 -22 -2 -6 -6z"/>
<path d="M1455 5535 c14 -63 18 -75 26 -75 12 0 10 9 -12 55 -10 22 -17 31
-14 20z"/>
<path d="M1500 5535 c0 -8 4 -15 9 -15 5 0 11 -13 15 -30 7 -38 22 -39 29 -2
3 15 8 36 12 47 3 11 -3 2 -13 -20 l-19 -40 -7 38 c-7 36 -26 52 -26 22z"/>
<path d="M1596 5542 c-3 -5 6 -7 19 -4 15 2 25 0 25 -7 0 -6 -6 -11 -13 -11
-24 0 -48 -25 -41 -43 4 -12 16 -16 36 -15 27 2 29 4 26 43 -2 32 -7 41 -25
43 -11 2 -24 -1 -27 -6z m44 -47 c0 -16 -27 -32 -37 -22 -3 4 -3 13 0 22 8 20
37 20 37 0z"/>
<path d="M1890 5536 c-28 -35 11 -93 48 -70 35 22 22 84 -18 84 -10 0 -23 -7
-30 -14z m56 -22 c8 -30 -6 -47 -32 -42 -35 6 -30 68 5 68 14 0 23 -9 27 -26z"/>
<path d="M1992 5500 c1 -40 2 -41 5 -10 2 19 11 40 20 47 13 10 13 12 -6 10
-18 -1 -21 -7 -19 -47z"/>
<path d="M2064 5542 c-17 -11 -22 -35 -13 -59 6 -17 16 -23 36 -22 27 1 27 1
4 8 -37 10 -38 31 -2 31 32 0 41 16 19 38 -14 14 -28 15 -44 4z m44 -19 c2 -8
-6 -13 -22 -13 -25 0 -33 10 -19 24 10 10 36 3 41 -11z"/>
<path d="M2674 5536 c-14 -37 22 -74 47 -49 6 6 1 9 -13 9 -14 -1 -24 6 -26
17 -4 22 27 35 40 16 8 -12 9 -11 5 1 -5 20 -46 25 -53 6z"/>
<path d="M2763 5515 c0 -22 2 -30 4 -17 2 12 2 30 0 40 -3 9 -5 -1 -4 -23z"/>
<path d="M2789 5542 c6 -2 12 -18 12 -35 l1 -32 7 29 c9 42 29 44 34 4 l4 -33
1 37 c2 35 1 36 -34 35 -20 -1 -32 -3 -25 -5z"/>
<path d="M2884 5536 c-11 -28 1 -51 26 -53 22 -1 22 -1 3 4 -31 6 -29 23 2 23
14 0 25 4 25 9 0 4 -11 6 -25 3 -14 -2 -25 0 -25 6 0 6 10 13 23 15 l22 4 -23
2 c-12 0 -25 -5 -28 -13z"/>
<path d="M3286 5541 c-4 -5 3 -7 14 -4 23 6 26 13 6 13 -8 0 -17 -4 -20 -9z"/>
<path d="M3806 5541 c-4 -5 3 -7 14 -4 23 6 26 13 6 13 -8 0 -17 -4 -20 -9z"/>
<path d="M3910 5546 c0 -2 7 -7 16 -10 8 -3 12 -2 9 4 -6 10 -25 14 -25 6z"/>
<path d="M3677 5512 c4 -16 -1 -21 -19 -25 l-23 -4 23 -2 c25 -1 40 25 24 41
-8 8 -9 5 -5 -10z"/>
<path d="M3123 5513 c9 -2 23 -2 30 0 6 3 -1 5 -18 5 -16 0 -22 -2 -12 -5z"/>
<path d="M1831 5483 c-1 -16 5 -23 17 -23 10 0 13 3 6 8 -6 4 -14 14 -17 22
-4 10 -6 8 -6 -7z"/>
<path d="M3288 5488 c5 -5 16 -8 23 -6 8 3 3 7 -10 11 -17 4 -21 3 -13 -5z"/>
<path d="M3808 5488 c5 -5 16 -8 23 -6 8 3 3 7 -10 11 -17 4 -21 3 -13 -5z"/>
<path d="M3378 5483 c7 -3 16 -2 19 1 4 3 -2 6 -13 5 -11 0 -14 -3 -6 -6z"/>
<path d="M0 2660 l0 -2620 6730 0 6730 0 0 2620 0 2620 -6730 0 -6730 0 0
-2620z m10241 1653 c45 -21 144 -111 133 -122 -3 -3 -14 4 -24 17 -10 12 -23
22 -29 22 -6 0 -11 4 -11 9 0 10 -62 51 -76 51 -5 0 -2 -4 6 -10 25 -16 4 -21
-24 -6 -17 9 -23 16 -14 18 7 3 -22 5 -65 4 -44 -1 -81 2 -84 7 -6 10 -33 9
-33 -3 0 -5 15 -13 33 -18 26 -8 29 -11 14 -17 -11 -5 -24 -1 -36 9 -37 33
-118 13 -160 -40 -12 -15 -21 -22 -21 -17 0 17 41 63 56 63 8 0 14 4 14 8 0
13 49 34 109 46 67 14 152 6 212 -21z m-77 -32 c4 -5 -3 -7 -14 -4 -23 6 -26
13 -6 13 8 0 17 -4 20 -9z m-123 -64 c40 -30 118 -142 107 -153 -3 -2 -19 3
-36 13 -30 17 -33 17 -89 -2 -45 -15 -58 -25 -58 -40 0 -11 6 -19 13 -17 6 1
12 -2 12 -8 0 -5 -7 -10 -15 -10 -16 0 -43 -46 -32 -56 3 -3 14 -1 25 5 11 6
22 7 26 4 7 -7 95 -5 137 3 21 4 26 10 22 25 -3 10 -12 19 -19 19 -8 0 -14 4
-14 8 0 4 -19 9 -42 11 -49 2 -59 8 -38 21 49 31 124 -10 174 -93 40 -68 43
-83 22 -112 -7 -11 -19 -45 -26 -75 -16 -70 -32 -100 -71 -139 -73 -73 -152
-110 -237 -111 -22 0 -32 -4 -30 -12 7 -19 119 -95 160 -107 20 -6 40 -15 43
-20 2 -5 -14 -35 -38 -67 -88 -121 -90 -127 -24 -61 37 37 71 67 76 67 5 0 11
10 13 23 2 15 9 21 22 19 11 -2 15 1 11 7 -3 6 1 11 9 11 18 0 32 -20 14 -21
-7 0 -5 -4 6 -8 17 -7 18 -21 16 -232 -1 -123 -3 -254 -5 -291 -3 -38 0 -68 4
-68 5 0 10 64 11 143 1 165 7 299 14 342 2 17 5 33 5 36 1 4 8 10 17 13 11 4
15 2 11 -7 -3 -8 1 -14 9 -14 19 0 18 11 -3 28 -15 13 -47 78 -41 84 2 2 38
22 82 46 89 48 82 52 122 -61 15 -41 36 -85 48 -98 11 -13 70 -48 131 -79 152
-77 194 -107 215 -157 26 -59 42 -222 60 -601 6 -121 16 -240 21 -265 12 -51
15 -381 4 -451 -6 -39 -3 -51 19 -83 13 -20 29 -60 35 -89 5 -29 19 -99 30
-157 57 -295 78 -375 109 -424 29 -45 32 -58 32 -128 0 -73 -2 -80 -31 -110
-28 -31 -30 -31 -22 -8 13 44 3 139 -22 194 l-23 51 -1 -40 c0 -22 4 -59 8
-83 5 -23 5 -57 1 -75 -8 -32 -8 -32 -9 10 -1 23 -5 53 -11 68 -11 30 -28 122
-33 180 -9 104 -29 191 -47 209 -18 19 -20 19 -26 2 -4 -10 6 -66 21 -124 37
-145 66 -311 62 -347 -3 -16 -1 -40 4 -52 5 -13 5 -23 0 -23 -5 0 -11 5 -13
11 -7 21 -66 -19 -108 -72 -22 -29 -74 -73 -117 -101 -43 -28 -109 -76 -148
-108 -91 -74 -80 -69 -191 -85 -113 -17 -203 -19 -288 -5 -34 5 -124 14 -201
20 -149 10 -254 34 -336 76 -61 30 -91 56 -134 112 -19 24 -37 44 -40 45 -4 1
-9 -21 -11 -50 -2 -28 -8 -62 -13 -75 -5 -14 -6 6 -3 57 2 44 9 82 14 84 6 2
6 6 2 10 -13 9 -44 67 -44 82 0 6 -27 37 -61 67 -33 30 -75 79 -92 109 -18 30
-39 65 -47 78 -13 21 -12 28 2 58 14 29 15 47 8 99 -5 34 -10 104 -10 153 0
50 -6 106 -13 125 -9 26 -12 124 -11 350 2 337 4 362 75 655 29 124 57 265 89
448 16 92 35 191 43 220 8 28 18 69 22 91 7 44 39 78 105 110 46 24 82 34 210
61 41 9 83 22 92 29 10 7 32 44 49 82 17 38 37 76 45 85 12 13 11 20 -6 50
-65 110 -90 193 -90 288 1 49 17 81 43 81 27 0 47 12 47 27 0 11 7 14 21 10
19 -5 20 -4 4 19 -9 14 -13 29 -10 35 10 16 -15 39 -41 39 -21 0 -24 3 -18 28
4 15 13 39 21 55 18 36 122 117 150 117 12 0 41 -15 64 -33z m-7871 -267 l0
-270 -65 0 -65 0 0 265 0 264 63 4 c34 2 63 4 65 5 1 1 2 -119 2 -268z m-616
230 c24 -9 26 -15 26 -65 0 -60 -9 -67 -48 -39 -36 25 -117 24 -142 -2 -31
-31 -17 -50 69 -94 42 -21 90 -52 106 -70 26 -27 30 -38 30 -90 0 -66 -21
-104 -71 -130 -37 -19 -187 -25 -242 -11 l-42 12 0 59 c0 33 4 60 9 60 6 0 25
-9 43 -19 76 -45 163 -33 163 24 0 26 -7 32 -75 66 -102 50 -132 84 -137 151
-8 106 59 157 204 158 45 0 93 -4 107 -10z m2145 4 c31 -6 31 -7 31 -66 0 -53
-2 -59 -17 -53 -97 39 -153 40 -177 2 -17 -27 3 -48 84 -90 108 -54 123 -72
128 -152 4 -66 4 -66 -36 -104 -22 -21 -54 -41 -72 -45 -51 -10 -174 -7 -209
5 -30 11 -31 12 -31 76 l0 64 26 -20 c39 -31 124 -47 160 -30 61 29 35 73 -67
117 -100 43 -141 110 -119 192 11 41 59 89 102 102 30 8 157 10 197 2z m251
-89 l0 -55 41 0 40 0 -3 -42 c-3 -42 -4 -43 -41 -46 l-38 -3 3 -92 3 -92 38 2
c37 2 37 2 37 -35 0 -52 -14 -62 -83 -62 -106 0 -127 29 -127 180 l0 100 -30
0 c-29 0 -30 2 -30 45 0 43 1 45 29 45 28 0 30 3 33 42 3 39 6 42 43 54 22 6
50 12 63 13 20 1 22 -3 22 -54z m-2039 -68 c47 -32 58 -71 58 -219 l1 -128
-60 0 c-48 0 -60 3 -60 16 0 13 -5 12 -26 -5 -39 -31 -123 -29 -160 2 -22 19
-28 34 -32 80 -4 52 -2 58 25 86 31 30 86 51 138 51 17 0 36 4 43 8 19 13 4
41 -26 49 -22 5 -47 1 -135 -24 -16 -5 -18 0 -15 38 3 40 6 45 38 56 19 7 67
12 106 12 58 1 77 -3 105 -22z m1155 7 c57 -27 68 -60 72 -216 l4 -138 -61 0
c-49 0 -61 3 -61 16 0 13 -5 12 -26 -5 -20 -15 -41 -21 -81 -21 -47 0 -59 4
-84 29 -24 25 -29 37 -29 80 0 41 5 56 28 81 23 26 40 33 105 44 43 8 80 16
82 18 3 2 -2 14 -11 26 -18 26 -59 28 -119 7 -55 -20 -55 -20 -55 29 0 42 1
44 38 54 60 16 160 14 198 -4z m1294 -6 c60 -31 90 -83 90 -160 0 -68 -12
-103 -48 -142 -38 -40 -81 -56 -155 -56 -124 0 -197 69 -197 187 0 126 69 192
200 193 49 0 77 -6 110 -22z m400 -34 l0 -56 -35 6 c-29 6 -39 3 -60 -18 -24
-24 -25 -31 -25 -136 l0 -110 -65 0 -65 0 0 180 0 180 65 0 c39 0 65 -4 65
-11 0 -5 10 -3 22 5 12 9 39 16 60 16 l38 0 0 -56z m301 33 c45 -30 69 -80 69
-144 l0 -53 -115 0 c-124 0 -138 -7 -94 -49 31 -29 70 -34 120 -17 24 9 47 16
52 16 4 0 7 -20 7 -45 0 -42 -1 -44 -37 -54 -58 -16 -160 -13 -199 5 -124 59
-119 285 8 347 51 25 147 22 189 -6z m-2701 -104 l24 -117 30 117 30 117 61 0
62 0 24 -105 c13 -58 27 -105 30 -105 3 0 14 47 25 105 l18 105 58 0 c40 0 58
-4 58 -12 -1 -7 -23 -87 -49 -178 l-48 -165 -69 0 -68 0 -26 103 -25 103 -19
-71 c-10 -39 -22 -87 -28 -106 l-9 -35 -67 3 -66 3 -48 170 c-26 94 -48 173
-48 178 0 4 28 7 63 7 l63 0 24 -117z m7480 76 c0 -5 -5 -7 -10 -4 -6 4 -17 1
-25 -5 -15 -12 -22 0 -8 13 10 11 43 8 43 -4z m672 -222 c1 -33 -3 -62 -9 -68
-9 -9 -11 -2 -9 27 2 22 2 33 -1 26 -3 -6 -8 -10 -12 -8 -4 3 -3 25 3 50 13
58 25 47 28 -27z m-42 -46 c0 -22 -49 -84 -50 -63 0 6 4 12 8 12 5 0 14 16 22
35 16 40 20 43 20 16z m-69 -94 c-10 -9 -11 -8 -5 6 3 10 9 15 12 12 3 -3 0
-11 -7 -18z m89 -76 c0 -12 -29 -41 -40 -41 -5 0 1 11 13 24 26 28 27 29 27
17z m-8320 -306 c0 -128 -1 -135 -20 -135 -19 0 -20 7 -20 135 0 128 1 135 20
135 19 0 20 -7 20 -135z m510 58 l0 -77 33 32 c19 18 43 32 57 32 23 0 22 -3
-18 -43 l-42 -43 40 -39 c46 -45 49 -55 16 -55 -15 0 -36 13 -55 35 l-31 36 0
-36 c0 -28 -4 -35 -20 -35 -19 0 -20 7 -20 135 0 128 1 135 20 135 18 0 20 -7
20 -77z m440 20 c0 -44 3 -54 12 -45 7 7 27 12 44 12 48 0 64 -29 64 -112 0
-61 -2 -68 -20 -68 -17 0 -19 8 -22 66 -3 74 -21 99 -55 78 -14 -8 -19 -27
-21 -78 -3 -58 -5 -66 -22 -66 -19 0 -20 8 -20 135 0 128 1 135 20 135 18 0
20 -7 20 -57z m823 43 c7 -18 -1 -26 -25 -26 -11 0 -18 7 -18 20 0 23 35 28
43 6z m862 -6 c0 -8 -10 -16 -22 -18 -22 -3 -32 16 -16 32 12 11 38 2 38 -14z
m205 -37 c0 -44 3 -54 12 -45 17 17 74 15 92 -4 12 -11 16 -36 16 -90 0 -67
-2 -74 -20 -74 -17 0 -19 8 -22 73 -3 63 -5 72 -23 75 -37 4 -49 -14 -53 -82
-4 -56 -7 -66 -23 -66 -16 0 -18 11 -17 135 0 126 1 135 19 135 16 0 19 -8 19
-57z m430 -77 l0 -133 -67 -1 c-77 -2 -99 11 -109 63 -8 44 20 103 52 111 13
4 38 4 54 2 30 -5 30 -4 30 44 0 41 3 48 20 48 19 0 20 -7 20 -134z m600 -1
c0 -128 -1 -135 -20 -135 -19 0 -20 7 -20 135 0 128 1 135 20 135 19 0 20 -7
20 -135z m88 118 c5 -17 -26 -29 -40 -15 -6 6 -7 15 -3 22 9 14 37 9 43 -7z
m1274 -118 c3 -123 1 -135 -14 -135 -16 0 -18 13 -18 135 0 111 3 135 14 135
12 0 15 -25 18 -135z m88 115 c0 -23 -35 -28 -43 -6 -7 18 1 26 25 26 11 0 18
-7 18 -20z m-6210 -45 l0 -56 43 53 c31 38 51 54 72 56 27 4 26 2 -28 -59
l-56 -63 55 -62 c29 -34 54 -65 54 -68 0 -3 -10 -6 -23 -6 -15 0 -36 18 -67
56 l-45 57 -3 -57 c-3 -48 -6 -56 -22 -56 -19 0 -20 8 -20 130 0 123 1 130 20
130 18 0 20 -7 20 -55z m5471 28 c5 -16 24 -61 41 -101 l32 -72 41 97 c35 82
46 98 66 101 l24 3 0 -131 c0 -117 -2 -130 -17 -130 -16 0 -18 11 -18 98 l0
97 -26 -60 c-14 -33 -33 -77 -41 -97 -9 -21 -22 -38 -30 -38 -8 0 -23 21 -34
48 -11 26 -28 65 -39 87 l-19 40 0 -87 c-1 -81 -3 -88 -21 -88 -19 0 -20 7
-20 130 l0 130 25 0 c19 0 28 -7 36 -27z m-1851 -28 c0 -20 5 -25 25 -25 16 0
25 -6 25 -15 0 -9 -9 -15 -25 -15 -24 0 -25 -3 -25 -60 0 -57 1 -60 25 -60 16
0 25 -6 25 -15 0 -10 -11 -15 -35 -15 -43 0 -55 20 -55 93 0 40 -4 56 -15 61
-8 3 -15 10 -15 16 0 5 7 10 15 10 8 0 15 8 15 18 0 22 8 32 27 32 7 0 13 -11
13 -25z m-3328 -42 c10 -9 18 -30 18 -50 l0 -33 -60 0 c-44 0 -60 -4 -60 -14
0 -25 29 -39 71 -33 34 4 40 3 37 -11 -3 -18 -62 -28 -103 -18 -55 14 -60 155
-6 169 38 11 86 6 103 -10z m186 1 c15 -11 22 -25 22 -50 l0 -34 -60 0 c-44 0
-60 -4 -60 -14 0 -25 29 -39 71 -33 34 4 40 3 37 -11 -2 -13 -16 -18 -54 -20
-46 -3 -54 0 -73 24 -27 35 -28 93 0 128 24 31 81 36 117 10z m216 -6 c23 -33
20 -100 -5 -133 -19 -23 -28 -26 -65 -23 l-44 3 0 -42 c0 -36 -3 -43 -20 -43
-19 0 -20 7 -20 129 l0 129 69 1 c62 1 72 -2 85 -21z m392 1 c29 -32 26 -115
-5 -140 -30 -25 -100 -26 -128 -1 -41 35 -41 105 0 142 30 28 107 28 133 -1z
m214 -6 c29 -36 23 -108 -10 -135 -24 -20 -90 -24 -120 -8 -23 12 -44 73 -35
102 14 46 45 68 96 68 40 0 51 -4 69 -27z m470 8 c0 -16 -5 -18 -39 -14 -32 4
-41 2 -55 -18 -37 -53 -4 -106 59 -96 30 5 36 3 33 -11 -4 -21 -76 -29 -107
-12 -28 14 -46 82 -30 112 24 48 41 58 91 58 41 0 48 -3 48 -19z m360 0 c5
-11 10 -51 10 -90 0 -56 -3 -71 -15 -71 -8 0 -15 5 -15 12 0 9 -3 9 -12 0 -17
-17 -74 -15 -92 4 -40 40 2 94 72 94 25 0 29 3 25 20 -4 14 -14 20 -34 20 -15
0 -31 -4 -34 -10 -10 -17 -25 -11 -25 9 0 24 13 29 67 30 32 1 45 -4 53 -18z
m160 -1 c0 -12 -5 -17 -14 -14 -27 10 -46 -25 -46 -87 0 -52 -2 -59 -20 -59
-19 0 -20 7 -20 89 l0 89 50 0 c43 1 50 -2 50 -18z m60 8 c0 -9 3 -9 12 0 17
17 77 15 84 -3 5 -13 8 -13 21 0 8 8 30 15 48 15 49 0 65 -28 65 -112 0 -61
-2 -68 -20 -68 -18 0 -20 7 -20 59 0 74 -6 91 -35 91 -30 0 -48 -44 -43 -105
3 -38 0 -45 -14 -45 -15 0 -18 10 -18 63 0 65 -11 87 -42 87 -25 0 -38 -31
-38 -94 0 -42 -4 -56 -14 -56 -21 0 -28 30 -24 110 2 59 5 70 20 70 10 0 18
-5 18 -12z m310 -78 c0 -81 -2 -90 -19 -90 -16 0 -18 9 -18 90 1 80 3 90 19
90 16 0 18 -10 18 -90z m90 78 c0 -9 3 -9 12 0 7 7 27 12 44 12 48 0 64 -29
64 -112 0 -61 -2 -68 -20 -68 -17 0 -19 8 -22 66 -3 74 -21 99 -55 78 -14 -8
-19 -27 -21 -78 -3 -58 -5 -66 -22 -66 -18 0 -20 7 -20 90 0 83 1 90 20 90 11
0 20 -5 20 -12z m330 -72 c0 -146 -22 -180 -115 -174 -38 2 -51 7 -53 20 -3
15 3 16 45 11 53 -6 74 7 80 50 3 17 1 19 -9 9 -19 -19 -82 -15 -102 7 -28 30
-31 90 -7 128 20 32 22 33 91 31 l70 -1 0 -81z m175 27 c9 -32 18 -62 19 -68
1 -5 11 21 22 58 16 56 22 67 38 65 14 -2 24 -19 36 -63 18 -65 22 -64 40 13
9 41 16 52 32 52 12 0 18 -5 15 -12 -2 -7 -15 -48 -27 -91 -20 -66 -26 -78
-43 -75 -16 2 -25 18 -37 63 l-17 60 -19 -62 c-15 -51 -23 -63 -40 -63 -17 0
-24 14 -46 90 -24 85 -24 90 -7 90 14 0 22 -14 34 -57z m265 -33 c0 -73 -3
-90 -15 -90 -12 0 -15 17 -15 90 0 73 3 90 15 90 12 0 15 -17 15 -90z m814 68
c11 -15 16 -45 16 -89 l0 -66 -62 -1 c-70 -1 -88 9 -88 48 0 35 19 50 70 57
42 6 45 9 31 32 -9 13 -36 12 -73 -4 -12 -5 -18 -3 -18 7 0 25 23 38 66 38 33
0 47 -5 58 -22z m190 10 c-4 -7 -27 -39 -52 -71 -24 -32 -43 -60 -41 -62 2 -1
28 -5 58 -6 l53 -4 45 63 45 62 -46 0 c-34 0 -46 4 -46 15 0 12 15 15 75 15
41 0 75 -2 75 -5 0 -3 -22 -36 -50 -75 l-50 -70 50 0 c38 0 50 -4 50 -15 0
-13 -24 -15 -160 -15 -88 0 -160 3 -160 8 0 4 20 34 45 67 25 33 45 63 45 68
0 4 -18 7 -40 7 -29 0 -40 4 -40 15 0 12 15 15 76 15 57 0 73 -3 68 -12z m318
-78 c3 -80 1 -90 -14 -90 -16 0 -18 11 -18 90 0 71 3 90 14 90 11 0 15 -20 18
-90z m89 78 c0 -10 2 -10 6 0 6 14 71 16 93 2 11 -6 16 -32 18 -90 4 -76 3
-80 -17 -80 -19 0 -21 6 -21 59 0 74 -6 91 -34 91 -36 0 -46 -20 -46 -87 0
-56 -2 -63 -20 -63 -19 0 -20 7 -20 90 0 83 1 90 20 90 11 0 20 -6 21 -12z
m329 -78 c0 -96 -12 -145 -40 -160 -10 -6 -41 -10 -69 -10 -43 0 -51 3 -51 19
0 16 6 18 44 14 37 -5 46 -2 60 18 23 34 21 37 -29 31 -53 -5 -80 12 -90 59
-8 35 11 95 33 108 9 6 45 10 80 9 l62 -1 0 -87z m500 34 c0 -64 13 -94 40
-94 30 0 50 39 50 97 0 39 4 53 14 53 17 0 22 -32 18 -117 -3 -46 -8 -63 -18
-63 -8 0 -14 5 -14 12 0 9 -3 9 -12 0 -17 -17 -74 -15 -92 4 -9 8 -17 32 -17
52 -1 20 -3 54 -4 75 -2 30 1 37 16 37 16 0 19 -8 19 -56z m280 39 c0 -14 -8
-18 -37 -18 -50 0 -54 -22 -6 -41 43 -18 53 -29 53 -61 0 -29 -31 -45 -83 -41
-35 3 -43 7 -45 26 -3 21 -1 22 17 13 11 -6 31 -11 45 -11 38 0 33 28 -9 45
-50 22 -62 55 -32 93 5 6 29 12 53 12 35 0 44 -3 44 -17z m170 -73 c0 -83 -1
-90 -20 -90 -19 0 -20 7 -20 90 0 83 1 90 20 90 19 0 20 -7 20 -90z m195 81
c6 -1 28 2 51 5 54 8 62 -4 66 -99 3 -68 1 -77 -14 -77 -15 0 -18 9 -18 53 0
76 -8 97 -36 97 -31 0 -44 -27 -44 -94 0 -49 -2 -56 -20 -56 -18 0 -20 7 -20
70 0 56 -3 72 -16 77 -34 13 -49 -11 -52 -81 -3 -58 -5 -66 -22 -66 -18 0 -20
7 -20 89 l0 90 68 -4 c37 -2 72 -4 77 -4z m-6245 -476 c0 -122 -2 -135 -17
-135 -16 0 -18 14 -20 135 -2 129 -2 135 17 135 19 0 20 -7 20 -135z m420 78
c0 -44 3 -54 12 -45 7 7 29 12 50 12 48 0 58 -18 58 -109 0 -61 -2 -71 -18
-71 -14 0 -17 11 -19 65 -3 76 -6 85 -35 85 -32 0 -47 -29 -48 -92 0 -48 -3
-58 -17 -58 -16 0 -18 13 -19 135 0 124 1 135 18 135 15 0 18 -9 18 -57z m210
37 c0 -13 -7 -20 -18 -20 -24 0 -32 8 -25 26 8 22 43 17 43 -6z m860 -115 c0
-128 -1 -135 -20 -135 -19 0 -20 7 -20 135 0 128 1 135 20 135 19 0 20 -7 20
-135z m90 0 c0 -128 -1 -135 -20 -135 -19 0 -20 7 -20 135 0 128 1 135 20 135
19 0 20 -7 20 -135z m1400 121 c0 -8 -10 -16 -22 -18 -32 -4 -39 -58 -9 -58
12 0 21 -7 21 -15 0 -8 -9 -15 -20 -15 -18 0 -20 -7 -20 -75 0 -68 -2 -75 -20
-75 -18 0 -20 7 -20 75 0 60 -3 75 -15 75 -8 0 -15 7 -15 15 0 8 7 15 15 15 9
0 15 9 15 25 0 41 21 65 57 65 22 0 33 -5 33 -14z m830 -121 c0 -129 -1 -135
-21 -135 -19 0 -20 5 -18 135 2 124 3 135 20 135 18 0 19 -10 19 -135z m90
115 c0 -13 -7 -20 -20 -20 -13 0 -20 7 -20 20 0 13 7 20 20 20 13 0 20 -7 20
-20z m1010 -115 c0 -128 -1 -135 -20 -135 -11 0 -20 5 -20 12 0 9 -3 9 -12 0
-7 -7 -29 -12 -49 -12 -67 0 -96 61 -65 135 16 38 47 51 96 41 l30 -5 0 49 c0
43 3 50 20 50 19 0 20 -7 20 -135z m860 0 c0 -126 -1 -135 -19 -135 -18 0 -19
9 -18 135 1 123 2 135 19 135 16 0 18 -11 18 -135z m90 115 c0 -13 -7 -20 -20
-20 -13 0 -20 7 -20 20 0 13 7 20 20 20 13 0 20 -7 20 -20z m-2674 -85 c22
-52 42 -95 45 -95 3 0 23 43 45 95 33 80 43 95 62 95 22 0 22 -2 22 -130 0
-120 -1 -130 -18 -130 -17 0 -19 8 -17 81 0 44 -2 82 -5 84 -4 2 -22 -34 -41
-80 -18 -47 -40 -85 -47 -85 -7 0 -22 21 -33 48 -11 26 -30 70 -42 97 l-23 49
1 -97 c0 -87 -1 -97 -17 -97 -16 0 -18 12 -18 130 l0 130 24 0 c21 0 29 -12
62 -95z m1957 11 c20 -47 37 -90 37 -95 0 -20 19 -11 26 12 4 12 20 50 35 85
16 34 29 67 29 72 0 6 11 10 24 10 22 0 24 -5 28 -47 1 -27 2 -85 0 -130 -3
-72 -6 -83 -22 -83 -16 0 -17 9 -16 90 2 49 0 88 -2 85 -3 -2 -21 -41 -41 -86
-20 -45 -42 -84 -48 -87 -8 -2 -21 15 -32 40 -10 24 -30 68 -44 98 l-25 55 2
-98 c1 -86 -1 -97 -16 -97 -16 0 -18 13 -18 130 0 130 0 130 23 130 20 0 29
-13 60 -84z m-4833 29 c0 -20 5 -25 25 -25 16 0 25 -6 25 -15 0 -9 -9 -15 -25
-15 -25 0 -26 -2 -23 -57 3 -51 6 -58 26 -61 37 -6 27 -32 -13 -32 -42 0 -55
23 -55 100 0 33 -5 50 -15 54 -8 3 -15 10 -15 16 0 5 7 10 15 10 8 0 15 8 15
18 0 22 8 32 27 32 7 0 13 -11 13 -25z m1460 1 c0 -22 5 -25 47 -28 l46 -3 23
-65 22 -65 12 30 c7 17 18 46 25 65 7 23 19 36 33 38 19 3 17 -5 -24 -109 -50
-128 -65 -149 -106 -149 -34 0 -34 23 -1 28 11 2 25 14 32 28 9 21 6 38 -21
105 -22 58 -35 78 -45 74 -8 -3 -21 -5 -29 -5 -12 0 -14 -12 -12 -57 3 -51 6
-58 26 -61 37 -6 27 -32 -13 -32 -43 0 -55 20 -55 93 0 40 -4 56 -15 61 -8 3
-15 10 -15 16 0 5 7 10 15 10 8 0 15 8 15 18 0 22 8 32 27 32 7 0 13 -11 13
-24z m-1840 -47 c0 -16 -4 -19 -21 -14 -58 19 -106 -42 -73 -93 14 -21 22 -24
56 -19 33 4 39 3 36 -11 -2 -12 -16 -18 -47 -20 -60 -4 -91 24 -91 85 0 61 32
93 95 93 39 0 45 -3 45 -21z m268 1 c34 -32 27 -126 -12 -152 -6 -4 -32 -8
-58 -8 -38 0 -50 5 -67 26 -13 16 -21 41 -21 64 0 23 8 48 21 64 17 21 29 26
68 26 34 0 53 -6 69 -20z m432 -70 c0 -83 -1 -90 -20 -90 -19 0 -20 7 -20 90
0 83 1 90 20 90 19 0 20 -7 20 -90z m84 78 c-6 -10 -4 -10 7 0 18 17 74 15 93
-4 22 -22 23 -164 1 -164 -12 0 -15 13 -15 56 0 64 -13 94 -40 94 -30 0 -50
-39 -50 -97 0 -40 -4 -53 -15 -53 -12 0 -15 17 -15 90 0 84 1 90 21 90 13 0
18 -4 13 -12z m326 -95 c0 -98 -2 -105 -25 -129 -22 -21 -33 -25 -77 -22 -41
2 -54 7 -56 21 -3 15 2 17 36 11 45 -7 82 8 82 34 0 14 -8 17 -44 14 -35 -3
-49 1 -65 17 -33 33 -25 128 13 153 6 4 39 7 74 7 l62 -1 0 -105z m354 85 c11
-15 16 -45 16 -89 l0 -66 -62 -1 c-70 -1 -88 9 -88 48 0 35 19 50 70 57 22 3
40 7 40 8 0 32 -34 44 -70 25 -13 -7 -21 -7 -25 0 -13 21 17 40 61 40 33 0 46
-5 58 -22z m780 -1 c20 -31 23 -77 7 -115 -15 -35 -42 -47 -91 -40 -29 4 -30
4 -30 -39 0 -36 -3 -43 -20 -43 -19 0 -20 7 -20 128 l0 129 70 1 c62 1 71 -1
84 -21z m188 6 c10 -9 18 -30 18 -50 l0 -33 -60 0 c-44 0 -60 -4 -60 -14 0
-25 29 -39 70 -33 29 4 40 1 40 -8 0 -7 -7 -16 -16 -19 -22 -8 -87 -7 -100 2
-38 25 -45 105 -13 146 16 20 29 26 61 26 25 0 49 -7 60 -17z m168 3 c0 -10
-13 -16 -37 -18 -49 -4 -53 -25 -9 -43 48 -20 62 -49 41 -81 -13 -20 -24 -24
-65 -24 -43 0 -50 3 -50 19 0 17 6 19 41 18 58 -3 60 17 5 42 -37 16 -46 25
-46 45 0 37 25 56 76 56 32 0 44 -4 44 -14z m291 -7 c18 -18 21 -30 17 -75 -6
-66 -24 -83 -90 -84 -39 0 -50 4 -67 26 -30 38 -28 98 4 129 32 33 105 35 136
4z m631 -45 c2 -51 7 -70 21 -78 34 -21 52 4 55 78 3 58 5 66 22 66 18 0 20
-7 20 -89 l0 -88 -65 -1 c-82 -2 -95 13 -95 110 0 61 2 68 20 68 17 0 19 -8
22 -66z m278 49 c0 -14 -8 -18 -37 -18 -49 0 -54 -22 -9 -40 48 -20 62 -49 41
-81 -13 -20 -24 -24 -65 -24 -43 0 -50 3 -50 19 0 17 6 19 41 18 58 -3 60 17
5 42 -37 16 -46 25 -46 45 0 37 25 56 76 56 35 0 44 -3 44 -17z m170 -73 c0
-83 -1 -90 -20 -90 -19 0 -20 7 -20 90 0 83 1 90 20 90 19 0 20 -7 20 -90z
m178 78 c9 -8 16 -8 24 0 7 7 29 12 50 12 48 0 58 -18 58 -109 0 -63 -2 -71
-19 -71 -16 0 -19 8 -18 63 1 69 -5 87 -33 87 -27 0 -40 -30 -40 -94 0 -49 -2
-56 -20 -56 -17 0 -19 8 -22 73 -3 67 -5 72 -27 75 -32 5 -41 -12 -41 -85 0
-56 -2 -63 -20 -63 -18 0 -20 7 -20 89 l0 88 57 1 c32 0 64 -4 71 -10z m399 0
c4 -7 10 -48 13 -91 4 -69 3 -77 -12 -77 -10 0 -18 5 -18 12 0 9 -3 9 -12 0
-7 -7 -29 -12 -50 -12 -28 0 -40 5 -48 21 -25 46 14 89 80 89 32 0 33 1 24 24
-7 18 -59 22 -69 6 -10 -17 -25 -11 -25 9 0 11 6 22 13 24 25 11 96 7 104 -5z
m210 -18 c7 -14 13 -53 13 -87 0 -56 -2 -63 -20 -63 -17 0 -19 8 -22 66 -2 51
-7 70 -20 78 -35 21 -53 -4 -56 -78 -3 -58 -5 -66 -22 -66 -18 0 -20 7 -20 89
l0 89 67 -2 c61 -1 69 -3 80 -26z m725 -36 c2 -51 7 -70 21 -78 34 -21 52 4
55 78 3 58 5 66 22 66 18 0 20 -7 20 -89 l0 -88 -66 -1 -65 -1 -15 34 c-8 19
-14 59 -14 90 0 48 3 55 20 55 17 0 19 -8 22 -66z m278 48 c0 -14 -7 -17 -40
-14 -53 5 -55 -21 -3 -45 51 -25 61 -45 40 -77 -15 -22 -25 -26 -67 -26 -46 0
-50 2 -50 24 0 23 2 23 29 13 30 -11 61 -5 61 13 0 5 -20 19 -45 31 -34 16
-45 27 -45 44 0 36 26 55 76 55 35 0 44 -3 44 -18z m170 -72 c0 -83 -1 -90
-20 -90 -19 0 -20 7 -20 90 0 83 1 90 20 90 19 0 20 -7 20 -90z m181 78 c4 -7
13 -7 27 1 32 17 80 14 91 -7 5 -10 11 -49 12 -87 2 -65 1 -70 -19 -73 -20 -3
-21 1 -21 62 1 73 -4 86 -31 86 -27 0 -40 -30 -40 -94 0 -49 -2 -56 -20 -56
-18 0 -20 7 -20 70 0 56 -3 72 -16 77 -34 13 -49 -11 -52 -81 -3 -58 -5 -66
-22 -66 -18 0 -20 7 -20 89 l0 88 62 1 c34 1 65 -4 69 -10z m-4921 -142 c0
-28 -23 -76 -36 -76 -17 0 -17 4 -3 53 9 35 39 53 39 23z m-1120 -321 c0 -126
-1 -135 -19 -135 -18 0 -19 8 -18 135 2 121 4 135 20 135 15 0 17 -13 17 -135z
m420 78 c0 -44 3 -54 12 -45 17 17 74 15 92 -4 12 -11 16 -36 16 -90 0 -66 -2
-74 -19 -74 -16 0 -18 8 -19 64 0 74 -5 86 -34 86 -32 0 -47 -29 -48 -92 0
-51 -2 -58 -20 -58 -19 0 -20 6 -17 135 2 121 4 135 20 135 14 0 17 -9 17 -57z
m210 37 c0 -13 -7 -20 -20 -20 -13 0 -20 7 -20 20 0 13 7 20 20 20 13 0 20 -7
20 -20z m1735 0 c0 -8 -10 -16 -22 -18 -18 -3 -23 2 -23 18 0 16 5 21 23 18
12 -2 22 -10 22 -18z m85 -115 c0 -128 -1 -135 -20 -135 -19 0 -20 7 -20 135
0 128 1 135 20 135 19 0 20 -7 20 -135z m270 78 c0 -44 3 -54 12 -45 7 7 29
12 50 12 47 0 71 -31 70 -91 -1 -66 -30 -89 -109 -88 l-63 1 0 134 c0 127 1
134 20 134 18 0 20 -7 20 -57z m210 -78 c0 -109 -3 -135 -14 -135 -22 0 -26
24 -26 151 0 112 1 119 20 119 19 0 20 -7 20 -135z m790 0 c0 -128 -1 -135
-20 -135 -19 0 -20 7 -20 135 0 128 1 135 20 135 19 0 20 -7 20 -135z m360
115 c0 -13 -7 -20 -20 -20 -13 0 -20 7 -20 20 0 13 7 20 20 20 13 0 20 -7 20
-20z m-3770 -45 c0 -20 5 -25 25 -25 16 0 25 -6 25 -15 0 -9 -9 -15 -25 -15
-25 0 -26 -2 -23 -57 3 -51 6 -58 26 -61 37 -6 27 -32 -13 -32 -42 0 -55 23
-55 100 0 33 -5 50 -15 54 -8 3 -15 10 -15 16 0 5 7 10 15 10 8 0 15 8 15 18
0 22 8 32 27 32 7 0 13 -11 13 -25z m4960 0 c0 -18 5 -25 20 -25 11 0 20 -7
20 -15 0 -8 -9 -15 -20 -15 -18 0 -20 -7 -20 -56 0 -47 3 -57 20 -61 31 -8 25
-33 -8 -33 -42 0 -52 17 -52 87 0 49 -3 63 -15 63 -8 0 -15 7 -15 15 0 8 7 15
15 15 9 0 15 9 15 25 0 18 5 25 20 25 15 0 20 -7 20 -25z m1220 0 c0 -20 5
-25 25 -25 16 0 25 -6 25 -15 0 -9 -9 -15 -25 -15 -23 0 -25 -4 -25 -44 0 -57
8 -76 31 -76 10 0 19 -7 19 -15 0 -19 -65 -21 -76 -3 -5 7 -9 39 -9 70 -2 45
-6 62 -21 73 -18 14 -18 15 4 21 15 4 21 12 18 21 -8 19 1 33 20 33 8 0 14
-10 14 -25z m-6560 -43 c0 -15 -8 -19 -42 -18 -37 1 -44 -3 -57 -28 -12 -26
-12 -33 1 -55 12 -22 21 -26 57 -25 33 1 41 -3 39 -15 -2 -11 -17 -17 -47 -19
-60 -4 -91 24 -91 85 0 61 32 93 95 93 37 0 45 -3 45 -18z m268 -2 c12 -12 22
-31 23 -43 4 -82 -22 -117 -88 -117 -59 0 -93 33 -93 90 0 57 34 90 93 90 30
0 50 -6 65 -20z m432 -70 c0 -83 -1 -90 -20 -90 -19 0 -20 7 -20 90 0 83 1 90
20 90 19 0 20 -7 20 -90z m180 80 c15 -8 19 -25 22 -90 3 -71 1 -80 -14 -80
-15 0 -18 9 -18 56 0 64 -13 94 -40 94 -32 0 -52 -43 -48 -100 2 -42 0 -50
-14 -50 -16 0 -18 11 -18 88 l0 88 56 2 c31 1 65 -3 74 -8z m228 -102 c-3
-102 -5 -111 -27 -129 -32 -26 -124 -24 -129 3 -3 15 2 17 27 12 48 -10 78 2
90 36 9 28 9 29 -9 20 -32 -17 -78 -12 -100 12 -27 30 -27 96 1 132 18 23 26
26 85 25 l66 -1 -4 -110z m276 90 c11 -15 16 -45 16 -89 l0 -66 -57 -1 c-83
-1 -93 3 -93 42 0 41 17 56 70 63 22 3 40 7 40 8 0 32 -34 44 -70 25 -13 -7
-21 -7 -25 0 -13 21 17 40 61 40 33 0 46 -5 58 -22z m96 10 c0 -9 3 -9 12 0
20 20 58 15 58 -9 0 -15 -4 -19 -19 -14 -29 9 -51 -30 -51 -92 0 -39 -4 -53
-14 -53 -20 0 -25 23 -25 108 1 64 3 72 20 72 10 0 19 -5 19 -12z m224 -10 c9
-12 16 -35 16 -50 0 -28 0 -28 -66 -28 l-66 0 15 -22 c12 -19 24 -23 61 -22
30 0 46 -4 46 -12 0 -31 -96 -33 -128 -4 -31 29 -31 104 0 137 30 32 100 33
122 1z m270 6 c12 -11 16 -35 16 -89 l0 -73 -65 -1 c-56 -1 -66 2 -76 20 -24
45 15 89 77 89 19 0 25 5 22 18 -4 20 -45 29 -61 13 -6 -6 -15 -11 -19 -11
-13 0 -9 38 5 43 27 12 86 6 101 -9z m100 -46 c21 -57 36 -81 36 -60 0 6 9 36
21 67 15 40 25 55 40 55 20 0 24 -10 11 -25 -5 -6 -21 -43 -36 -83 -23 -60
-32 -73 -48 -70 -15 2 -27 20 -43 63 -12 33 -27 73 -34 88 -10 26 -9 28 11 25
16 -2 27 -18 42 -60z m260 40 c11 -15 16 -45 16 -89 l0 -67 -62 -1 c-70 -1
-88 9 -88 49 0 35 19 50 70 57 25 4 40 11 40 20 0 20 -29 28 -61 16 -35 -14
-51 3 -24 24 31 22 91 17 109 -9z m96 -68 c0 -81 -2 -90 -19 -90 -16 0 -19 9
-20 90 -2 85 -1 90 18 90 20 0 21 -6 21 -90z m264 68 c11 -15 16 -45 16 -89
l0 -66 -62 -1 c-70 -1 -88 9 -88 48 0 35 19 50 70 57 31 4 40 10 38 22 -4 17
-48 21 -80 7 -14 -6 -18 -3 -18 12 0 25 12 30 67 31 32 1 45 -4 57 -21z m490
0 c8 -13 16 -34 18 -48 3 -24 1 -25 -59 -28 -44 -2 -63 -7 -63 -16 0 -25 29
-39 71 -33 34 4 40 3 37 -11 -3 -18 -62 -28 -103 -18 -48 12 -61 111 -20 151
33 34 98 35 119 3z m302 1 c29 -32 26 -115 -5 -140 -25 -21 -90 -26 -121 -9
-29 15 -44 73 -30 115 14 43 33 54 91 55 34 0 51 -5 65 -21z m209 -2 c10 -14
15 -45 15 -89 0 -61 -2 -68 -20 -68 -17 0 -19 8 -22 66 -3 74 -21 99 -55 78
-14 -8 -19 -27 -21 -78 -3 -58 -5 -66 -22 -66 -18 0 -20 7 -20 89 l0 88 65 1
c56 1 66 -2 80 -21z m180 -37 c17 -55 35 -87 35 -61 0 6 9 35 21 66 15 40 25
55 40 55 10 0 19 -2 19 -4 0 -10 -93 -233 -102 -243 -15 -19 -68 -17 -68 2 0
8 9 15 20 15 12 0 25 10 32 24 9 21 5 40 -25 115 -35 90 -35 91 -13 91 19 0
26 -10 41 -60z m275 -30 c0 -83 -1 -90 -20 -90 -19 0 -20 7 -20 90 0 83 1 90
20 90 19 0 20 -7 20 -90z m197 60 c7 -14 13 -53 13 -87 0 -56 -2 -63 -20 -63
-17 0 -19 8 -22 66 -3 74 -21 99 -55 78 -14 -8 -19 -27 -21 -78 -3 -58 -5 -66
-22 -66 -18 0 -20 7 -20 89 l0 89 67 -2 c61 -1 69 -3 80 -26z m303 10 c29 -29
28 -106 -2 -137 -17 -18 -32 -23 -69 -23 -40 0 -51 4 -69 28 -29 35 -23 107
10 134 31 25 104 24 130 -2z m95 -46 c1 -46 5 -68 15 -75 43 -26 70 5 70 82 0
46 3 59 15 59 11 0 15 -14 16 -57 1 -32 2 -71 3 -88 1 -30 1 -30 -61 -33 -83
-3 -93 8 -93 104 0 64 2 74 18 74 14 0 17 -10 17 -66z m205 54 c0 -9 3 -9 12
0 21 21 58 15 58 -9 0 -15 -5 -19 -15 -15 -30 11 -55 -30 -55 -89 0 -42 -3
-55 -15 -55 -12 0 -15 17 -15 90 0 73 3 90 15 90 8 0 15 -5 15 -12z m300 -3
c0 -11 -11 -15 -40 -15 -29 0 -40 -4 -40 -15 0 -8 18 -24 40 -35 32 -16 40
-26 40 -48 0 -40 -17 -52 -72 -52 -45 0 -48 2 -48 26 0 22 2 24 14 15 18 -15
68 -11 73 6 3 7 -13 19 -33 28 -56 23 -70 57 -38 89 21 22 104 22 104 1z m307
0 c39 -28 39 -108 -2 -148 -23 -24 -96 -22 -126 2 -20 16 -24 29 -24 71 0 42
4 55 24 71 28 23 97 25 128 4z m173 -6 c0 -16 -5 -19 -19 -14 -31 10 -54 -34
-49 -95 2 -42 0 -50 -14 -50 -16 0 -18 11 -18 88 l0 89 50 1 c44 1 50 -2 50
-19z m152 4 c10 -9 18 -30 18 -50 l0 -33 -60 0 c-62 0 -73 -9 -44 -37 11 -11
27 -14 55 -10 34 4 40 3 37 -11 -3 -18 -62 -28 -103 -18 -48 12 -61 111 -20
151 29 30 89 34 117 8z m398 -73 c0 -96 -12 -145 -40 -160 -10 -6 -41 -10 -69
-10 -43 0 -51 3 -51 19 0 16 6 18 43 14 49 -6 77 13 77 50 0 16 -3 18 -12 9
-17 -17 -69 -15 -94 3 -39 27 -37 122 3 152 9 7 43 12 79 11 l64 -1 0 -87z
m166 82 c16 -11 34 -48 34 -71 0 -19 -6 -21 -65 -21 -69 0 -77 -6 -45 -35 15
-14 29 -16 60 -11 30 5 39 3 38 -6 -2 -7 -7 -16 -13 -20 -15 -11 -83 -10 -105
2 -20 11 -40 60 -35 87 2 10 4 23 4 30 2 25 45 53 80 53 20 0 41 -4 47 -8z
m-476 -138 c0 -4 -5 -24 -12 -45 -14 -50 -44 -55 -33 -6 4 17 7 38 8 45 0 12
37 18 37 6z m-4570 -329 c0 -128 -1 -135 -20 -135 -19 0 -20 7 -20 135 0 128
1 135 20 135 19 0 20 -7 20 -135z m90 115 c0 -13 -7 -20 -20 -20 -13 0 -20 7
-20 20 0 13 7 20 20 20 13 0 20 -7 20 -20z m660 -115 c0 -128 -1 -135 -20
-135 -19 0 -20 7 -20 135 0 128 1 135 20 135 19 0 20 -7 20 -135z m420 87 l0
-48 47 0 c40 1 49 -3 60 -24 7 -14 13 -53 13 -87 0 -56 -2 -63 -20 -63 -17 0
-19 8 -22 66 -3 74 -21 99 -55 78 -14 -8 -19 -27 -21 -78 -3 -58 -5 -66 -22
-66 -19 0 -20 8 -20 135 0 128 1 135 20 135 17 0 20 -7 20 -48z m-1796 -57
c22 -52 42 -92 45 -90 3 2 24 44 46 94 33 76 43 91 62 91 23 0 23 -1 23 -130
0 -122 -1 -130 -20 -130 -17 0 -19 8 -22 88 l-3 87 -36 -85 c-20 -47 -42 -86
-50 -87 -13 -3 -29 29 -83 157 -14 34 -14 33 -15 -62 -1 -90 -3 -98 -20 -98
-19 0 -20 8 -20 130 l0 130 27 0 c25 0 30 -9 66 -95z m1686 40 c0 -18 5 -25
20 -25 11 0 20 -7 20 -15 0 -8 -9 -15 -20 -15 -18 0 -20 -7 -20 -60 0 -53 2
-60 20 -60 11 0 20 -7 20 -15 0 -21 -66 -21 -74 1 -3 9 -6 42 -6 75 0 46 -3
59 -15 59 -8 0 -15 7 -15 15 0 8 7 15 15 15 9 0 15 9 15 25 0 18 5 25 20 25
15 0 20 -7 20 -25z m-2555 -85 c10 -34 21 -63 25 -65 3 -2 16 25 29 61 17 48
28 64 41 64 18 0 18 -3 6 -37 -41 -113 -79 -199 -93 -210 -23 -18 -63 -16 -63
2 0 8 8 15 19 15 11 0 23 11 30 28 11 25 8 39 -18 106 -36 90 -37 96 -13 96
14 0 23 -15 37 -60z m285 40 c29 -29 28 -106 -2 -137 -31 -34 -100 -32 -135 3
-22 22 -25 32 -20 72 6 59 33 82 93 82 31 0 50 -6 64 -20z m102 -46 c3 -74 21
-99 56 -78 13 8 18 27 20 78 3 58 5 66 22 66 18 0 20 -7 20 -89 l0 -89 -65 -1
c-82 -1 -95 14 -95 111 0 61 2 68 20 68 17 0 19 -8 22 -66z m268 44 c0 -13 -5
-18 -14 -15 -8 3 -22 0 -33 -8 -14 -10 -18 -27 -18 -74 0 -51 -3 -61 -17 -61
-16 0 -18 11 -18 88 l0 89 50 1 c44 1 50 -2 50 -20z m482 -44 c3 -74 21 -99
56 -78 13 8 18 27 20 78 3 58 5 66 22 66 18 0 20 -7 20 -89 l0 -88 -62 -1
c-87 -1 -98 10 -98 105 0 66 2 73 20 73 17 0 19 -8 22 -66z m278 51 c0 -11
-11 -15 -40 -15 -52 0 -54 -23 -2 -47 28 -14 38 -25 40 -48 5 -38 -19 -55 -75
-55 -36 0 -43 3 -43 19 0 17 6 19 41 18 57 -3 58 14 4 41 -37 18 -45 26 -45
50 0 40 17 52 72 52 36 0 48 -4 48 -15z m170 -75 c0 -83 -1 -90 -20 -90 -19 0
-20 7 -20 90 0 83 1 90 20 90 19 0 20 -7 20 -90z m80 79 c0 -8 5 -8 15 1 9 8
27 10 47 6 18 -3 38 -6 43 -6 90 7 99 5 112 -20 7 -14 13 -53 13 -87 0 -56 -2
-63 -20 -63 -18 0 -20 7 -20 59 0 71 -6 91 -30 91 -28 0 -40 -23 -44 -86 -3
-43 -9 -60 -20 -62 -12 -3 -16 10 -18 64 -2 51 -7 70 -20 78 -35 21 -53 -4
-56 -78 -2 -56 -6 -66 -21 -66 -16 0 -18 10 -18 90 0 81 2 90 19 90 10 0 18
-5 18 -11z m508 -12 c3 -15 -2 -17 -36 -11 -34 5 -42 3 -56 -17 -37 -53 -4
-106 59 -96 30 5 36 3 33 -11 -4 -24 -81 -29 -113 -8 -43 28 -42 107 0 150 24
24 108 19 113 -7z m262 5 c15 -12 24 -33 27 -64 5 -40 2 -50 -20 -72 -20 -20
-36 -26 -67 -26 -55 0 -76 13 -90 55 -13 41 1 99 28 115 28 16 98 12 122 -8z
m524 2 c19 -18 30 -59 21 -73 -3 -6 -33 -11 -66 -11 -62 0 -70 -7 -42 -35 12
-13 27 -16 55 -12 33 4 39 2 36 -11 -5 -25 -93 -29 -119 -6 -38 35 -33 129 10
154 25 15 88 12 105 -6z m166 1 c0 -11 -11 -15 -40 -15 -54 0 -54 -26 -1 -47
40 -16 53 -37 44 -73 -6 -23 -35 -33 -84 -28 -26 2 -35 8 -37 25 -3 20 -1 21
26 11 31 -12 62 -6 62 12 0 6 -12 15 -27 21 -90 34 -81 109 13 109 32 0 44 -4
44 -15z m180 3 c0 -9 3 -9 12 0 17 17 74 15 92 -4 12 -11 16 -36 16 -90 0 -67
-2 -74 -20 -74 -17 0 -19 8 -22 73 -3 65 -5 72 -24 75 -37 5 -54 -23 -54 -89
0 -50 -3 -59 -18 -59 -16 0 -18 10 -18 90 0 80 2 90 18 90 10 0 18 -5 18 -12z
m316 -9 c29 -32 26 -115 -5 -140 -30 -24 -103 -26 -126 -2 -41 40 -42 99 -3
141 29 31 106 31 134 1z m93 -39 c8 -33 16 -60 20 -60 3 0 14 27 24 60 13 46
22 60 36 60 15 0 22 -12 31 -52 19 -82 25 -84 40 -13 11 51 17 65 32 65 23 0
23 0 -6 -96 -18 -62 -27 -80 -44 -82 -17 -3 -23 7 -39 60 l-19 63 -17 -62
c-16 -55 -21 -63 -43 -63 -17 0 -24 6 -24 18 0 11 -9 45 -20 77 -25 72 -25 85
-2 85 14 0 21 -14 31 -60z m4490 -1484 c9 -10 8 -15 -2 -19 -8 -3 -13 3 -13
14 0 23 0 23 15 5z m-19 -86 c9 -16 8 -20 -5 -20 -8 0 -15 9 -15 20 0 11 2 20
5 20 2 0 9 -9 15 -20z m-67 -282 c8 -5 6 -8 -5 -8 -10 0 -18 -7 -18 -15 0 -8
-5 -15 -11 -15 -6 0 -8 7 -5 16 3 9 6 30 7 47 0 31 0 31 10 7 6 -13 15 -28 22
-32z"/>
<path d="M9963 4233 c9 -2 23 -2 30 0 6 3 -1 5 -18 5 -16 0 -22 -2 -12 -5z"/>
<path d="M9957 3820 c-3 -11 -10 -20 -16 -20 -6 0 -8 7 -5 15 5 11 -1 15 -20
15 -14 0 -26 -4 -26 -10 0 -5 7 -10 15 -10 8 0 15 -4 15 -10 0 -5 11 -10 25
-10 20 0 25 5 25 25 0 30 -6 32 -13 5z"/>
<path d="M9852 3718 c-7 -7 -12 -18 -12 -25 0 -17 67 -17 73 0 3 7 6 5 6 -5 1
-9 -7 -22 -16 -27 -33 -19 7 -11 44 9 21 11 44 20 51 20 8 0 12 6 10 13 -9 24
-135 36 -156 15z"/>
<path d="M9445 2943 c3 -16 10 -64 15 -108 6 -44 22 -145 36 -224 14 -78 24
-145 22 -147 -2 -2 -18 52 -36 119 -17 67 -38 145 -47 172 l-15 50 6 -50 c8
-71 42 -240 60 -303 17 -60 25 -146 17 -180 -4 -17 -8 -20 -19 -11 -11 9 -12
-1 -8 -56 3 -47 1 -64 -7 -59 -6 3 -16 0 -21 -7 -8 -11 -9 -10 -4 4 4 14 -1
17 -27 17 -21 0 -27 -3 -19 -9 7 -4 12 -12 11 -17 -1 -5 3 -21 11 -36 18 -38
8 -55 -39 -63 -25 -4 -41 -12 -41 -21 0 -8 1 -14 3 -14 1 0 27 -9 57 -20 36
-12 47 -19 31 -19 -23 -1 -24 -2 -6 -21 18 -20 17 -20 -11 -20 -31 0 -107 -40
-88 -47 6 -2 38 3 72 11 l62 14 0 -23 c0 -16 -12 -33 -35 -51 -19 -14 -33 -30
-30 -34 3 -4 -7 -19 -21 -34 -25 -25 -26 -27 -10 -51 24 -37 20 -57 -24 -105
-45 -50 -50 -65 -17 -56 12 3 30 6 39 6 9 0 30 11 46 25 17 14 33 25 36 25 16
0 3 -33 -29 -75 -35 -45 -39 -70 -10 -58 8 3 15 0 15 -6 0 -10 -12 -15 -36
-12 -16 2 -54 -38 -54 -56 0 -14 3 -13 23 4 31 29 65 45 71 34 9 -14 -35 -62
-71 -77 -34 -15 -44 -33 -18 -35 8 -1 20 -3 25 -4 6 -1 18 -3 28 -4 13 -1 14
-3 4 -10 -10 -6 -11 -29 -6 -100 4 -50 11 -94 16 -97 4 -3 5 -10 2 -16 -4 -6
-8 -23 -9 -37 -11 -136 -16 -185 -22 -195 -4 -6 -6 -22 -4 -34 2 -18 -2 -23
-16 -20 -10 2 -16 7 -15 12 2 5 -2 12 -8 16 -7 5 -12 34 -11 78 0 40 -3 82 -8
94 -8 21 -9 21 -23 -12 -18 -41 -23 -94 -8 -85 6 4 10 -11 10 -38 0 -27 6 -49
15 -57 8 -7 15 -17 15 -22 0 -5 11 -24 25 -42 14 -18 25 -37 25 -42 1 -14 40
-60 40 -46 0 6 9 21 21 33 19 19 20 25 9 92 -18 105 -5 576 20 737 11 77 39
207 50 235 8 18 18 78 41 225 5 30 12 129 15 220 11 270 10 320 -9 320 -9 0
-12 -11 -9 -37 3 -21 1 -35 -2 -32 -4 3 -11 46 -16 95 -6 49 -21 143 -35 209
-13 66 -27 141 -30 168 -3 26 -10 47 -15 47 -5 0 -7 -12 -5 -27z m25 -1257 c0
-3 -4 -8 -10 -11 -5 -3 -10 -1 -10 4 0 6 5 11 10 11 6 0 10 -2 10 -4z m-30
-16 c0 -5 -7 -10 -16 -10 -8 0 -12 5 -9 10 3 6 10 10 16 10 5 0 9 -4 9 -10z
m-16 -921 c10 -9 17 -39 10 -39 -15 0 -74 43 -74 54 0 8 53 -4 64 -15z"/>
<path d="M10597 2723 c1 -60 -4 -107 -17 -148 -28 -94 -42 -170 -34 -199 4
-15 1 -32 -6 -41 -9 -11 -9 -26 0 -67 20 -88 46 -169 80 -248 38 -90 50 -106
50 -62 0 20 9 41 22 54 13 13 23 28 23 36 0 7 7 17 15 22 17 10 10 20 -17 24
-29 4 -31 158 -3 239 27 80 26 96 -1 71 l-21 -19 5 85 c3 47 8 94 12 105 4 11
-7 -2 -25 -30 -17 -27 -28 -39 -24 -25 5 14 8 35 9 47 0 11 3 19 8 16 10 -6 9
5 -4 28 -10 19 -13 17 -41 -25 -34 -52 -46 -60 -23 -16 8 16 15 38 15 49 0 11
5 32 12 46 9 21 9 31 0 46 -7 10 -12 37 -12 59 0 25 -5 40 -12 40 -10 0 -13
-23 -11 -87z"/>
<path d="M9520 2772 c0 -20 5 -58 26 -201 8 -49 15 -32 19 45 2 38 6 94 10
124 6 51 5 54 -9 36 -9 -11 -16 -25 -17 -30 0 -6 -7 3 -14 19 -13 27 -14 28
-15 7z"/>
<path d="M10181 2624 c0 -11 3 -14 6 -6 3 7 2 16 -1 19 -3 4 -6 -2 -5 -13z"/>
<path d="M10374 2495 c11 -8 22 -12 25 -9 6 6 -19 24 -34 24 -5 -1 -1 -7 9
-15z"/>
<path d="M9987 2458 c-20 -43 -40 -119 -33 -125 3 -3 9 3 12 13 4 10 18 46 30
78 27 68 27 66 15 66 -5 0 -16 -15 -24 -32z"/>
<path d="M10440 2466 c0 -2 8 -10 18 -17 15 -13 16 -12 3 4 -13 16 -21 21 -21
13z"/>
<path d="M10172 2370 c-1 -58 2 -70 10 -54 7 14 7 39 0 75 l-10 54 0 -75z"/>
<path d="M10391 2423 c-1 -26 41 -143 46 -128 2 6 -8 42 -21 80 -14 39 -25 60
-25 48z"/>
<path d="M10370 2041 c4 -16 13 -38 20 -48 9 -15 10 -15 4 7 -10 39 -23 70
-28 70 -3 0 -1 -13 4 -29z"/>
<path d="M10708 1905 c2 -14 8 -22 13 -19 5 3 5 14 -1 25 -14 26 -18 24 -12
-6z"/>
<path d="M10721 1803 c22 -54 44 -102 49 -107 4 -4 13 1 19 13 7 12 19 21 27
21 26 0 9 24 -24 34 -25 7 -30 13 -30 37 1 16 5 29 10 29 17 0 7 17 -17 28
-33 15 -38 15 -30 0 4 -7 -1 -4 -9 6 -9 11 -16 23 -16 28 0 4 -4 8 -9 8 -5 0
9 -44 30 -97z"/>
<path d="M10780 1653 c1 -18 26 -103 32 -108 4 -4 14 5 23 18 14 21 14 30 4
49 -18 33 -60 63 -59 41z"/>
<path d="M10855 1630 c-3 -5 -2 -10 4 -10 5 0 13 5 16 10 3 6 2 10 -4 10 -5 0
-13 -4 -16 -10z"/>
<path d="M10818 1455 c2 -44 11 -93 18 -110 12 -28 13 -25 7 34 -3 36 -12 85
-18 110 -12 44 -12 43 -7 -34z"/>
<path d="M10892 1439 c-7 -11 -11 -24 -8 -27 10 -9 28 15 24 32 -2 14 -5 13
-16 -5z"/>
<path d="M10867 1370 c6 -22 31 -46 39 -37 7 6 -25 57 -36 57 -5 0 -6 -9 -3
-20z"/>
<path d="M10873 1309 c4 -13 7 -32 7 -41 0 -25 27 -23 35 2 8 24 1 36 -27 51
-19 10 -20 9 -15 -12z"/>
<path d="M1768 3829 c-24 -14 -23 -56 2 -69 33 -18 80 20 80 64 0 19 -54 22
-82 5z"/>
<path d="M2930 3820 c-11 -11 -20 -24 -20 -29 0 -15 30 -41 46 -41 22 0 64 46
64 70 0 16 -6 20 -35 20 -22 0 -43 -8 -55 -20z"/>
<path d="M4201 3934 c-47 -60 -15 -174 49 -174 47 0 70 34 70 100 0 43 -5 61
-20 78 -29 31 -73 29 -99 -4z"/>
<path d="M4922 3947 c-35 -37 -28 -47 33 -47 51 0 55 2 55 23 0 49 -51 63 -88
24z"/>
<path d="M5316 3248 c-21 -30 -20 -61 2 -81 24 -22 51 -22 68 1 17 21 18 74 2
90 -19 19 -55 14 -72 -10z"/>
<path d="M1482 3258 c-21 -21 -13 -28 33 -28 43 0 45 1 35 20 -12 22 -49 27
-68 8z"/>
<path d="M1672 3258 c-21 -21 -13 -28 33 -28 43 0 45 1 35 20 -12 22 -49 27
-68 8z"/>
<path d="M1872 3258 c-7 -7 -12 -28 -12 -48 0 -41 14 -60 46 -60 25 0 39 15
47 51 12 50 -47 91 -81 57z"/>
<path d="M2256 3248 c-21 -30 -20 -61 2 -81 22 -20 63 -22 80 -5 15 15 16 63
2 89 -15 27 -64 25 -84 -3z"/>
<path d="M2466 3248 c-31 -44 -8 -98 43 -98 44 0 66 53 41 101 -15 27 -64 25
-84 -3z"/>
<path d="M3321 3191 c-20 -13 -6 -41 20 -41 20 0 48 24 49 43 0 10 -52 9 -69
-2z"/>
<path d="M4232 3250 c-28 -45 -7 -100 39 -100 41 0 62 56 39 101 -14 26 -61
25 -78 -1z"/>
<path d="M5520 3185 c-15 -19 -5 -35 24 -35 25 0 46 17 46 37 0 18 -55 17 -70
-2z"/>
<path d="M6417 3252 c-33 -37 -12 -102 33 -102 13 0 29 8 36 18 17 21 18 74 2
90 -18 18 -53 15 -71 -6z"/>
<path d="M6226 2815 c-9 -9 -16 -29 -16 -45 0 -61 75 -83 94 -27 22 61 -35
114 -78 72z"/>
<path d="M1533 2815 c-18 -19 -16 -80 1 -94 24 -20 69 -9 86 22 13 24 13 30 0
55 -18 31 -67 41 -87 17z"/>
<path d="M2360 2814 c-8 -8 -13 -28 -13 -44 0 -36 19 -60 47 -60 32 0 46 19
46 60 0 20 -5 41 -12 48 -17 17 -53 15 -68 -4z"/>
<path d="M2741 2741 c-12 -22 -5 -31 25 -31 20 0 44 25 44 44 0 16 -60 4 -69
-13z"/>
<path d="M3513 2815 c-18 -19 -16 -80 1 -95 23 -18 59 -8 76 23 13 24 13 30 0
55 -18 31 -58 40 -77 17z"/>
<path d="M3712 2818 c-21 -21 -13 -28 33 -28 43 0 45 1 35 20 -12 22 -49 27
-68 8z"/>
<path d="M4152 2818 c-17 -17 -15 -83 2 -97 24 -20 69 -9 86 22 13 24 13 30 0
55 -17 30 -66 42 -88 20z"/>
<path d="M5831 2751 c-19 -12 -6 -41 18 -41 20 0 51 24 51 41 0 11 -50 12 -69
0z"/>
<path d="M4172 2388 c-16 -16 -16 -80 0 -96 31 -31 88 3 88 54 0 42 -60 70
-88 42z"/>
<path d="M1533 2385 c-18 -19 -16 -80 1 -94 24 -20 69 -9 85 20 12 22 12 29 0
55 -16 33 -65 44 -86 19z"/>
<path d="M2362 2388 c-33 -42 -14 -108 31 -108 33 0 47 18 47 60 0 20 -5 41
-12 48 -16 16 -53 15 -66 0z"/>
<path d="M2663 2319 c-17 -17 -4 -39 21 -39 25 0 46 17 46 37 0 16 -52 17 -67
2z"/>
<path d="M2982 2388 c-21 -21 -14 -28 29 -28 33 0 40 3 37 18 -4 21 -48 28
-66 10z"/>
<path d="M3261 2321 c-8 -5 -11 -16 -8 -26 9 -23 46 -16 65 13 14 21 13 22
-14 22 -16 0 -35 -4 -43 -9z"/>
<path d="M3613 2319 c-17 -17 -4 -39 21 -39 25 0 46 17 46 37 0 16 -52 17 -67
2z"/>
<path d="M3983 2323 c-7 -2 -13 -13 -13 -24 0 -22 38 -27 58 -7 28 28 -2 49
-45 31z"/>
<path d="M4462 2388 c-21 -21 -14 -28 29 -28 33 0 40 3 37 18 -4 21 -48 28
-66 10z"/>
<path d="M4747 2382 c-22 -24 -21 -65 1 -85 22 -20 63 -22 80 -5 15 15 16 63
2 89 -14 25 -61 25 -83 1z"/>
<path d="M5912 2388 c-17 -17 -15 -83 2 -97 24 -20 69 -9 86 22 13 24 13 30 0
55 -17 30 -66 42 -88 20z"/>
<path d="M6827 2382 c-22 -24 -21 -65 1 -85 39 -35 92 -10 92 43 0 54 -59 80
-93 42z"/>
<path d="M7162 2388 c-21 -21 -14 -28 29 -28 33 0 40 3 37 18 -4 21 -48 28
-66 10z"/>
<path d="M7533 2393 c-18 -7 -27 -67 -14 -92 15 -28 66 -29 81 -2 14 26 13 74
-2 89 -12 12 -43 15 -65 5z"/>
<path d="M7730 2380 c-10 -19 -8 -20 35 -20 46 0 54 7 33 28 -19 19 -56 14
-68 -8z"/>
<path d="M1452 1958 c-17 -17 -15 -83 2 -97 24 -20 69 -9 86 22 13 24 13 30 0
55 -17 30 -66 42 -88 20z"/>
<path d="M3606 1948 c-21 -30 -20 -61 2 -81 22 -20 63 -22 80 -5 16 16 16 80
0 96 -20 20 -65 14 -82 -10z"/>
<path d="M4142 1958 c-21 -21 -13 -28 33 -28 25 0 45 4 45 8 0 15 -24 32 -45
32 -12 0 -26 -5 -33 -12z"/>
<path d="M4786 1948 c-9 -12 -16 -29 -16 -38 0 -9 7 -26 16 -38 17 -24 62 -30
82 -10 16 16 16 80 0 96 -20 20 -65 14 -82 -10z"/>
</g>
</svg>
