<?xml version="1.0" standalone="no"?>
<!DOCTYPE svg PUBLIC "-//W3C//DTD SVG 20010904//EN"
 "http://www.w3.org/TR/2001/REC-SVG-20010904/DTD/svg10.dtd">
<svg version="1.0" xmlns="http://www.w3.org/2000/svg"
 width="1347.000000pt" height="640.000000pt" viewBox="0 0 1347.000000 640.000000"
 preserveAspectRatio="xMidYMid meet">

<g transform="translate(0.000000,640.000000) scale(0.100000,-0.100000)"
fill="#000000" stroke="none">
<path d="M1190 6143 c0 -215 8 -251 61 -300 51 -46 144 -64 222 -42 52 14 114
72 127 117 5 21 10 124 10 230 l0 192 -25 0 c-14 0 -25 -4 -25 -10 0 -5 -9
-10 -20 -10 -11 0 -20 5 -20 10 0 6 -11 10 -25 10 -14 0 -25 -4 -25 -10 0 -5
-9 -10 -20 -10 -11 0 -20 5 -20 10 0 6 -13 10 -30 10 -16 0 -30 -4 -30 -10 0
-5 -9 -10 -20 -10 -11 0 -20 5 -20 10 0 6 -11 10 -25 10 -14 0 -25 -4 -25 -10
0 -5 -9 -10 -20 -10 -11 0 -20 5 -20 10 0 6 -11 10 -25 10 l-25 0 0 -197z
m408 45 c0 -62 -2 -117 -5 -121 -3 -4 -11 -3 -18 3 -10 8 -19 8 -33 -1 -11 -7
-27 -9 -37 -6 -14 6 -16 18 -13 66 l3 60 -52 -5 c-51 -5 -53 -4 -53 20 0 19 4
24 16 19 15 -6 15 -4 0 19 -31 48 -15 58 94 58 l97 0 1 -112z m-312 -5 c-3
-21 -8 -57 -12 -80 -6 -39 -5 -43 15 -43 17 0 21 -6 21 -32 0 -18 4 -38 8 -43
12 -17 59 -38 70 -31 16 10 25 -13 12 -29 -11 -13 -8 -14 19 -9 35 7 81 -16
81 -41 0 -8 6 -15 13 -15 8 0 7 -4 -3 -10 -22 -14 -40 -12 -40 4 0 8 -7 17
-16 20 -30 12 -44 6 -44 -18 0 -63 -27 -71 -106 -31 -77 38 -97 81 -93 198 2
51 5 97 8 102 6 10 8 17 10 38 1 9 4 8 10 -2 5 -8 8 -19 6 -25 -2 -6 -6 -24
-10 -41 -5 -24 -4 -28 6 -18 7 8 12 37 12 70 0 39 2 51 8 38 7 -20 8 -20 8 1
1 19 9 34 19 34 2 0 1 -17 -2 -37z m41 -15 c-3 -8 -6 -5 -6 6 -1 11 2 17 5 13
3 -3 4 -12 1 -19z m150 -65 c-3 -10 -5 -2 -5 17 0 19 2 27 5 18 2 -10 2 -26 0
-35z m-150 -5 c-3 -7 -5 -2 -5 12 0 14 2 19 5 13 2 -7 2 -19 0 -25z m42 -15
c-4 -23 3 -35 16 -30 8 4 17 2 20 -4 10 -15 27 2 22 22 -4 14 0 19 14 19 13 0
19 -7 20 -22 0 -22 1 -22 9 -3 8 18 9 17 7 -6 0 -14 -6 -26 -12 -27 -5 -1 -25
-3 -43 -5 -18 -3 -35 -1 -37 4 -3 4 -12 6 -20 3 -17 -7 -30 19 -21 41 5 15 27
22 25 8z m-42 -25 c-3 -8 -6 -5 -6 6 -1 11 2 17 5 13 3 -3 4 -12 1 -19z m253
-37 c0 -25 -13 -38 -34 -34 -32 7 -23 43 10 43 13 0 24 -4 24 -9z"/>
<path d="M1492 6218 c5 -15 28 -18 29 -3 0 6 -7 12 -17 13 -10 3 -15 -1 -12
-10z"/>
<path d="M1516 6181 c-3 -5 1 -14 8 -20 16 -13 32 2 21 19 -8 12 -22 13 -29 1z"/>
<path d="M1530 6125 c0 -8 7 -15 15 -15 8 0 15 7 15 15 0 8 -7 15 -15 15 -8 0
-15 -7 -15 -15z"/>
<path d="M1398 5893 c7 -3 16 -2 19 1 4 3 -2 6 -13 5 -11 0 -14 -3 -6 -6z"/>
<path d="M1830 6075 c0 -30 5 -55 10 -55 6 0 10 12 10 28 l1 27 20 -27 c11
-16 27 -28 35 -28 11 0 9 7 -8 30 l-22 30 24 25 c18 20 20 25 8 25 -9 0 -26
-12 -37 -27 l-20 -28 -1 28 c0 15 -4 27 -10 27 -5 0 -10 -25 -10 -55z"/>
<path d="M1930 6075 l0 -55 35 0 c19 0 35 5 35 10 0 6 -9 10 -20 10 -11 0 -20
7 -20 15 0 8 7 15 15 15 8 0 15 5 15 10 0 6 -7 10 -15 10 -8 0 -15 5 -15 10 0
6 9 10 20 10 11 0 20 5 20 10 0 6 -16 10 -35 10 l-35 0 0 -55z"/>
<path d="M2020 6075 c0 -54 0 -55 30 -55 17 0 30 5 30 10 0 6 -9 10 -20 10
-17 0 -20 7 -20 45 0 25 -4 45 -10 45 -5 0 -10 -25 -10 -55z"/>
<path d="M2100 6087 c0 -24 5 -48 12 -55 18 -18 56 -14 68 7 13 25 13 91 0 91
-5 0 -10 -15 -10 -32 0 -42 -13 -63 -34 -55 -11 4 -16 19 -16 47 0 22 -4 40
-10 40 -5 0 -10 -19 -10 -43z"/>
<path d="M2210 6075 c0 -42 3 -55 15 -55 8 0 15 9 15 20 0 11 3 20 8 20 4 0
13 -9 20 -20 7 -11 17 -20 23 -20 7 0 6 8 -3 23 -11 16 -12 27 -5 38 17 28 1
49 -38 49 l-35 0 0 -55z m52 20 c0 -5 -5 -11 -11 -13 -6 -2 -11 4 -11 13 0 9
5 15 11 13 6 -2 11 -8 11 -13z"/>
<path d="M2336 6098 c-32 -78 -31 -88 4 -66 16 10 24 10 41 0 12 -7 23 -12 25
-10 9 9 -31 108 -43 108 -8 0 -20 -15 -27 -32z m37 -18 c4 -15 0 -20 -13 -20
-13 0 -17 5 -13 20 3 11 9 20 13 20 4 0 10 -9 13 -20z"/>
<path d="M2430 6075 c0 -30 5 -55 10 -55 6 0 10 11 10 25 0 20 5 25 25 25 20
0 25 -5 25 -25 0 -14 5 -25 10 -25 6 0 10 25 10 55 0 30 -4 55 -10 55 -5 0
-10 -9 -10 -20 0 -15 -7 -20 -25 -20 -18 0 -25 5 -25 20 0 11 -4 20 -10 20 -5
0 -10 -25 -10 -55z"/>
<path d="M2563 6078 c-14 -35 -17 -54 -10 -57 6 -2 13 1 15 8 2 6 14 11 27 11
13 0 25 -5 27 -11 2 -7 9 -10 15 -8 15 5 -24 109 -41 109 -7 0 -22 -24 -33
-52z m47 -10 c0 -5 -7 -8 -15 -8 -17 0 -18 2 -9 25 5 13 8 14 15 3 5 -7 9 -16
9 -20z"/>
<path d="M2670 6075 c0 -62 17 -75 22 -17 l3 37 22 -37 c12 -21 27 -38 33 -38
6 0 10 24 10 55 0 30 -4 55 -10 55 -5 0 -10 -17 -10 -37 l0 -38 -25 38 c-14
20 -30 37 -35 37 -6 0 -10 -25 -10 -55z"/>
<path d="M2840 6085 c0 -25 0 -48 -1 -52 0 -4 4 -9 10 -11 6 -2 11 9 11 25 l1
28 17 -27 c18 -30 49 -36 82 -16 16 10 24 10 41 0 12 -7 23 -12 25 -10 2 2 -4
28 -13 56 -21 64 -41 65 -63 5 -21 -56 -26 -60 -49 -32 -19 23 -19 24 1 51 15
22 16 28 5 28 -8 0 -22 -10 -30 -22 l-16 -23 0 23 c-1 43 -21 22 -21 -23z
m153 -5 c4 -15 0 -20 -13 -20 -13 0 -17 5 -13 20 3 11 9 20 13 20 4 0 10 -9
13 -20z"/>
<path d="M3050 6075 c0 -61 19 -77 21 -17 l1 37 15 -38 c19 -44 32 -44 49 4
l12 34 1 -37 c1 -60 21 -44 21 17 0 65 -22 76 -40 20 -13 -40 -25 -38 -35 5
-5 21 -13 30 -26 30 -16 0 -19 -7 -19 -55z"/>
<path d="M3210 6076 c0 -31 5 -56 10 -56 6 0 10 9 10 19 0 12 9 21 26 25 20 5
25 12 22 34 -2 22 -9 28 -35 30 l-33 3 0 -55z m50 19 c0 -8 -7 -15 -15 -15 -8
0 -15 7 -15 15 0 8 7 15 15 15 8 0 15 -7 15 -15z"/>
<path d="M3300 6087 c0 -47 13 -67 45 -67 12 0 26 5 33 12 14 14 16 98 2 98
-5 0 -10 -18 -10 -40 0 -28 -5 -43 -16 -47 -21 -8 -34 13 -34 55 0 17 -4 32
-10 32 -5 0 -10 -19 -10 -43z"/>
<path d="M3420 6075 c0 -62 17 -75 22 -17 l3 37 23 -37 c35 -56 52 -50 52 17
0 30 -4 55 -10 55 -5 0 -10 -16 -10 -35 0 -19 -4 -35 -8 -35 -5 0 -17 16 -28
35 -28 52 -44 45 -44 -20z"/>
<path d="M3557 6112 c-38 -42 -12 -92 47 -92 22 0 26 4 26 30 0 23 -4 30 -20
30 -22 0 -27 -16 -7 -23 6 -2 9 -8 5 -12 -10 -11 -37 2 -44 20 -9 21 14 45 42
45 13 0 24 5 24 10 0 17 -56 11 -73 -8z"/>
<path d="M3700 6075 c0 -30 5 -55 10 -55 6 0 10 16 10 36 0 41 15 37 25 -6 4
-17 13 -30 20 -30 7 0 16 13 20 30 8 37 27 51 25 19 -3 -37 -1 -49 10 -49 6 0
10 25 10 55 0 48 -3 55 -19 55 -13 0 -21 -9 -26 -30 -10 -43 -22 -45 -35 -5
-8 24 -18 35 -31 35 -16 0 -19 -7 -19 -55z"/>
<path d="M3860 6075 c0 -54 0 -55 30 -55 17 0 30 5 30 10 0 6 -9 10 -20 10
-11 0 -20 7 -20 15 0 8 7 15 15 15 8 0 15 5 15 10 0 6 -7 10 -15 10 -8 0 -15
5 -15 10 0 6 9 10 20 10 11 0 20 5 20 10 0 6 -13 10 -30 10 -30 0 -30 -1 -30
-55z"/>
<path d="M3940 6075 c0 -54 0 -55 30 -55 17 0 30 5 30 10 0 6 -9 10 -20 10
-17 0 -20 7 -20 45 0 25 -4 45 -10 45 -5 0 -10 -25 -10 -55z"/>
<path d="M4033 6075 c-17 -44 -18 -55 -7 -55 8 0 14 5 14 10 0 6 11 10 25 10
14 0 25 -4 25 -10 0 -5 6 -10 14 -10 12 0 12 8 -3 53 -24 71 -43 72 -68 2z
m47 -1 c0 -8 -7 -14 -15 -14 -17 0 -18 2 -9 24 7 18 24 12 24 -10z"/>
<path d="M4120 6123 c1 -5 7 -19 15 -33 8 -14 14 -35 15 -47 0 -13 5 -23 10
-23 6 0 10 7 10 15 0 9 9 34 20 55 16 32 17 40 6 40 -7 0 -17 -12 -21 -27 l-7
-28 -14 28 c-13 25 -34 37 -34 20z"/>
<path d="M4220 6094 c0 -19 5 -44 10 -55 12 -21 50 -25 68 -7 14 14 16 98 2
98 -5 0 -10 -18 -10 -40 0 -28 -5 -43 -16 -47 -21 -8 -34 13 -34 55 0 17 -4
32 -10 32 -5 0 -10 -16 -10 -36z"/>
<path d="M12053 6085 c2 -37 4 -40 32 -42 28 -2 28 -1 5 5 -18 6 -27 17 -32
42 l-6 35 1 -40z"/>
<path d="M12232 6108 c-17 -17 -15 -43 6 -59 14 -11 15 -11 5 1 -18 20 -16 47
5 59 9 6 12 11 7 11 -6 0 -16 -5 -23 -12z"/>
<path d="M12281 6115 c-2 -5 -3 -29 -3 -52 1 -36 -2 -43 -26 -52 -15 -5 -20
-10 -11 -10 35 -2 50 23 46 74 -2 28 -5 46 -6 40z"/>
<path d="M12323 6080 c0 -25 2 -35 4 -22 2 12 2 32 0 45 -2 12 -4 2 -4 -23z"/>
<path d="M12407 6110 c6 -8 13 -28 16 -45 l4 -30 2 31 c0 20 -6 37 -16 45 -16
12 -16 12 -6 -1z"/>
<path d="M12130 6090 c-6 -11 -8 -20 -6 -20 3 0 10 9 16 20 6 11 8 20 6 20 -3
0 -10 -9 -16 -20z"/>
<path d="M12366 6093 c-6 -14 -5 -15 5 -6 7 7 10 15 7 18 -3 3 -9 -2 -12 -12z"/>
<path d="M12188 6077 c-3 -19 -2 -25 4 -19 6 6 8 18 6 28 -3 14 -5 12 -10 -9z"/>
<path d="M12140 6050 c8 -5 20 -10 25 -10 6 0 3 5 -5 10 -8 5 -19 10 -25 10
-5 0 -3 -5 5 -10z"/>
<path d="M1353 4933 c-4 -10 -11 -21 -17 -25 -7 -5 -7 -8 2 -8 7 0 13 -15 13
-37 2 -35 2 -35 6 -8 3 17 9 35 14 42 7 7 5 13 -3 16 -10 4 -8 10 6 21 18 14
18 16 3 16 -10 0 -21 -8 -24 -17z"/>
<path d="M1743 4933 c-4 -10 -11 -21 -17 -25 -7 -5 -7 -8 2 -8 7 0 13 -15 13
-37 2 -35 2 -35 6 -8 3 17 9 35 14 42 7 7 6 12 -2 15 -8 3 -6 9 5 21 16 15 16
17 1 17 -8 0 -19 -8 -22 -17z"/>
<path d="M1205 4891 c0 -27 3 -53 8 -57 4 -4 7 18 7 49 0 32 -3 57 -7 57 -5 0
-8 -22 -8 -49z"/>
<path d="M1250 4869 c0 -21 5 -39 10 -39 6 0 10 13 10 29 0 53 32 46 43 -9 3
-14 4 -8 4 15 -2 38 -4 40 -34 42 -32 1 -33 0 -33 -38z"/>
<path d="M1406 4894 c-19 -19 -20 -25 -3 -49 20 -26 67 -13 67 18 0 43 -35 60
-64 31z m44 -10 c11 -12 11 -18 -2 -31 -19 -18 -38 -10 -38 16 0 33 20 40 40
15z"/>
<path d="M1502 4898 c-29 -29 -4 -76 33 -62 8 4 15 2 15 -4 0 -15 -28 -34 -40
-27 -5 3 -10 1 -10 -4 0 -12 20 -14 44 -5 12 5 16 20 16 58 0 47 -2 52 -23 54
-13 1 -29 -4 -35 -10z m46 -25 c4 -25 -22 -37 -38 -17 -10 11 -10 17 0 29 17
20 34 14 38 -12z"/>
<path d="M1590 4869 c0 -22 5 -39 10 -39 6 0 10 13 10 30 0 17 7 33 17 38 13
8 11 10 -10 10 -25 0 -27 -4 -27 -39z"/>
<path d="M1680 4899 l25 -11 -28 -10 c-37 -13 -33 -43 6 -44 26 -1 28 1 25 35
-3 30 -7 36 -28 38 l-25 3 25 -11z m20 -38 c0 -14 -18 -23 -30 -16 -6 4 -8 11
-5 16 8 12 35 12 35 0z"/>
<path d="M1793 4870 c0 -25 2 -35 4 -22 2 12 2 32 0 45 -2 12 -4 2 -4 -23z"/>
<path d="M1837 4903 c-13 -13 -7 -30 16 -40 l22 -11 -25 -11 -25 -11 25 3 c31
3 39 33 10 42 -11 3 -18 11 -14 16 3 6 12 8 20 5 8 -3 14 -1 14 4 0 11 -33 14
-43 3z"/>
<path d="M1327 4591 l-55 -52 -7 46 c-5 36 -10 45 -23 43 -14 -3 -17 -19 -20
-110 -2 -91 -5 -107 -20 -111 -9 -3 2 -5 25 -6 40 -1 41 0 39 27 -4 33 9 62
29 62 7 0 26 -20 42 -45 l28 -44 408 -1 408 0 -4 70 c-3 51 0 70 9 70 13 0
104 -115 104 -131 0 -5 251 -9 601 -9 l601 0 -4 29 c-3 18 2 38 13 53 l18 23
30 -35 c17 -19 33 -43 36 -52 5 -14 18 -18 60 -18 52 0 54 1 65 35 6 19 9 38
6 43 -3 5 1 9 8 9 8 0 12 -6 9 -14 -3 -7 0 -13 7 -13 8 0 11 10 7 26 -3 15 2
43 10 62 16 39 3 66 -14 30 -54 -112 -61 -134 -40 -122 6 4 -1 -5 -16 -19 -28
-27 -67 -36 -67 -17 0 6 -8 18 -17 28 -10 10 -27 34 -38 55 l-19 37 32 33 c18
18 32 36 32 40 0 18 -28 3 -62 -34 -45 -49 -63 -47 -63 7 0 29 -4 40 -17 42
-16 3 -18 -7 -18 -107 l0 -111 -50 0 c-53 0 -58 4 -35 34 22 28 21 186 0 186
-12 0 -15 -13 -15 -59 0 -92 -20 -131 -67 -131 -37 0 -53 36 -53 118 0 65 -2
73 -17 70 -25 -5 -31 -134 -8 -177 8 -17 15 -32 15 -36 0 -3 -32 -5 -71 -5
l-71 0 26 31 c30 36 36 110 11 146 -22 31 -80 47 -157 44 l-27 -1 -3 -107 -3
-108 -47 -3 c-44 -3 -66 10 -35 20 8 3 13 36 15 102 4 91 3 98 -15 94 -15 -3
-19 -16 -23 -83 -6 -90 -12 -105 -44 -105 -46 0 -59 21 -64 109 -4 71 -7 81
-23 81 -17 0 -19 -8 -19 -78 0 -53 5 -84 15 -98 28 -36 19 -44 -50 -44 -36 0
-65 4 -65 8 0 5 9 17 20 27 17 16 20 29 18 78 -3 52 -7 63 -30 80 -30 22 -100
36 -138 27 -24 -6 -25 -8 -26 -100 -1 -128 1 -122 -36 -118 l-33 3 -3 108 c-2
96 -5 108 -20 105 -14 -3 -18 -16 -20 -71 -2 -37 -7 -67 -12 -67 -4 0 -31 32
-60 70 -32 43 -59 70 -71 70 -17 0 -19 -10 -21 -107 l-3 -108 -27 -3 c-20 -2
-28 1 -28 12 0 13 -12 16 -59 16 -47 0 -60 3 -63 18 -9 33 2 42 53 42 42 0 49
3 49 20 0 17 -7 20 -49 20 -40 0 -50 4 -54 19 -7 29 12 41 65 41 36 0 48 4 48
15 0 12 -16 15 -80 15 l-80 0 0 -110 0 -110 -89 0 c-93 0 -107 6 -96 40 5 16
15 20 46 20 67 0 101 49 83 117 -8 28 -25 35 -101 42 l-62 6 -3 -110 -3 -110
-27 -3 c-20 -2 -28 1 -28 12 0 13 -12 16 -60 16 l-60 0 0 30 c0 29 1 30 50 30
43 0 50 3 50 20 0 17 -7 20 -51 20 -49 0 -50 1 -47 28 3 25 7 27 56 30 36 2
52 7 52 17 0 16 -135 26 -151 11 -5 -6 -9 -56 -9 -113 0 -102 0 -103 -24 -103
-18 0 -34 14 -61 51 -52 73 -52 76 -9 120 28 29 35 42 27 50 -9 9 -26 -2 -66
-40z m485 -14 c24 -38 1 -69 -48 -65 -34 3 -39 6 -42 31 -5 40 15 60 52 53 16
-4 34 -12 38 -19z m739 -3 c19 -17 26 -78 11 -100 -22 -33 -95 -45 -106 -18
-8 21 -8 108 0 129 9 21 67 14 95 -11z m514 1 c52 -51 13 -140 -58 -133 -31 3
-32 4 -35 57 -5 82 3 101 39 101 18 0 39 -9 54 -25z"/>
<path d="M3765 4610 c3 -5 8 -10 11 -10 2 0 4 5 4 10 0 6 -5 10 -11 10 -5 0
-7 -4 -4 -10z"/>
<path d="M3805 4560 c-3 -5 1 -10 10 -10 9 0 13 5 10 10 -3 6 -8 10 -10 10 -2
0 -7 -4 -10 -10z"/>
<path d="M3766 4481 c-4 -7 -5 -15 -2 -18 9 -9 19 4 14 18 -4 11 -6 11 -12 0z"/>
<path d="M3807 4483 c-4 -3 -7 -11 -7 -17 0 -6 5 -5 12 2 6 6 9 14 7 17 -3 3
-9 2 -12 -2z"/>
<path d="M1212 4115 c0 -43 2 -52 7 -30 l7 30 18 -27 c10 -16 23 -28 29 -28 7
0 -1 12 -16 27 l-27 27 27 28 c15 15 22 28 15 28 -6 0 -20 -12 -29 -27 l-18
-27 -6 29 c-5 21 -7 11 -7 -30z"/>
<path d="M1300 4115 l0 -55 33 1 c30 2 30 2 5 6 -35 5 -39 40 -5 46 l22 4 -22
2 c-16 1 -23 7 -23 20 0 12 8 21 23 24 19 4 18 4 -5 6 -27 1 -28 0 -28 -54z"/>
<path d="M1382 4118 l-2 -58 33 1 c29 2 30 2 5 6 -25 4 -27 9 -31 56 l-3 52
-2 -57z"/>
<path d="M1454 4126 c2 -92 70 -92 72 0 l2 49 -7 -50 c-5 -45 -9 -50 -31 -50
-22 0 -26 5 -31 50 l-7 50 2 -49z"/>
<path d="M1561 4113 c1 -32 4 -46 6 -30 5 34 30 35 45 2 6 -14 15 -25 20 -25
5 0 1 11 -8 25 -13 20 -14 28 -4 40 17 20 -3 45 -36 45 -23 0 -24 -3 -23 -57z
m54 27 c0 -8 -10 -16 -22 -18 -18 -3 -23 2 -23 18 0 16 5 21 23 18 12 -2 22
-10 22 -18z"/>
<path d="M1676 4137 c-7 -19 -17 -45 -20 -58 -6 -20 -5 -21 4 -6 6 9 22 17 35
17 13 0 29 -8 35 -17 9 -15 10 -14 4 7 -3 14 -11 32 -16 40 -8 12 -9 12 -4 -2
4 -14 0 -18 -19 -18 -22 0 -24 2 -13 25 6 13 15 22 19 19 5 -3 9 -1 9 5 0 26
-21 18 -34 -12z"/>
<path d="M1763 4115 c0 -33 2 -48 4 -32 4 22 9 27 33 27 24 0 29 -5 33 -27 2
-16 4 -1 4 32 0 33 -2 48 -4 33 -4 -23 -9 -28 -33 -28 -24 0 -29 5 -33 28 -2
15 -4 0 -4 -33z"/>
<path d="M1900 4161 c0 -5 4 -11 9 -13 4 -1 12 -13 15 -25 6 -19 4 -23 -14
-23 -18 0 -20 4 -14 23 10 33 -2 18 -19 -25 -9 -21 -12 -38 -6 -38 5 0 9 7 9
15 0 21 49 19 67 -2 8 -11 5 4 -7 35 -11 29 -20 55 -20 57 0 3 -4 5 -10 5 -5
0 -10 -4 -10 -9z"/>
<path d="M1982 4113 l1 -58 6 49 6 50 29 -47 c17 -26 34 -47 38 -47 4 0 7 26
6 58 l-1 57 -6 -50 -6 -50 -30 47 c-16 27 -33 48 -37 48 -5 0 -7 -26 -6 -57z"/>
<path d="M2143 4115 c-1 -39 2 -50 6 -32 l6 29 24 -26 c27 -29 61 -35 61 -11
0 10 10 15 30 15 20 0 30 -5 30 -15 0 -8 4 -15 9 -15 5 0 0 25 -12 55 -11 30
-24 55 -28 55 -12 0 -12 -17 0 -22 4 -1 12 -13 15 -25 6 -19 4 -23 -14 -23
-17 0 -20 5 -16 23 3 12 -2 5 -11 -15 -19 -45 -34 -48 -58 -12 -16 25 -16 27
7 52 21 25 21 25 -9 -2 l-31 -28 -5 28 c-2 16 -4 2 -4 -31z"/>
<path d="M2342 4115 c1 -52 2 -54 5 -15 3 31 7 40 14 30 5 -8 9 -10 9 -4 0 5
-7 19 -15 30 -13 17 -14 14 -13 -41z"/>
<path d="M2426 4154 c-8 -22 -8 -26 3 -19 6 3 12 -14 14 -37 3 -38 4 -36 5 15
2 54 -9 75 -22 41z"/>
<path d="M2481 4113 c1 -32 4 -48 6 -36 2 13 13 23 25 25 51 7 44 68 -8 68
-23 0 -24 -3 -23 -57z m53 31 c8 -21 -1 -34 -25 -34 -14 0 -19 7 -19 25 0 29
34 36 44 9z"/>
<path d="M2574 4126 c2 -92 70 -92 72 0 l2 49 -7 -50 c-5 -45 -9 -50 -31 -50
-22 0 -26 5 -31 50 l-7 50 2 -49z"/>
<path d="M2682 4113 l1 -58 6 50 6 50 24 -38 c13 -21 25 -36 28 -33 6 6 -48
86 -58 86 -5 0 -8 -26 -7 -57z"/>
<path d="M2759 4120 c-5 -55 -4 -68 7 -58 3 3 4 30 2 59 l-3 54 -6 -55z"/>
<path d="M2816 4157 c-11 -8 -16 -20 -13 -28 4 -10 6 -10 6 3 1 11 12 20 29
24 44 9 49 12 21 13 -14 1 -33 -5 -43 -12z"/>
<path d="M2961 4115 l2 -60 7 50 c4 28 3 54 -1 60 -5 5 -8 -16 -8 -50z"/>
<path d="M3042 4145 c-16 -34 -15 -46 1 -20 11 18 13 16 18 -25 l6 -45 1 58
c2 61 -8 73 -26 32z"/>
<path d="M3100 4115 l0 -55 33 1 c30 2 30 2 5 6 -35 5 -39 40 -5 46 l22 4 -22
2 c-16 1 -23 7 -23 20 0 12 8 21 23 24 19 4 18 4 -5 6 -27 1 -28 0 -28 -54z"/>
<path d="M3182 4118 l-2 -58 33 1 c29 2 30 2 5 6 -25 4 -27 9 -31 56 l-3 52
-2 -57z"/>
<path d="M3280 4144 c-6 -15 -9 -29 -6 -31 2 -3 7 5 11 16 3 12 11 19 16 16 5
-4 9 -2 9 4 0 23 -21 20 -30 -5z"/>
<path d="M3360 4132 c12 -24 19 -50 16 -58 -3 -8 -1 -14 4 -14 6 0 10 11 10
25 0 15 7 40 15 58 14 28 14 29 1 13 -8 -10 -18 -24 -21 -30 -4 -8 -6 -8 -10
0 -3 6 -13 20 -21 30 -8 10 -5 -1 6 -24z"/>
<path d="M3444 4126 c2 -92 70 -92 72 0 l2 49 -7 -50 c-5 -45 -9 -50 -31 -50
-22 0 -26 5 -31 50 l-7 50 2 -49z"/>
<path d="M2980 4127 c0 -14 31 -69 36 -64 3 3 -4 20 -15 38 -12 19 -21 30 -21
26z"/>
<path d="M3310 4118 c0 -12 -8 -18 -24 -18 -13 0 -27 -7 -30 -16 -9 -24 -7
-31 5 -11 5 9 21 17 34 17 13 0 29 -8 35 -17 9 -15 10 -14 4 7 -3 14 -10 32
-15 40 -7 13 -8 12 -9 -2z"/>
<path d="M2405 4099 c-7 -22 -8 -22 -21 -4 -8 10 -14 15 -14 9 0 -5 7 -17 14
-26 12 -16 14 -16 25 8 6 15 10 29 7 31 -2 2 -7 -6 -11 -18z"/>
<path d="M2858 4113 c6 -2 12 -13 12 -24 0 -29 -48 -26 -60 4 -5 13 -9 16 -9
7 -1 -24 20 -40 51 -40 24 0 28 4 28 30 0 22 -5 30 -17 29 -11 0 -13 -3 -5 -6z"/>
<path d="M9260 2300 c0 -33 4 -60 10 -60 6 0 10 27 10 60 0 33 -4 60 -10 60
-6 0 -10 -27 -10 -60z"/>
<path d="M9392 2300 c0 -52 2 -58 8 -32 4 17 4 47 0 65 -6 25 -8 19 -8 -33z"/>
<path d="M9850 2334 c0 -20 -4 -24 -17 -20 -28 9 -45 -8 -41 -40 3 -25 7 -29
36 -29 l32 -1 0 58 c0 32 -2 58 -5 58 -3 0 -5 -12 -5 -26z m-12 -70 c-19 -19
-38 -11 -38 16 0 24 21 31 40 14 12 -12 12 -16 -2 -30z"/>
<path d="M10040 2334 c0 -20 -4 -24 -17 -20 -28 9 -45 -8 -41 -40 3 -25 7 -29
36 -29 l32 -1 0 58 c0 32 -2 58 -5 58 -3 0 -5 -12 -5 -26z m0 -48 c0 -18 -21
-35 -36 -29 -17 6 -18 25 -3 40 13 13 39 6 39 -11z"/>
<path d="M10170 2300 c0 -33 4 -60 10 -60 6 0 10 7 10 17 0 15 1 15 18 0 26
-23 39 -21 18 2 -15 16 -16 23 -5 43 12 23 12 23 -10 4 l-21 -19 0 36 c0 21
-4 37 -10 37 -6 0 -10 -27 -10 -60z"/>
<path d="M11283 2300 c0 -36 2 -50 4 -32 2 17 2 47 0 65 -2 17 -4 3 -4 -33z"/>
<path d="M8980 2309 c0 -28 -6 -46 -17 -55 -15 -11 -16 -13 -2 -14 8 0 20 5
27 12 14 14 16 98 2 98 -5 0 -10 -19 -10 -41z"/>
<path d="M9525 2338 c-2 -7 -2 -26 0 -43 2 -16 4 -37 5 -45 1 -9 5 -7 10 8 5
12 16 22 24 22 22 0 36 31 25 52 -11 20 -58 24 -64 6z m53 -27 c-5 -24 -38
-27 -38 -3 0 10 3 21 6 25 11 11 35 -5 32 -22z"/>
<path d="M10300 2294 c0 -35 4 -53 10 -49 6 4 8 11 5 16 -15 23 8 27 27 4 10
-14 24 -25 30 -25 7 0 2 10 -10 23 -26 27 -27 40 -7 57 8 7 15 17 15 23 0 6
-10 1 -23 -11 -29 -27 -40 -28 -32 -2 4 11 2 20 -4 20 -7 0 -11 -23 -11 -56z"/>
<path d="M11052 2293 l1 -58 6 45 6 45 21 -45 22 -45 20 45 21 45 0 -42 c1
-24 6 -43 11 -43 6 0 10 25 10 55 0 68 -19 74 -44 13 l-18 -43 -18 43 c-27 59
-40 53 -38 -15z"/>
<path d="M9025 2307 c-13 -30 10 -67 40 -65 22 2 25 6 24 43 l-2 40 -6 -35
c-4 -22 -12 -35 -21 -35 -9 0 -17 13 -21 35 -4 28 -7 31 -14 17z"/>
<path d="M9120 2279 c0 -47 17 -52 22 -6 2 17 8 32 13 32 6 0 11 -15 13 -32 2
-18 7 -33 12 -33 5 0 10 15 12 33 2 17 8 32 13 32 6 0 11 -15 13 -32 4 -40 22
-44 22 -5 0 41 -10 48 -67 49 l-53 0 0 -38z"/>
<path d="M9310 2311 c0 -6 6 -8 14 -5 8 3 17 1 20 -4 3 -6 -6 -13 -20 -16 -28
-7 -30 -36 -4 -44 12 -4 13 -3 3 10 -14 16 -8 28 15 28 8 0 12 -6 9 -15 -4 -8
-2 -17 4 -21 7 -4 9 8 7 32 -2 32 -7 40 -25 42 -13 2 -23 -1 -23 -7z"/>
<path d="M9428 2308 c7 -7 12 -25 12 -40 0 -15 5 -28 10 -28 11 0 13 39 4 64
-3 9 -13 16 -22 16 -12 0 -13 -3 -4 -12z"/>
<path d="M9622 2308 c-25 -25 -6 -68 30 -68 10 0 18 4 18 10 0 5 -6 7 -13 4
-8 -3 -20 2 -27 11 -11 13 -8 15 19 15 17 0 31 4 31 8 0 12 -22 32 -35 32 -6
0 -16 -5 -23 -12z m33 -8 c3 -5 -3 -10 -15 -10 -12 0 -18 5 -15 10 3 6 10 10
15 10 5 0 12 -4 15 -10z"/>
<path d="M9701 2280 l1 -45 8 35 c5 20 5 39 -1 45 -5 5 -9 -8 -8 -35z"/>
<path d="M9738 2308 c7 -7 12 -25 12 -40 0 -15 5 -28 10 -28 6 0 10 13 10 28
0 28 -16 52 -34 52 -6 0 -5 -5 2 -12z"/>
<path d="M9893 2285 c2 -37 4 -40 33 -42 25 -1 31 3 29 15 -2 10 -4 28 -6 42
-1 20 -3 18 -8 -10 -4 -22 -12 -35 -21 -35 -9 0 -18 13 -22 35 l-6 35 1 -40z"/>
<path d="M10078 2314 c-4 -6 -4 -24 1 -40 6 -23 13 -29 34 -29 25 -1 27 2 25
40 -1 36 -2 37 -5 8 -2 -18 -8 -33 -14 -33 -5 0 -12 0 -16 0 -5 -1 -10 14 -13
32 -3 18 -8 28 -12 22z"/>
<path d="M10406 2311 c-4 -5 3 -7 14 -4 11 3 20 0 20 -6 0 -6 -6 -11 -12 -11
-10 0 -9 -3 1 -9 7 -5 10 -14 7 -20 -11 -17 -26 -13 -26 6 0 12 -3 14 -11 6
-17 -17 -2 -32 31 -31 26 1 30 5 30 28 0 39 -38 68 -54 41z"/>
<path d="M10481 2280 l1 -45 8 35 c5 20 5 39 -1 45 -5 5 -9 -8 -8 -35z"/>
<path d="M10520 2306 c5 -5 11 -24 11 -40 2 -28 2 -28 6 -6 11 56 42 62 44 7
0 -26 2 -28 8 -12 15 36 -2 59 -43 61 -25 0 -34 -2 -26 -10z"/>
<path d="M10620 2258 c0 -32 4 -58 10 -58 6 0 10 11 10 24 0 19 4 23 19 19 26
-7 46 29 31 56 -7 13 -20 19 -40 19 -30 -1 -30 -1 -30 -60z m55 22 c0 -27 -22
-39 -31 -16 -8 22 3 49 19 43 6 -2 12 -14 12 -27z"/>
<path d="M10723 2285 c2 -37 4 -40 32 -42 28 -1 30 1 31 38 1 47 -13 52 -18 7
-4 -45 -31 -44 -40 2 l-6 35 1 -40z"/>
<path d="M10810 2279 c0 -21 5 -39 10 -39 6 0 10 13 10 29 0 17 4 32 9 35 12
8 29 -16 26 -36 -2 -10 1 -21 7 -24 5 -4 8 9 6 32 -3 36 -5 39 -35 41 -32 1
-33 0 -33 -38z"/>
<path d="M10910 2305 c-6 -7 -10 -24 -8 -37 2 -18 9 -23 31 -21 34 2 32 -16
-4 -34 -22 -12 -22 -13 -3 -13 31 0 44 20 44 70 0 41 -2 46 -24 48 -13 1 -29
-5 -36 -13z m50 -25 c0 -24 -25 -33 -40 -14 -10 11 -10 17 0 28 15 19 40 10
40 -14z"/>
<path d="M11202 2308 c-25 -25 -6 -68 30 -68 10 0 18 4 18 10 0 5 -6 7 -13 4
-8 -3 -20 2 -27 11 -11 13 -8 15 19 15 17 0 31 4 31 8 0 12 -22 32 -35 32 -6
0 -16 -5 -23 -12z m38 -8 c0 -5 -10 -10 -22 -10 -19 0 -20 2 -8 10 19 13 30
13 30 0z"/>
<path d="M11324 2308 c-4 -7 -3 -8 4 -4 7 4 17 4 23 0 7 -4 2 -11 -13 -18 -34
-17 -29 -41 10 -43 27 -1 32 2 32 22 0 13 -3 30 -6 39 -7 19 -40 21 -50 4z
m34 -40 c-6 -18 -28 -21 -28 -4 0 9 7 16 16 16 9 0 14 -5 12 -12z"/>
<path d="M11401 2316 c-1 -5 4 -26 10 -47 9 -30 9 -42 -1 -54 -8 -9 -8 -15 -2
-15 14 0 16 4 41 68 11 29 17 52 12 52 -4 0 -13 -15 -18 -32 l-10 -33 -16 35
c-8 19 -16 31 -16 26z"/>
<path d="M11480 2293 c0 -39 11 -51 43 -51 25 0 27 4 27 39 0 22 -5 39 -10 39
-6 0 -8 -11 -6 -24 4 -25 -15 -52 -27 -39 -4 3 -7 19 -7 35 0 15 -4 28 -10 28
-5 0 -10 -12 -10 -27z"/>
<path d="M6073 2263 c-7 -2 -13 -14 -12 -26 0 -21 1 -21 8 -3 4 11 16 23 27
27 12 5 13 8 4 8 -8 -1 -21 -3 -27 -6z"/>
<path d="M6168 2263 c7 -3 16 -2 19 1 4 3 -2 6 -13 5 -11 0 -14 -3 -6 -6z"/>
<path d="M6202 2235 c0 -16 2 -22 5 -12 2 9 2 23 0 30 -3 6 -5 -1 -5 -18z"/>
<path d="M6114 2199 c-3 -6 -1 -16 5 -22 9 -9 11 -8 6 6 -5 12 -2 17 10 17 12
0 15 -5 10 -17 -5 -14 -3 -15 6 -6 6 6 8 16 5 22 -9 14 -33 14 -42 0z"/>
<path d="M6061 2149 c-1 -26 15 -40 42 -38 7 0 3 4 -8 8 -11 4 -23 19 -26 32
l-7 24 -1 -26z"/>
<path d="M6201 2147 c0 -10 -11 -22 -23 -27 -13 -5 -16 -9 -8 -9 25 -1 42 15
37 35 -4 17 -5 17 -6 1z"/>
<path d="M8990 2018 c0 -13 -3 -40 -6 -60 -6 -36 -6 -37 31 -40 73 -6 74 -70
1 -76 -44 -4 -44 -26 0 -30 90 -9 117 117 29 134 -30 5 -35 10 -35 35 0 27 3
29 40 29 29 0 40 4 40 15 0 11 -12 15 -50 15 -45 0 -50 -2 -50 -22z"/>
<path d="M9250 1934 c0 -47 -3 -57 -20 -61 -23 -6 -27 -23 -6 -23 30 0 46 30
46 86 0 30 -4 54 -10 54 -5 0 -10 -25 -10 -56z"/>
<path d="M9300 1980 c0 -5 4 -10 9 -10 6 0 13 5 16 10 3 6 -1 10 -9 10 -9 0
-16 -4 -16 -10z"/>
<path d="M4340 1956 c0 -2 7 -7 16 -10 8 -3 12 -2 9 4 -6 10 -25 14 -25 6z"/>
<path d="M9306 1923 c1 -16 2 -38 3 -50 0 -13 4 -23 9 -23 11 0 7 93 -4 97 -6
2 -9 -9 -8 -24z"/>
<path d="M9358 1900 c18 -57 30 -59 48 -9 l12 34 7 -33 c7 -31 21 -49 31 -40
10 11 31 98 23 98 -5 0 -12 -14 -16 -30 -8 -44 -21 -46 -29 -5 -8 44 -25 41
-37 -6 -10 -35 -13 -33 -31 24 -3 9 -10 17 -15 17 -5 0 -2 -23 7 -50z"/>
<path d="M9515 1940 c-4 -6 5 -10 19 -10 14 0 26 -4 26 -10 0 -5 -8 -10 -19
-10 -23 0 -45 -25 -38 -44 4 -9 19 -14 41 -13 35 1 36 2 36 43 0 29 -5 44 -16
48 -23 9 -42 7 -49 -4z m45 -55 c0 -8 -9 -15 -20 -15 -25 0 -26 17 -2 23 9 3
18 5 20 6 1 0 2 -6 2 -14z"/>
<path d="M4290 1886 c0 -8 4 -17 9 -20 5 -4 7 3 4 14 -6 23 -13 26 -13 6z"/>
<path d="M4321 1833 c7 -12 15 -20 18 -17 3 2 -3 12 -13 22 -17 16 -18 16 -5
-5z"/>
<path d="M9151 1649 c-116 -34 -211 -159 -211 -279 0 -150 139 -290 289 -290
21 0 61 7 91 16 75 22 162 109 184 184 34 114 11 206 -74 290 -79 80 -178 107
-279 79z m107 -148 c6 -37 -26 -52 -52 -25 -12 12 -13 20 -5 35 15 28 53 21
57 -10z m40 -113 c2 -47 0 -58 -13 -58 -11 0 -15 -11 -16 -37 -2 -89 -2 -87
-37 -89 -27 -1 -33 3 -38 23 -4 13 -4 42 -1 64 4 34 2 39 -14 39 -16 0 -19 8
-19 53 0 30 3 57 7 61 4 4 34 6 68 4 l60 -3 3 -57z"/>
<path d="M9733 1419 c-2 -23 3 -25 10 -4 4 8 3 16 -1 19 -4 3 -9 -4 -9 -15z"/>
<path d="M9815 1430 c-3 -5 -1 -10 4 -10 6 0 11 5 11 10 0 6 -2 10 -4 10 -3 0
-8 -4 -11 -10z"/>
<path d="M9582 1378 l-2 -58 33 1 c29 2 30 2 5 6 -25 4 -27 9 -31 56 l-3 52
-2 -57z"/>
<path d="M9922 1378 c-2 -57 -2 -58 26 -57 22 1 23 2 5 6 -19 4 -23 12 -26 56
l-3 52 -2 -57z"/>
<path d="M10240 1409 c-6 -11 -9 -30 -7 -42 4 -20 4 -20 6 3 2 36 16 54 36 47
12 -5 15 -17 13 -44 -3 -32 -6 -38 -26 -37 -16 0 -20 -2 -12 -10 15 -15 44 5
48 34 9 60 -33 97 -58 49z"/>
<path d="M10324 1418 c-4 -7 -3 -8 5 -4 6 4 19 2 27 -5 12 -10 13 -9 8 5 -7
19 -30 21 -40 4z"/>
<path d="M9678 1393 c30 -6 28 -19 -4 -27 -35 -9 -29 -41 9 -42 26 -1 28 1 25
35 -3 30 -7 36 -28 38 -22 1 -22 1 -2 -4z m22 -43 c0 -12 -28 -25 -36 -17 -9
9 6 27 22 27 8 0 14 -5 14 -10z"/>
<path d="M9767 1383 c-15 -15 -19 -16 -26 -4 -7 10 -9 7 -8 -11 1 -14 7 -24
13 -21 6 2 17 -3 24 -12 7 -8 17 -15 22 -15 6 0 0 9 -13 19 -23 19 -24 19 -5
40 23 25 17 28 -7 4z"/>
<path d="M10020 1388 l25 -10 -28 -10 c-36 -13 -33 -43 6 -44 22 -1 27 3 27
22 0 37 -11 54 -34 53 -19 0 -19 -1 4 -11z m20 -38 c0 -12 -28 -25 -36 -17 -9
9 6 27 22 27 8 0 14 -5 14 -10z"/>
<path d="M10075 1364 c0 -19 3 -34 8 -34 4 0 7 5 7 12 0 6 7 4 18 -5 10 -10
22 -17 26 -17 5 0 -2 9 -15 19 l-24 19 20 24 20 23 -21 -17 c-22 -19 -39 -24
-29 -9 3 5 2 12 -3 15 -4 2 -7 -11 -7 -30z"/>
<path d="M10330 1376 c7 -7 13 -7 20 0 6 6 3 10 -10 10 -13 0 -16 -4 -10 -10z"/>
<path d="M10390 1365 c-7 -8 -9 -22 -6 -31 7 -18 38 -15 42 4 1 7 0 8 -3 2 -8
-17 -35 -11 -31 8 2 9 11 16 21 16 9 -1 14 2 11 7 -8 13 -20 11 -34 -6z"/>
<path d="M9858 1363 c6 -2 18 -2 25 0 6 3 1 5 -13 5 -14 0 -19 -2 -12 -5z"/>
<path d="M10339 1333 c-13 -16 -12 -17 4 -4 16 13 21 21 13 21 -2 0 -10 -8
-17 -17z"/>
<path d="M4168 1249 c31 -12 27 -53 -5 -57 -20 -3 -23 1 -23 28 0 18 -4 29
-10 25 -5 -3 -10 -19 -10 -36 0 -27 2 -29 40 -29 39 0 40 1 40 34 0 33 -14 47
-43 45 -7 0 -2 -4 11 -10z"/>
<path d="M3501 974 c0 -11 3 -14 6 -6 3 7 2 16 -1 19 -3 4 -6 -2 -5 -13z"/>
<path d="M3501 914 c0 -11 3 -14 6 -6 3 7 2 16 -1 19 -3 4 -6 -2 -5 -13z"/>
<path d="M4432 893 c3 -36 5 -38 38 -38 33 0 35 2 38 38 l3 37 -41 0 -41 0 3
-37z m66 2 c1 -21 -3 -25 -23 -25 -20 0 -25 5 -25 25 0 19 5 25 23 25 17 0 23
-6 25 -25z"/>
<path d="M9160 821 c-180 -55 -268 -245 -189 -408 29 -60 110 -129 172 -148
112 -33 204 -10 288 74 85 86 108 179 72 292 -43 135 -214 229 -343 190z m97
-137 c3 -8 -2 -23 -11 -32 -15 -15 -17 -15 -32 0 -21 21 -11 48 16 48 11 0 23
-7 27 -16z m41 -96 c23 -36 18 -62 -5 -29 -34 49 -45 8 -12 -45 l21 -34 -21 0
c-18 0 -21 -6 -21 -50 0 -27 -4 -50 -10 -50 -5 0 -10 23 -10 51 0 31 -4 48
-10 44 -5 -3 -10 -26 -10 -51 0 -24 -4 -44 -10 -44 -5 0 -10 23 -10 50 0 44
-2 50 -21 50 l-21 0 22 36 c26 46 20 76 -10 49 -28 -26 -32 -15 -8 23 18 29
25 32 68 32 43 0 50 -3 68 -32z"/>
<path d="M4414 776 c-3 -8 -4 -25 -2 -38 2 -19 10 -24 41 -26 l38 -3 -3 38
c-3 35 -6 38 -36 41 -21 2 -34 -2 -38 -12z m61 -25 c0 -17 -6 -25 -22 -27 -20
-3 -23 1 -23 27 0 26 3 30 23 27 16 -2 22 -10 22 -27z"/>
<path d="M4448 753 c7 -3 16 -2 19 1 4 3 -2 6 -13 5 -11 0 -14 -3 -6 -6z"/>
<path d="M4207 594 c-4 -4 -7 -23 -7 -41 0 -33 1 -34 38 -31 35 3 37 5 37 38
0 32 -3 35 -30 38 -17 2 -34 0 -38 -4z m53 -35 c0 -26 -3 -30 -22 -27 -17 2
-24 11 -26 31 -3 23 0 27 22 27 22 0 26 -4 26 -31z"/>
<path d="M4228 563 c7 -3 16 -2 19 1 4 3 -2 6 -13 5 -11 0 -14 -3 -6 -6z"/>
<path d="M9581 543 c1 -32 4 -48 6 -35 3 13 12 22 23 22 10 0 21 4 24 9 3 4
-6 6 -19 3 -21 -4 -25 -1 -25 22 0 31 33 37 49 9 6 -10 11 -13 11 -7 0 17 -23
34 -47 34 -21 0 -23 -4 -22 -57z"/>
<path d="M10431 586 c-7 -8 -11 -32 -9 -53 3 -43 32 -58 55 -27 15 20 18 64 4
64 -4 0 -6 -10 -4 -22 5 -30 -11 -52 -32 -45 -12 5 -15 17 -13 44 2 32 7 38
25 37 12 0 20 3 17 8 -8 13 -30 9 -43 -6z"/>
<path d="M10505 580 c-8 -26 7 -45 30 -36 21 8 16 50 -7 54 -10 2 -19 -5 -23
-18z m35 -10 c0 -11 -7 -20 -15 -20 -15 0 -21 21 -8 33 12 13 23 7 23 -13z"/>
<path d="M9693 564 c27 -8 20 -27 -9 -21 -22 4 -25 1 -22 -22 2 -19 9 -27 28
-28 25 -3 25 -3 3 7 -31 13 -29 30 3 30 19 0 25 5 22 17 -2 10 -12 19 -23 20
-16 1 -16 1 -2 -3z"/>
<path d="M9746 555 c-3 -8 -3 -15 0 -15 3 0 12 7 20 15 13 13 13 15 1 15 -8 0
-17 -7 -21 -15z"/>
<path d="M9833 564 c9 -3 17 -10 17 -15 0 -14 -38 -11 -44 4 -3 6 -4 -4 -3
-23 2 -29 6 -35 27 -37 25 -3 25 -3 3 7 -31 13 -29 30 3 30 19 0 25 5 22 17
-2 10 -12 19 -23 20 -16 1 -16 1 -2 -3z"/>
<path d="M9894 562 c-5 -4 -10 -14 -12 -22 -2 -11 1 -11 11 3 22 28 37 20 38
-20 l2 -38 6 35 c9 50 38 53 44 6 l4 -36 -1 37 c-1 37 -2 38 -42 40 -22 0 -45
-2 -50 -5z"/>
<path d="M10021 514 c1 -33 4 -50 7 -39 5 13 16 20 32 20 22 0 25 4 25 35 0
24 -5 35 -15 36 -10 1 -10 -1 -2 -3 22 -8 10 -58 -13 -58 -15 0 -20 7 -20 27
-1 15 -4 30 -8 34 -4 4 -7 -19 -6 -52z"/>
<path d="M10170 540 c0 -34 -26 -52 -42 -29 -8 12 -9 11 -5 -1 2 -8 16 -15 30
-16 25 -1 27 2 27 37 0 22 -2 39 -5 39 -3 0 -5 -14 -5 -30z"/>
<path d="M10228 563 c12 -2 22 -8 22 -11 0 -4 -10 -12 -22 -17 -26 -11 -31
-39 -8 -41 10 -1 10 1 2 3 -17 6 -10 27 11 31 9 2 17 -6 20 -20 3 -13 4 -5 4
17 -2 35 -5 40 -27 42 -22 1 -22 1 -2 -4z"/>
<path d="M10291 526 l2 -41 6 35 c8 48 38 54 44 8 l4 -33 -1 35 c-1 31 -4 35
-28 36 -26 1 -28 -1 -27 -40z"/>
<path d="M10574 536 c-9 -24 4 -48 23 -44 12 2 18 12 18 28 0 29 -32 41 -41
16z m36 -16 c0 -11 -7 -20 -15 -20 -8 0 -15 9 -15 20 0 11 7 20 15 20 8 0 15
-9 15 -20z"/>
</g>
</svg>
