<?xml version="1.0" standalone="no"?>
<!DOCTYPE svg PUBLIC "-//W3C//DTD SVG 20010904//EN"
 "http://www.w3.org/TR/2001/REC-SVG-20010904/DTD/svg10.dtd">
<svg version="1.0" xmlns="http://www.w3.org/2000/svg"
 width="2580.000000pt" height="2232.000000pt" viewBox="0 0 2580.000000 2232.000000"
 preserveAspectRatio="xMidYMid meet">

<g transform="translate(0.000000,2232.000000) scale(0.100000,-0.100000)"
fill="#000000" stroke="none">
<path d="M21394 19782 c-96 -77 -16 -221 101 -182 118 39 90 200 -35 200 -28
0 -53 -7 -66 -18z"/>
<path d="M17827 19693 c-4 -3 -7 -206 -7 -450 l0 -443 260 0 260 0 0 75 0 75
-170 0 -170 0 0 115 0 115 150 0 150 0 0 75 0 75 -150 0 -150 0 0 110 0 110
170 0 170 0 0 75 0 75 -253 0 c-140 0 -257 -3 -260 -7z"/>
<path d="M19510 19505 c-25 -8 -64 -30 -87 -50 -23 -19 -44 -35 -47 -35 -3 0
-6 20 -6 45 l0 46 -87 -3 -88 -3 0 -520 0 -520 88 -3 87 -3 0 216 c0 118 4
215 8 215 5 0 19 -12 33 -26 61 -66 185 -91 292 -60 77 22 154 94 192 178 37
82 46 205 21 294 -53 186 -227 284 -406 229z m129 -159 c41 -22 88 -80 100
-123 22 -79 7 -154 -41 -209 -42 -47 -77 -64 -138 -64 -28 0 -64 7 -79 14
-143 74 -140 308 4 381 38 19 118 19 154 1z"/>
<path d="M20244 19500 c-79 -26 -153 -91 -191 -168 -26 -53 -28 -66 -28 -177
0 -102 3 -127 22 -167 30 -66 96 -133 162 -165 50 -25 67 -27 161 -28 87 0
113 4 151 21 78 36 153 115 174 182 6 22 5 22 -86 22 l-93 0 -38 -37 c-34 -33
-44 -37 -100 -41 -53 -3 -68 0 -97 20 -44 30 -69 64 -77 106 l-6 32 262 0 263
0 -5 88 c-6 105 -28 161 -88 226 -62 67 -135 98 -240 102 -66 3 -99 0 -146
-16z m205 -145 c42 -21 81 -72 81 -106 l0 -29 -166 0 -166 0 6 28 c9 37 36 72
76 100 39 26 125 30 169 7z"/>
<path d="M21167 19508 c-20 -6 -60 -30 -87 -55 l-50 -45 0 51 0 51 -90 0 -90
0 0 -355 0 -355 89 0 89 0 4 219 c3 203 5 222 24 248 29 40 80 63 142 63 l52
0 0 95 c0 107 1 105 -83 83z"/>
<path d="M21913 19502 c-116 -41 -179 -108 -215 -225 -16 -54 -19 -85 -15
-145 7 -97 19 -138 60 -199 138 -202 488 -186 597 27 11 22 20 44 20 50 0 6
-36 10 -94 10 -89 0 -95 -1 -110 -25 -26 -40 -72 -58 -136 -53 -85 6 -134 48
-154 131 l-6 27 259 0 258 0 6 35 c3 20 1 63 -4 98 -19 120 -75 199 -176 249
-55 27 -79 32 -152 35 -65 3 -99 -1 -138 -15z m209 -154 c24 -14 48 -38 59
-60 35 -69 39 -68 -150 -68 l-170 0 10 33 c29 104 152 150 251 95z"/>
<path d="M22812 19502 c-29 -11 -66 -32 -82 -47 l-29 -27 -3 38 -3 39 -87 3
-88 3 0 -356 0 -355 90 0 90 0 0 228 c0 203 2 231 19 262 25 48 73 74 136 74
64 0 109 -26 135 -79 18 -37 20 -63 20 -263 l0 -222 91 0 90 0 -3 263 c-3 284
-3 282 -65 365 -58 77 -204 112 -311 74z"/>
<path d="M23575 19510 c-97 -24 -175 -87 -221 -177 -27 -55 -29 -65 -29 -178
0 -102 3 -127 22 -167 30 -66 96 -133 162 -165 51 -25 66 -28 161 -28 115 1
159 15 231 74 33 28 79 100 94 149 6 22 5 22 -89 22 l-94 0 -21 -34 c-35 -57
-118 -80 -184 -52 -115 48 -147 257 -56 361 64 72 157 72 226 -1 l43 -44 91 0
c89 0 90 0 84 23 -29 97 -117 184 -215 211 -58 17 -153 19 -205 6z"/>
<path d="M24314 19500 c-79 -26 -153 -91 -191 -168 -26 -53 -28 -66 -28 -177
0 -111 2 -124 28 -177 62 -127 190 -195 345 -186 47 3 95 13 123 25 77 34 153
114 174 181 6 22 5 22 -86 22 l-93 0 -38 -37 c-34 -33 -44 -37 -100 -41 -53
-3 -68 0 -97 20 -44 30 -69 64 -77 106 l-6 32 262 0 263 0 -5 88 c-6 105 -28
161 -88 226 -62 67 -135 98 -240 102 -66 3 -99 0 -146 -16z m205 -145 c42 -21
81 -72 81 -106 l0 -29 -166 0 -166 0 6 28 c9 37 36 72 76 100 39 26 125 30
169 7z"/>
<path d="M18430 19505 c0 -3 50 -81 112 -172 61 -92 111 -172 111 -178 0 -5
-47 -82 -105 -170 -57 -88 -108 -166 -112 -172 -5 -10 15 -13 88 -13 l96 0 61
105 c34 58 66 105 70 105 4 0 38 -47 75 -105 l67 -105 99 0 c54 0 98 2 98 5 0
2 -51 83 -114 179 l-114 174 114 171 c63 94 114 173 114 176 0 3 -42 5 -94 5
l-94 0 -62 -105 c-34 -58 -65 -105 -69 -105 -3 0 -37 48 -75 105 l-69 105 -98
0 c-55 0 -99 -2 -99 -5z"/>
<path d="M21370 19155 l0 -355 90 0 90 0 0 355 0 355 -90 0 -90 0 0 -355z"/>
<path d="M828 16949 c-211 -31 -417 -136 -559 -286 -112 -118 -201 -279 -241
-439 l-23 -89 0 -2055 0 -2055 23 -89 c89 -350 358 -619 708 -708 l89 -23
2420 0 c2690 0 2449 -6 2636 66 233 90 451 315 539 556 64 177 61 56 57 2293
-3 2258 3 2056 -68 2241 -90 233 -315 451 -556 539 -177 64 -23 60 -2612 59
-1296 -1 -2382 -5 -2413 -10z m4847 -84 c296 -52 550 -261 664 -546 64 -160
61 -52 61 -2239 0 -2179 3 -2077 -59 -2236 -87 -225 -275 -412 -502 -503 -162
-65 -11 -62 -2644 -59 l-2390 3 -75 23 c-346 106 -588 378 -640 720 -7 45 -10
741 -8 2097 l3 2030 23 75 c72 234 215 418 414 533 85 49 201 91 292 106 28 5
1114 9 2412 10 2075 1 2372 -1 2449 -14z"/>
<path d="M3189 15585 c-51 -28 -63 -120 -21 -159 91 -82 235 11 181 117 -28
54 -102 74 -160 42z"/>
<path d="M1050 15045 l0 -445 90 0 90 0 0 169 0 168 124 5 c107 5 132 10 185
34 229 102 207 428 -33 499 -37 11 -103 15 -253 15 l-203 0 0 -445z m417 279
c60 -45 64 -151 7 -205 -23 -22 -35 -24 -135 -27 l-109 -4 0 132 0 132 105 -4
c86 -3 109 -7 132 -24z"/>
<path d="M5110 15396 l0 -85 -42 -3 -43 -3 -3 -67 -3 -67 43 -3 43 -3 5 -215
c5 -205 6 -217 29 -257 35 -61 88 -85 207 -91 l94 -5 0 77 0 76 -58 0 c-98 0
-97 -3 -97 222 l0 193 78 3 77 3 0 69 0 70 -80 0 -80 0 0 85 0 85 -85 0 -85 0
0 -84z"/>
<path d="M2131 15303 c-24 -9 -61 -33 -82 -54 l-39 -39 0 50 0 50 -90 0 -90 0
0 -355 0 -355 90 0 90 0 0 210 c0 231 6 262 55 294 17 11 55 21 92 24 l63 5 0
93 c0 107 -1 108 -89 77z"/>
<path d="M2559 15307 c-103 -29 -181 -96 -228 -197 -22 -48 -26 -68 -26 -155
0 -89 4 -107 29 -162 33 -73 104 -144 173 -175 64 -28 192 -36 264 -15 208 61
311 286 229 501 -28 74 -99 147 -176 183 -67 31 -193 40 -265 20z m206 -173
c58 -38 93 -147 74 -232 -21 -98 -87 -156 -179 -156 -100 0 -167 69 -177 181
-14 157 85 260 220 231 21 -5 49 -16 62 -24z"/>
<path d="M3737 15310 c-182 -46 -286 -216 -257 -419 18 -126 103 -239 208
-276 170 -59 345 -5 434 134 43 69 41 71 -62 71 l-90 0 -32 -36 c-88 -94 -255
-45 -283 84 l-7 32 261 0 261 0 0 78 c-1 152 -80 271 -212 318 -54 19 -171 26
-221 14z m178 -159 c37 -21 75 -76 75 -107 l0 -24 -171 0 -170 0 7 23 c3 12
12 33 19 47 41 81 156 110 240 61z"/>
<path d="M4527 15310 c-108 -28 -199 -107 -238 -209 -16 -42 -22 -78 -22 -146
0 -124 26 -191 102 -266 73 -72 132 -94 251 -94 76 0 93 4 152 33 39 19 80 49
98 70 29 36 70 112 70 132 0 6 -37 10 -94 10 -83 0 -95 -2 -100 -18 -4 -10
-20 -31 -36 -47 -24 -23 -41 -29 -87 -33 -49 -3 -64 0 -93 20 -50 34 -78 81
-86 146 -8 67 8 156 34 192 69 93 207 93 260 0 17 -30 17 -30 110 -30 58 0 92
4 92 11 0 26 -57 123 -89 151 -77 68 -223 103 -324 78z"/>
<path d="M3160 14884 c0 -269 -4 -432 -10 -444 -7 -13 -26 -21 -60 -26 l-50
-7 0 -75 0 -75 78 6 c82 5 141 27 175 65 44 48 46 75 47 540 l0 442 -90 0 -90
0 0 -426z"/>
<path d="M1222 13616 c-97 -32 -163 -104 -181 -199 l-8 -47 81 0 81 0 23 44
c27 51 65 71 129 70 53 -1 91 -26 110 -71 38 -93 -39 -173 -169 -173 l-38 0 0
-69 0 -68 69 -5 c116 -9 161 -50 161 -149 0 -89 -76 -143 -175 -125 -49 9
-103 59 -111 102 l-6 34 -85 0 -85 0 7 -42 c17 -99 70 -169 159 -210 44 -20
67 -23 166 -23 110 0 117 1 170 31 68 38 106 91 122 167 24 112 -22 226 -108
268 l-45 21 44 28 c61 38 88 87 95 166 8 109 -40 193 -138 237 -58 27 -205 33
-268 13z"/>
<path d="M2080 13335 l0 -125 -125 0 -125 0 0 -75 0 -75 125 0 125 0 0 -125 0
-125 80 0 80 0 0 125 0 125 120 0 120 0 0 75 0 75 -120 0 -120 0 0 125 0 125
-80 0 -80 0 0 -125z"/>
<path d="M10072 15302 c-13 -4 -23 -11 -23 -17 1 -6 -82 -11 -225 -13 -216 -2
-226 -3 -231 -22 -4 -16 -14 -20 -44 -20 -28 0 -39 4 -39 15 0 9 -9 15 -25 15
-16 0 -25 -6 -25 -15 0 -11 -11 -15 -40 -15 -29 0 -40 4 -40 15 0 11 -11 15
-40 15 -29 0 -40 -4 -40 -15 0 -8 -9 -15 -20 -15 -11 0 -20 7 -20 15 0 12 -16
15 -80 15 -64 0 -80 -3 -80 -15 0 -11 -13 -15 -54 -15 -73 0 -116 -10 -116
-26 0 -9 -11 -14 -29 -14 -57 0 -91 -12 -91 -31 0 -12 -7 -19 -19 -19 -10 0
-21 -9 -24 -20 -3 -12 -14 -20 -26 -20 -14 0 -21 -6 -21 -20 0 -13 -7 -20 -20
-20 -13 0 -20 -7 -20 -20 0 -13 -7 -20 -20 -20 -17 0 -20 -7 -20 -40 0 -33 -3
-40 -20 -40 -13 0 -20 -7 -20 -20 0 -13 -7 -20 -20 -20 -15 0 -20 -7 -20 -25
0 -18 -5 -25 -19 -25 -15 0 -21 -10 -26 -40 -4 -22 -12 -38 -18 -37 -6 1 -13
-8 -15 -20 -2 -14 -10 -23 -22 -23 -14 0 -20 -10 -25 -40 -4 -24 -12 -40 -20
-40 -9 0 -16 -17 -21 -45 -3 -26 -12 -45 -19 -45 -18 0 -25 -33 -25 -123 0
-71 2 -79 20 -84 16 -4 20 -14 20 -44 0 -32 3 -39 20 -39 11 0 20 -6 20 -14 0
-7 -9 -16 -20 -19 -12 -3 -20 -14 -20 -26 0 -12 -6 -21 -15 -21 -10 0 -17 -14
-21 -40 -5 -30 -11 -40 -25 -40 -12 0 -19 -7 -19 -20 0 -13 -7 -20 -20 -20
-17 0 -20 -7 -20 -40 0 -33 -3 -40 -20 -40 -14 0 -20 -7 -20 -21 0 -12 -8 -23
-20 -26 -25 -7 -27 -41 -2 -39 13 1 18 -8 20 -41 3 -38 1 -43 -17 -43 -19 0
-21 -6 -22 -65 -1 -36 -3 -89 -4 -117 -4 -79 5 -148 20 -148 15 0 25 -44 25
-116 0 -39 4 -54 14 -54 20 0 26 -32 26 -142 0 -91 1 -98 20 -98 18 0 20 -7
20 -60 0 -53 2 -60 20 -60 15 0 20 -7 20 -25 0 -18 5 -25 20 -25 13 0 20 -7
20 -20 0 -13 7 -20 19 -20 15 0 21 -10 26 -40 4 -22 12 -40 20 -40 13 0 25
-43 25 -90 0 -19 6 -29 20 -33 12 -3 20 -14 20 -26 0 -12 6 -21 15 -21 10 0
17 -14 21 -40 5 -30 11 -40 25 -40 12 0 19 -7 19 -20 0 -13 7 -20 20 -20 17 0
20 -7 20 -45 0 -38 3 -45 20 -45 16 0 20 -7 20 -35 0 -28 4 -35 20 -35 14 0
20 -7 20 -21 0 -12 8 -23 20 -26 14 -4 20 -14 20 -33 0 -47 12 -90 25 -90 8 0
16 -17 20 -39 4 -27 13 -41 26 -44 12 -3 19 -14 19 -31 0 -20 4 -24 18 -19 9
3 14 3 10 -2 -11 -12 11 -35 33 -35 11 0 19 -7 19 -15 0 -9 9 -15 21 -15 12 0
23 -8 26 -20 3 -11 12 -20 19 -20 10 0 14 15 14 55 0 48 -2 55 -20 55 -18 0
-20 7 -20 85 0 78 -2 85 -20 85 -18 0 -20 7 -20 85 0 78 -2 85 -20 85 -17 0
-20 7 -20 49 0 68 -10 111 -26 111 -11 0 -14 19 -14 81 0 72 -2 81 -20 86 -16
4 -20 14 -20 44 l0 39 60 0 60 0 0 -65 c0 -58 2 -65 20 -65 17 0 20 -7 20 -40
l0 -40 40 0 c32 0 40 -4 40 -19 0 -17 12 -18 166 -20 159 -2 166 -1 171 19 4
14 14 20 33 20 47 0 90 12 90 25 0 13 43 25 90 25 19 0 29 6 33 20 3 12 14 20
26 20 14 0 21 6 21 20 0 13 7 20 20 20 13 0 20 7 20 20 0 13 7 20 20 20 17 0
20 7 20 40 0 33 3 40 20 40 16 0 20 7 20 38 0 52 -10 82 -26 82 -10 0 -14 13
-14 45 0 38 -3 45 -20 45 -15 0 -20 7 -20 29 0 16 -3 43 -6 60 -6 28 -10 31
-41 31 -26 0 -36 5 -40 19 -7 27 -44 31 -218 24 -110 -4 -155 -10 -155 -18 0
-8 -38 -14 -122 -18 -204 -11 -208 -11 -208 18 0 18 -5 25 -20 25 -15 0 -20
-7 -20 -26 0 -24 -3 -26 -31 -20 -17 3 -35 6 -40 6 -5 0 -9 7 -9 15 0 8 9 15
20 15 18 0 20 6 19 61 -1 51 -5 62 -20 66 -17 5 -19 16 -19 84 0 72 2 79 20
79 13 0 20 7 20 20 0 13 7 20 20 20 13 0 20 -7 20 -20 0 -13 7 -20 20 -20 17
0 20 7 20 40 l0 40 40 0 40 0 0 45 c0 38 -3 45 -20 45 -13 0 -20 7 -20 20 0
13 -7 20 -20 20 -18 0 -20 7 -20 65 l0 65 40 0 c39 0 40 1 40 34 0 28 4 35 23
38 14 2 23 11 25 26 3 18 -1 22 -23 22 -20 0 -26 4 -23 18 2 13 15 18 60 20
l56 3 7 39 c5 30 11 40 26 40 12 0 19 7 19 20 0 17 7 20 40 20 33 0 40 3 40
20 0 19 7 20 158 20 212 0 342 10 342 25 0 16 103 27 180 18 60 -6 81 -25 40
-36 -16 -4 -20 -14 -20 -46 0 -34 3 -41 20 -41 17 0 20 -7 20 -49 0 -88 8
-110 45 -117 30 -5 34 -11 40 -45 4 -24 12 -39 21 -39 8 0 14 -9 14 -20 0 -15
7 -20 25 -20 23 0 25 -4 25 -40 0 -33 3 -40 20 -40 17 0 20 7 20 40 l0 40 45
0 c38 0 45 -3 45 -20 0 -11 7 -20 15 -20 8 0 15 9 15 20 0 34 36 25 44 -10 9
-46 -3 -90 -25 -90 -12 0 -19 -7 -19 -20 0 -12 -7 -20 -16 -20 -9 0 -18 -9
-21 -20 -4 -14 -14 -20 -33 -20 -48 0 -90 -12 -90 -26 0 -7 -10 -14 -22 -16
-15 -2 -24 -11 -26 -25 -3 -19 -10 -23 -43 -23 -32 0 -39 -3 -39 -20 0 -17 -7
-20 -40 -20 -33 0 -40 -3 -40 -20 0 -13 -7 -20 -20 -20 -13 0 -20 -7 -20 -20
0 -13 -7 -20 -20 -20 -13 0 -20 -7 -20 -20 0 -13 -7 -20 -20 -20 -17 0 -20 -7
-20 -45 l0 -45 -40 0 c-33 0 -40 -3 -40 -20 0 -13 7 -20 20 -20 11 0 20 -7 20
-15 0 -10 14 -17 40 -21 30 -5 40 -11 40 -25 0 -12 7 -19 20 -19 13 0 20 -7
20 -20 0 -13 7 -20 20 -20 17 0 20 -7 20 -49 0 -73 10 -109 31 -114 11 -3 19
-14 19 -26 0 -21 4 -21 201 -21 192 0 201 1 206 20 5 17 14 20 64 20 52 0 59
2 59 20 0 15 7 20 29 20 54 0 89 12 94 31 3 11 14 19 26 19 14 0 21 6 21 20 0
17 7 20 40 20 28 0 40 4 40 14 0 9 15 17 40 21 30 5 40 11 40 26 0 14 7 19 25
19 18 0 25 5 25 20 0 11 7 20 15 20 8 0 15 -9 15 -20 0 -17 7 -20 39 -20 l39
0 7 -84 c4 -46 4 -102 0 -125 -6 -37 -5 -41 14 -41 25 0 28 -27 4 -33 -15 -4
-15 -5 -2 -6 19 -1 29 -40 29 -112 0 -41 -3 -49 -19 -49 -15 0 -20 -10 -25
-45 -5 -27 -12 -45 -20 -45 -8 0 -16 -9 -19 -20 -3 -12 -14 -20 -26 -20 -14 0
-21 -6 -21 -20 0 -11 -7 -20 -15 -20 -9 0 -15 -9 -15 -21 0 -12 -8 -23 -20
-26 -15 -4 -20 -14 -20 -39 0 -34 -1 -34 -45 -34 l-45 0 0 -105 0 -105 -105 0
c-98 0 -105 -1 -105 -20 0 -17 -7 -20 -40 -20 -33 0 -40 3 -40 20 0 13 -7 20
-20 20 -19 0 -20 7 -20 125 0 118 -1 125 -20 125 -13 0 -20 7 -20 20 0 13 -7
20 -19 20 -15 0 -21 10 -26 40 -4 22 -12 40 -18 40 -7 0 -22 3 -34 6 -20 5
-23 2 -23 -20 0 -16 5 -26 15 -26 9 0 15 -9 15 -21 0 -12 8 -23 20 -26 15 -4
20 -14 20 -39 0 -23 -5 -34 -14 -34 -8 0 -16 -10 -18 -22 -3 -22 -7 -23 -124
-26 l-122 -3 -6 -34 c-4 -22 -13 -35 -22 -35 -9 0 -18 -9 -21 -20 -7 -25 -54
-34 -132 -27 -78 7 -111 -1 -111 -24 0 -14 -7 -19 -25 -19 -23 0 -25 -3 -25
-49 0 -92 7 -109 51 -116 42 -7 54 -33 19 -42 -11 -3 -20 -11 -20 -18 0 -15
-45 -25 -116 -25 -48 0 -54 -2 -54 -21 0 -20 -4 -21 -77 -18 -146 5 -173 1
-173 -21 0 -18 -7 -20 -60 -20 l-60 0 0 -125 c0 -118 1 -125 20 -125 13 0 20
-7 20 -20 0 -13 7 -20 20 -20 13 0 20 -7 20 -20 0 -13 7 -20 20 -20 17 0 20
-7 20 -41 0 -32 4 -42 19 -46 22 -5 31 -31 31 -85 0 -31 4 -38 20 -38 17 0 20
-7 20 -40 0 -33 3 -40 20 -40 13 0 20 -7 20 -20 0 -13 7 -20 20 -20 13 0 20
-7 20 -20 0 -13 7 -20 20 -20 14 0 20 -7 20 -21 0 -12 8 -23 20 -26 15 -4 20
-14 20 -40 0 -26 5 -36 19 -40 13 -3 22 -17 26 -44 4 -22 12 -39 20 -39 8 0
16 -17 20 -40 4 -22 12 -40 20 -40 16 0 26 -50 19 -90 -4 -16 -13 -30 -20 -30
-8 0 -14 -9 -14 -21 0 -12 -8 -23 -19 -26 -13 -3 -22 -17 -26 -44 -4 -23 -12
-39 -20 -39 -9 0 -16 -17 -21 -45 -4 -28 -11 -45 -20 -45 -8 0 -16 -16 -20
-40 -5 -30 -11 -40 -25 -40 -12 0 -19 -7 -19 -20 0 -13 -7 -20 -20 -20 -13 0
-20 -7 -20 -20 0 -13 -7 -20 -20 -20 -13 0 -20 -7 -20 -20 0 -17 -7 -20 -40
-20 -33 0 -40 -3 -40 -20 0 -17 -7 -20 -45 -20 -38 0 -45 -3 -45 -20 0 -17 -7
-20 -40 -20 -33 0 -40 -3 -40 -20 0 -17 -7 -20 -41 -20 -32 0 -42 -4 -46 -20
-4 -15 -14 -20 -40 -20 -26 0 -36 -5 -40 -19 -3 -13 -17 -22 -44 -26 -22 -4
-39 -12 -39 -20 0 -8 -17 -16 -40 -20 -24 -4 -40 -12 -40 -20 0 -9 -17 -16
-45 -21 -28 -4 -45 -11 -45 -20 0 -8 -16 -16 -40 -20 -30 -5 -40 -11 -40 -25
0 -15 -8 -19 -40 -19 -33 0 -40 -3 -40 -19 0 -15 -10 -21 -40 -26 -22 -4 -40
-12 -40 -20 0 -7 -17 -15 -40 -19 -24 -4 -40 -12 -40 -20 0 -9 -17 -16 -45
-20 -27 -5 -45 -12 -45 -21 0 -9 -23 -15 -80 -20 -54 -5 -80 -11 -80 -20 0
-14 -43 -25 -96 -25 -22 0 -34 -5 -34 -14 0 -16 -30 -26 -82 -26 -31 0 -38 -4
-38 -20 0 -18 -7 -20 -65 -20 -58 0 -65 -2 -65 -20 0 -18 -7 -20 -60 -20 -53
0 -60 -2 -60 -20 0 -17 -7 -20 -40 -20 -33 0 -40 -3 -40 -20 0 -15 -7 -20 -29
-20 -54 0 -89 -12 -94 -31 -4 -14 -14 -19 -41 -19 -25 0 -36 -5 -36 -14 0 -10
-16 -17 -45 -22 -35 -5 -45 -10 -45 -25 0 -12 -7 -19 -20 -19 -13 0 -20 -7
-20 -20 0 -13 -7 -20 -20 -20 -17 0 -20 -7 -20 -40 0 -32 -4 -40 -19 -40 -16
0 -19 -12 -25 -117 -5 -81 -12 -120 -22 -128 -11 -8 -14 -61 -16 -265 -4 -406
-7 -480 -22 -480 -13 0 -26 -160 -26 -312 0 -42 -4 -58 -14 -58 -17 0 -26 -52
-26 -162 0 -68 -3 -88 -14 -88 -19 0 -26 -46 -26 -176 0 -107 -1 -114 -20
-114 -20 0 -20 -7 -20 -285 0 -278 0 -285 -20 -285 -20 0 -20 -7 -20 -412 0
-227 -3 -423 -6 -436 -4 -12 -13 -22 -20 -22 -11 0 -14 -18 -14 -74 0 -92 -8
-136 -26 -136 -9 0 -14 -11 -14 -27 0 -53 -13 -103 -25 -103 -9 0 -15 -26 -20
-80 -5 -54 -11 -80 -20 -80 -13 0 -25 -82 -25 -166 0 -31 -4 -44 -14 -44 -18
0 -26 -44 -26 -136 0 -56 -3 -74 -14 -74 -22 0 -26 -49 -26 -336 0 -267 0
-274 -20 -274 -15 0 -20 -7 -20 -25 0 -18 -5 -25 -20 -25 -16 0 -20 -7 -20
-36 0 -27 -5 -37 -20 -41 -17 -5 -20 -14 -20 -72 0 -90 -10 -141 -26 -141 -11
0 -14 -17 -14 -69 0 -87 -9 -131 -26 -131 -9 0 -14 -11 -14 -27 0 -52 -13
-103 -25 -103 -15 0 -25 -45 -25 -111 0 -35 -4 -49 -14 -49 -9 0 -15 -23 -19
-82 -7 -105 2 -208 18 -208 15 0 30 -439 19 -550 -6 -59 -9 -70 -25 -70 -18 0
-19 -13 -19 -266 0 -257 1 -266 20 -271 14 -4 20 -14 20 -33 0 -49 12 -90 26
-90 8 0 14 -9 14 -20 0 -11 -6 -20 -14 -20 -15 0 -26 -50 -26 -122 0 -34 -4
-48 -14 -48 -22 0 -26 -34 -26 -232 l0 -187 147 -99 c501 -337 1012 -599 1516
-777 l67 -24 0 65 c0 50 -3 64 -15 64 -13 0 -15 32 -15 225 0 218 1 225 20
225 13 0 20 -7 20 -20 0 -18 7 -20 60 -20 52 0 60 -3 60 -19 0 -14 10 -20 40
-25 26 -4 40 -11 40 -21 0 -9 9 -15 21 -15 12 0 23 -8 26 -19 3 -13 17 -22 44
-26 22 -4 39 -12 39 -20 0 -15 44 -25 111 -25 37 0 49 -4 49 -15 0 -9 9 -15
25 -15 16 0 25 6 25 15 0 9 -9 15 -25 15 -24 0 -25 2 -25 65 l0 65 -40 0 c-33
0 -40 3 -40 20 0 13 -7 20 -20 20 -18 0 -20 7 -22 85 -1 47 -2 93 -2 103 -1
10 8 18 22 20 14 2 22 10 22 23 0 18 9 19 174 19 186 0 236 -5 236 -25 0 -12
51 -25 103 -25 17 0 27 -5 27 -15 0 -10 10 -15 29 -15 57 0 91 -12 91 -31 0
-12 7 -19 20 -19 13 0 20 -7 20 -20 0 -17 7 -20 45 -20 33 0 45 -4 45 -15 0
-8 7 -15 15 -15 8 0 15 7 15 15 0 8 -7 15 -15 15 -10 0 -15 10 -15 34 0 53
-11 96 -25 96 -7 0 -15 9 -18 20 -3 12 -14 20 -26 20 -14 0 -21 6 -21 20 0 13
-7 20 -20 20 -13 0 -20 7 -20 20 0 13 -7 20 -20 20 -13 0 -20 7 -20 20 0 13
-7 20 -20 20 -14 0 -20 7 -20 21 0 12 -8 23 -19 26 -12 3 -21 17 -26 39 -3 19
-12 34 -20 34 -9 0 -16 16 -21 45 -4 28 -11 45 -20 45 -22 0 -17 27 6 33 12 3
20 14 20 26 0 14 -6 21 -20 21 -13 0 -20 7 -20 20 0 13 7 20 20 20 13 0 20 7
20 20 0 26 26 26 33 0 3 -11 12 -20 21 -20 9 0 16 -8 16 -20 0 -15 7 -20 25
-20 18 0 25 -5 25 -20 0 -13 7 -20 20 -20 17 0 20 -7 20 -40 0 -33 3 -40 20
-40 14 0 20 -7 20 -21 0 -12 8 -23 20 -26 15 -4 20 -14 20 -40 0 -26 5 -36 19
-40 13 -3 22 -17 26 -44 5 -29 11 -39 26 -39 12 0 19 -7 19 -20 0 -13 7 -20
20 -20 13 0 20 -7 20 -20 0 -11 7 -20 15 -20 8 0 15 9 15 20 0 11 -7 20 -15
20 -8 0 -15 9 -15 20 0 13 7 20 20 20 17 0 20 7 20 40 0 33 -3 40 -20 40 -19
0 -20 7 -20 134 0 161 -6 196 -31 196 -12 0 -19 7 -19 19 0 10 -9 21 -20 24
-12 3 -20 14 -20 26 0 14 -6 21 -20 21 -13 0 -20 7 -20 20 0 11 -6 20 -14 20
-7 0 -16 9 -19 20 -3 12 -14 20 -26 20 -18 0 -21 6 -21 40 0 33 3 40 20 40 14
0 20 7 20 21 0 12 8 23 20 26 13 3 22 17 26 38 5 30 11 34 45 40 36 6 39 9 39
41 0 27 4 34 20 34 11 0 20 -7 20 -15 0 -8 6 -15 14 -15 10 0 16 13 18 38 3
36 4 37 46 40 l42 3 0 60 c0 52 2 59 20 59 17 0 20 7 20 45 0 33 -4 45 -15 45
-10 0 -15 11 -15 35 0 28 4 35 20 35 15 0 20 7 20 25 0 15 6 25 14 25 14 0 26
42 26 91 0 18 5 29 14 29 9 0 17 15 21 40 5 30 11 40 26 40 16 0 19 7 19 45 0
45 0 45 35 45 28 0 35 4 35 20 0 11 -7 20 -15 20 -8 0 -15 9 -15 20 0 13 7 20
20 20 13 0 20 7 20 20 0 13 7 20 20 20 18 0 20 7 20 80 0 73 2 80 20 80 14 0
20 7 20 21 0 12 8 23 20 26 16 4 20 14 20 52 0 70 11 121 26 121 7 0 16 15 19
34 5 22 14 36 26 39 16 4 19 15 19 66 0 54 2 61 20 61 19 0 20 7 20 105 0 98
1 105 20 105 18 0 20 7 20 60 0 47 3 60 15 60 8 0 15 -9 15 -20 0 -15 7 -20
25 -20 23 0 25 4 25 40 0 33 3 40 20 40 18 0 20 -7 20 -80 0 -73 -2 -80 -20
-80 -18 0 -20 -7 -20 -85 0 -76 -2 -85 -18 -85 -17 0 -19 -14 -25 -187 -4
-104 -7 -252 -7 -330 0 -114 -3 -143 -14 -143 -13 0 -26 -48 -26 -102 0 -18
-5 -28 -15 -28 -11 0 -15 -11 -15 -40 0 -27 4 -40 14 -40 20 0 28 -107 26
-354 -3 -309 -3 -296 20 -296 15 0 20 -7 20 -25 0 -22 4 -25 40 -25 33 0 40
-3 40 -20 0 -13 7 -20 20 -20 17 0 20 -7 20 -40 0 -33 3 -40 20 -40 14 0 20
-7 20 -21 0 -12 8 -23 19 -26 12 -3 21 -17 25 -38 6 -28 12 -34 40 -39 22 -4
36 -13 39 -26 3 -11 12 -20 21 -20 11 0 18 -13 22 -40 4 -22 10 -40 15 -40 5
0 9 692 9 1589 0 1063 4 1615 11 1668 14 108 67 258 125 355 63 106 221 267
319 324 93 54 202 98 300 120 76 18 170 19 2110 19 1117 0 2058 -4 2093 -8
l62 -9 0 105 c0 122 -7 167 -26 167 -10 0 -14 15 -14 53 0 77 -11 127 -26 127
-10 0 -14 13 -14 39 0 80 -13 161 -25 161 -9 0 -15 35 -20 125 -5 89 -11 125
-20 125 -15 0 -25 86 -25 207 0 54 -4 82 -10 78 -18 -11 -30 45 -30 146 0 92
-1 99 -20 99 -19 0 -20 7 -20 145 0 138 -1 145 -20 145 -19 0 -20 7 -20 105 0
98 -1 105 -20 105 -18 0 -20 7 -20 89 0 106 -8 151 -26 151 -10 0 -14 15 -14
54 0 71 -10 116 -25 116 -9 0 -15 28 -20 89 -5 67 -10 88 -20 85 -9 -4 -15 16
-20 75 -5 55 -11 81 -20 81 -14 0 -25 43 -25 96 0 22 -5 34 -14 34 -19 0 -26
32 -26 123 0 70 -2 77 -20 77 -18 0 -20 7 -20 65 0 58 -2 65 -20 65 -18 0 -20
7 -20 80 0 73 -2 80 -20 80 -15 0 -20 7 -20 28 0 51 -13 102 -25 102 -8 0 -15
23 -19 60 -5 40 -11 60 -20 60 -10 0 -16 23 -21 80 -5 54 -11 80 -20 80 -14 0
-25 43 -25 96 0 27 -4 34 -20 34 -19 0 -20 7 -20 100 0 93 -1 100 -20 100 -17
0 -20 7 -20 45 0 38 -3 45 -20 45 -15 0 -20 7 -20 29 0 49 -12 91 -26 91 -8 0
-14 9 -14 20 0 13 -7 20 -20 20 -13 0 -20 7 -20 20 0 14 -7 20 -21 20 -12 0
-23 8 -26 19 -5 19 -40 31 -94 31 -18 0 -29 5 -29 14 0 9 -15 17 -40 21 -30 5
-40 11 -40 26 0 16 -7 19 -45 19 -32 0 -45 4 -45 14 0 16 -30 26 -82 26 -31 0
-38 4 -38 20 0 17 -7 20 -40 20 -33 0 -40 3 -40 20 0 16 -7 20 -37 20 -53 0
-83 10 -83 26 0 10 -13 14 -41 14 -32 0 -42 4 -46 20 -4 14 -14 20 -33 20 -48
0 -90 12 -90 26 0 9 -20 15 -60 20 -38 4 -60 11 -60 19 0 13 -43 25 -90 25
-19 0 -29 6 -33 20 -4 16 -14 20 -46 20 -34 0 -41 3 -41 20 0 17 -7 20 -40 20
-33 0 -40 3 -40 20 0 18 -7 20 -65 20 -58 0 -65 2 -65 20 0 18 -7 20 -60 20
-53 0 -60 2 -60 20 0 17 -7 20 -47 20 -73 0 -123 11 -123 26 0 9 -11 14 -27
14 -52 0 -103 13 -103 25 0 12 -109 25 -222 25 -43 0 -58 4 -58 14 0 17 -44
26 -130 26 -59 0 -68 2 -73 20 -5 18 -14 20 -106 20 -94 0 -101 1 -101 20 0
13 -7 20 -19 20 -15 0 -21 10 -26 39 -4 27 -13 41 -26 44 -10 3 -19 12 -19 21
0 9 -6 16 -14 16 -9 0 -17 15 -21 39 -4 27 -13 41 -26 44 -11 3 -19 14 -19 26
0 14 -6 21 -20 21 -18 0 -20 -7 -20 -80 0 -73 2 -80 20 -80 20 0 20 -7 20
-355 0 -295 -2 -355 -14 -355 -19 0 -26 -46 -26 -176 0 -107 -1 -114 -20 -114
-19 0 -20 -7 -20 -205 0 -198 -1 -205 -20 -205 -13 0 -20 7 -20 20 0 13 -7 20
-19 20 -15 0 -21 10 -26 40 -5 30 -11 40 -26 40 -12 0 -19 7 -19 19 0 10 -9
21 -20 24 -12 3 -20 14 -20 26 0 14 -6 21 -20 21 -13 0 -20 7 -20 20 0 17 -7
20 -40 20 -33 0 -40 3 -40 20 0 13 -7 20 -20 20 -13 0 -20 7 -20 20 0 17 -7
20 -40 20 -33 0 -40 3 -40 20 0 15 -7 20 -25 20 -18 0 -25 5 -25 20 0 17 -7
20 -40 20 -33 0 -40 -3 -40 -20 0 -13 -7 -20 -20 -20 -17 0 -20 -7 -20 -45 0
-38 3 -45 20 -45 11 0 20 -7 20 -15 0 -8 -9 -15 -20 -15 -13 0 -20 -7 -20 -19
0 -19 -34 -31 -91 -31 -22 0 -29 -5 -29 -20 0 -17 -7 -20 -40 -20 -33 0 -40
-3 -40 -20 0 -15 -7 -20 -25 -20 -18 0 -25 -5 -25 -20 0 -17 -7 -20 -40 -20
-33 0 -40 -3 -40 -20 0 -17 -7 -20 -40 -20 -34 0 -40 -3 -40 -21 0 -12 -8 -23
-20 -26 -11 -3 -20 -12 -20 -19 0 -9 -12 -14 -34 -14 -54 0 -96 -11 -96 -26 0
-8 -9 -14 -20 -14 -13 0 -20 7 -20 20 0 13 -7 20 -20 20 -13 0 -20 7 -20 20 0
13 7 20 20 20 13 0 20 7 20 20 0 13 -7 20 -20 20 -13 0 -20 7 -20 20 0 13 -7
20 -20 20 -17 0 -20 7 -20 40 0 33 -3 40 -20 40 -13 0 -20 -7 -20 -20 0 -15
-7 -20 -25 -20 -18 0 -25 -5 -25 -20 0 -13 -7 -20 -20 -20 -13 0 -20 -7 -20
-20 0 -13 -7 -20 -20 -20 -13 0 -20 -7 -20 -19 0 -10 -9 -21 -20 -24 -12 -3
-20 -14 -20 -26 0 -12 -6 -21 -15 -21 -10 0 -17 -14 -21 -40 -5 -30 -11 -40
-25 -40 -12 0 -19 -7 -19 -20 0 -13 -7 -20 -20 -20 -18 0 -20 -7 -20 -60 l0
-60 40 0 40 0 0 60 0 60 60 0 c53 0 60 -2 60 -20 0 -15 7 -20 25 -20 18 0 25
-5 25 -20 0 -11 7 -20 15 -20 8 0 15 -9 15 -20 0 -15 7 -20 25 -20 18 0 25 -5
25 -20 0 -17 7 -20 40 -20 33 0 40 -3 40 -20 0 -14 7 -20 21 -20 12 0 23 -8
26 -19 3 -11 13 -21 24 -24 11 -3 19 -14 19 -26 0 -12 6 -21 15 -21 8 0 17
-14 20 -34 5 -22 14 -36 26 -39 11 -3 19 -14 19 -26 0 -14 6 -21 20 -21 17 0
20 -7 20 -40 0 -33 3 -40 20 -40 13 0 20 -7 20 -20 0 -13 7 -20 20 -20 17 0
20 -7 20 -45 0 -38 3 -45 20 -45 19 0 20 -7 20 -119 0 -110 -1 -119 -20 -124
-17 -4 -20 -14 -20 -66 0 -54 -2 -61 -20 -61 -13 0 -20 -7 -20 -20 0 -13 -7
-20 -20 -20 -13 0 -20 -7 -20 -20 0 -13 -7 -20 -20 -20 -17 0 -20 -7 -20 -45
0 -38 -3 -45 -20 -45 -15 0 -20 -7 -20 -29 0 -48 -12 -91 -25 -91 -13 0 -25
-161 -25 -327 0 -64 -3 -83 -14 -83 -21 0 -26 -47 -26 -256 0 -187 -1 -194
-20 -194 -19 0 -20 -7 -20 -210 0 -203 -1 -210 -20 -210 -19 0 -20 -7 -20
-205 0 -198 -1 -205 -20 -205 -19 0 -20 -7 -20 -186 0 -177 -1 -186 -20 -191
-19 -5 -20 -14 -20 -165 0 -151 -1 -160 -20 -165 -18 -5 -20 -14 -20 -100 0
-85 -2 -95 -19 -100 -25 -6 -31 -41 -31 -179 0 -95 -3 -114 -15 -114 -13 0
-15 20 -15 124 0 156 -9 246 -25 246 -11 0 -25 320 -25 596 0 93 -2 102 -20
107 -20 5 -20 14 -20 456 0 444 0 451 -20 451 -13 0 -20 -7 -20 -20 0 -13 -7
-20 -20 -20 -19 0 -20 7 -20 105 0 98 -1 105 -20 105 -19 0 -20 7 -20 154 0
169 -6 216 -26 216 -12 0 -14 41 -14 225 0 193 2 225 15 225 9 0 15 9 15 25 0
16 -6 25 -15 25 -10 0 -15 10 -15 29 0 49 -12 91 -26 91 -11 0 -14 21 -14 94
0 111 -8 156 -26 156 -10 0 -14 14 -14 48 0 85 -12 152 -26 152 -11 0 -14 20
-14 85 0 69 3 85 15 85 12 0 15 13 15 60 0 53 -2 60 -20 60 -17 0 -20 7 -20
45 0 32 -4 45 -14 45 -20 0 -26 32 -26 148 0 95 -1 102 -20 102 -19 0 -20 7
-20 125 0 118 -1 125 -20 125 -18 0 -20 7 -20 89 0 106 -8 151 -26 151 -10 0
-14 13 -14 44 0 82 -13 166 -25 166 -9 0 -14 67 -19 253 -7 276 -4 317 25 317
15 0 19 -8 19 -40 0 -33 3 -40 20 -40 13 0 20 -7 20 -20 0 -13 7 -20 20 -20
13 0 20 -7 20 -20 0 -13 7 -20 20 -20 13 0 20 -7 20 -20 0 -13 7 -20 20 -20
13 0 20 -7 20 -19 0 -14 10 -20 40 -25 26 -4 40 -11 40 -21 0 -9 10 -15 25
-15 16 0 25 6 25 15 0 8 7 15 15 15 8 0 15 -7 15 -15 0 -8 -7 -15 -15 -15 -8
0 -15 -9 -15 -20 0 -13 7 -20 20 -20 15 0 20 -7 20 -25 0 -18 5 -25 20 -25 13
0 20 -7 20 -20 0 -17 7 -20 40 -20 33 0 40 -3 40 -20 0 -13 7 -20 20 -20 13 0
20 -7 20 -20 0 -13 7 -20 20 -20 14 0 20 -7 20 -21 0 -12 8 -23 20 -26 13 -3
22 -17 26 -38 5 -30 11 -34 45 -40 29 -5 39 -11 39 -26 0 -12 7 -19 20 -19 13
0 20 -7 20 -20 0 -13 7 -20 20 -20 13 0 20 -7 20 -20 0 -15 7 -20 25 -20 18 0
25 -5 25 -20 0 -19 7 -20 120 -20 113 0 120 -1 120 -20 0 -18 7 -20 61 -20 52
0 62 -3 66 -20 3 -11 12 -20 19 -20 8 0 14 9 14 20 0 15 7 20 25 20 18 0 25 5
25 20 0 13 7 20 20 20 13 0 20 7 20 20 0 13 7 20 20 20 13 0 20 7 20 20 0 13
7 20 20 20 15 0 20 7 20 25 0 18 5 25 20 25 13 0 20 7 20 20 0 13 7 20 20 20
17 0 20 7 20 40 0 33 3 40 20 40 13 0 20 7 20 20 0 13 7 20 20 20 13 0 20 7
20 20 0 13 7 20 19 20 15 0 21 10 26 40 4 23 12 40 20 40 8 0 16 17 20 40 5
30 11 40 26 40 14 0 19 7 19 25 0 18 5 25 20 25 17 0 20 7 20 40 0 33 3 40 20
40 13 0 20 7 20 20 0 13 7 20 20 20 17 0 20 7 20 41 0 32 4 42 19 46 12 3 21
17 25 38 4 21 14 35 26 38 12 3 20 14 20 26 0 12 6 21 15 21 10 0 17 14 21 40
5 30 11 40 25 40 16 0 19 8 19 45 0 38 3 45 20 45 18 0 20 7 20 75 0 67 -2 75
-19 75 -13 0 -21 8 -23 23 -2 14 -11 23 -25 25 -15 2 -23 10 -23 23 0 12 -7
19 -20 19 -13 0 -20 7 -20 20 0 13 -7 20 -20 20 -17 0 -20 7 -20 45 0 32 -4
45 -14 45 -23 0 -26 50 -26 441 0 372 0 379 20 379 14 0 20 7 20 21 0 12 8 23
20 26 13 3 20 14 20 28 0 44 13 85 26 85 8 0 14 9 14 21 0 12 8 23 20 26 14 4
22 17 26 44 5 29 11 39 25 39 18 0 19 11 19 211 0 206 0 211 20 206 18 -5 20
0 20 54 0 52 -2 59 -20 59 -19 0 -20 7 -20 125 0 115 -1 125 -19 125 -14 0
-20 10 -25 40 -4 26 -11 40 -21 40 -12 0 -15 19 -15 106 0 97 -2 106 -20 111
-17 5 -20 14 -20 67 0 85 -10 136 -26 136 -9 0 -14 11 -14 29 0 48 -12 91 -25
91 -14 0 -25 43 -25 96 0 27 -4 34 -19 34 -10 0 -19 6 -18 13 0 6 -1 33 -1 60
-2 40 -5 47 -22 47 -18 0 -20 7 -20 80 0 73 -2 80 -20 80 -17 0 -19 8 -22 68
-3 57 -6 67 -20 64 -11 -2 -18 3 -18 14 0 11 5 14 18 10 16 -6 16 -5 0 8 -10
7 -18 21 -18 31 0 9 -9 19 -19 22 -12 3 -21 17 -26 39 -3 19 -12 34 -20 34 -7
0 -15 10 -17 23 -2 14 -11 23 -25 25 -15 2 -23 10 -23 23 0 12 -7 19 -20 19
-13 0 -20 7 -20 20 0 11 -6 20 -14 20 -9 0 -17 15 -21 40 -5 30 -11 40 -26 40
-16 0 -19 7 -19 40 0 33 -3 40 -20 40 -13 0 -20 7 -20 20 0 13 -7 20 -20 20
-15 0 -20 7 -20 25 0 18 -5 25 -20 25 -13 0 -20 7 -20 20 0 15 -7 20 -25 20
-18 0 -25 5 -25 20 0 13 -7 20 -20 20 -13 0 -20 7 -20 20 0 17 -7 20 -40 20
-33 0 -40 3 -40 20 0 18 -7 20 -61 20 -51 0 -62 3 -66 19 -3 12 -17 21 -39 26
-19 3 -34 12 -34 20 0 9 -16 16 -45 21 -27 4 -45 12 -45 19 0 8 -17 16 -39 20
-27 4 -41 13 -44 26 -5 17 -15 19 -86 19 -62 0 -81 3 -81 14 0 7 -14 16 -31
20 -40 8 -197 6 -227 -2z m-1855 -1507 c0 -8 -4 -15 -9 -15 -10 0 -11 14 -1
23 9 10 10 9 10 -8z m2233 -470 c0 -24 -5 -35 -15 -35 -10 0 -15 11 -15 35 0
24 5 35 15 35 10 0 15 -11 15 -35z m-70 -185 c0 -13 -7 -20 -20 -20 -13 0 -20
7 -20 20 0 13 7 20 20 20 13 0 20 -7 20 -20z m80 -40 c0 -15 -7 -20 -25 -20
-18 0 -25 5 -25 20 0 15 7 20 25 20 18 0 25 -5 25 -20z m-130 -85 c0 -8 -7
-15 -15 -15 -8 0 -15 7 -15 15 0 8 7 15 15 15 8 0 15 -7 15 -15z m-1030 -45
c0 -13 -7 -20 -20 -20 -11 0 -20 -7 -20 -15 0 -11 -11 -15 -40 -15 -29 0 -40
4 -40 15 0 8 9 15 20 15 13 0 20 7 20 20 0 17 7 20 40 20 33 0 40 -3 40 -20z
m219 -186 c46 -10 40 -34 -9 -34 -33 0 -40 3 -40 20 0 22 3 23 49 14z m-89
-59 c0 -8 -9 -15 -20 -15 -11 0 -20 7 -20 15 0 8 9 15 20 15 11 0 20 -7 20
-15z m928 -681 c60 -8 70 -28 17 -38 -19 -4 -35 -13 -35 -20 0 -9 -17 -16 -45
-20 -27 -5 -45 -12 -45 -20 0 -15 -43 -26 -96 -26 -23 0 -34 -5 -34 -15 0 -10
-14 -17 -40 -21 -30 -5 -40 -11 -40 -25 0 -17 -9 -19 -100 -19 -93 0 -100 1
-100 20 0 17 7 20 40 20 33 0 40 3 40 20 0 13 7 20 20 20 13 0 20 7 20 19 0
15 10 21 40 26 25 4 40 12 40 21 0 11 17 14 74 14 101 0 136 8 136 31 0 21 18
23 108 13z m426 -270 c8 -77 -1 -134 -20 -134 -8 0 -14 -10 -14 -25 0 -20 -5
-25 -25 -25 -18 0 -25 -5 -25 -20 0 -13 7 -20 20 -20 14 0 20 -7 20 -21 0 -12
8 -23 19 -26 22 -5 31 -31 31 -85 0 -31 -4 -38 -20 -38 -16 0 -20 -7 -20 -34
l0 -34 -79 -7 c-66 -6 -80 -10 -84 -26 -3 -11 -14 -19 -26 -19 -14 0 -21 -6
-21 -20 0 -17 -7 -20 -45 -20 -38 0 -45 -3 -45 -20 0 -16 -7 -20 -35 -20 -28
0 -35 -4 -35 -20 0 -19 -7 -20 -94 -20 -109 0 -156 -8 -156 -25 0 -7 -19 -16
-45 -19 -29 -5 -45 -12 -45 -22 0 -11 -14 -14 -60 -14 l-60 0 0 34 c0 32 -2
35 -40 41 -39 7 -40 8 -42 48 -1 23 0 77 2 120 2 72 1 79 -19 84 -12 3 -21 13
-21 24 0 12 -7 19 -20 19 -11 0 -20 7 -20 15 0 8 9 15 20 15 15 0 20 7 20 25
0 18 -5 25 -20 25 -13 0 -20 7 -20 20 0 19 7 20 120 20 113 0 120 -1 120 -20
0 -14 7 -20 21 -20 12 0 23 -8 26 -20 3 -11 11 -20 18 -20 8 0 15 -10 17 -22
2 -19 10 -24 46 -26 28 -2 42 -8 42 -18 0 -11 17 -14 80 -14 73 0 80 2 80 20
0 15 7 20 25 20 15 0 25 6 25 15 0 10 14 17 40 21 30 5 40 11 40 25 0 12 7 19
20 19 13 0 20 7 20 20 0 13 7 20 20 20 18 0 20 7 20 60 l0 60 60 0 c57 0 60 1
60 25 0 16 -6 25 -15 25 -22 0 -18 27 5 33 12 3 20 14 20 26 0 18 6 21 40 21
33 0 40 3 40 20 0 11 6 20 14 20 9 0 15 -20 20 -66z m-475 20 c30 -6 32 -9 29
-43 -3 -35 -5 -36 -45 -39 -35 -3 -43 -7 -43 -23 0 -16 -7 -19 -40 -19 -28 0
-40 -4 -40 -14 0 -18 -75 -31 -125 -22 -32 6 -35 10 -35 41 0 30 3 35 24 35
43 0 86 12 86 25 0 14 43 25 96 25 27 0 34 4 34 20 0 21 9 24 59 14z m811
-2113 c0 -5 -3 -23 -6 -40 -6 -30 -8 -31 -60 -31 -47 0 -54 2 -54 20 0 17 7
20 40 20 33 0 40 3 40 20 0 13 7 20 20 20 11 0 20 -4 20 -9z m80 -6 c0 -8 -9
-15 -20 -15 -11 0 -20 7 -20 15 0 8 9 15 20 15 11 0 20 -7 20 -15z m580 -310
c0 -118 -1 -125 -20 -125 -19 0 -20 -7 -20 -125 0 -118 -1 -125 -20 -125 -19
0 -20 -7 -20 -114 0 -130 -7 -176 -26 -176 -11 0 -14 -25 -14 -122 0 -162 -9
-258 -25 -258 -14 0 -25 -74 -25 -172 0 -48 -4 -68 -12 -68 -31 0 -57 13 -61
31 -3 11 -14 19 -26 19 -20 0 -21 5 -21 120 0 113 -1 120 -20 120 -18 0 -20 7
-20 61 0 52 -3 62 -20 66 -18 5 -20 14 -20 104 0 92 -1 99 -20 99 -18 0 -20 7
-20 59 0 50 3 59 20 64 18 5 20 14 20 86 0 74 2 81 20 81 17 0 20 7 20 40 0
33 3 40 20 40 17 0 20 7 20 45 0 38 3 45 20 45 17 0 20 7 20 40 0 32 4 40 19
40 16 0 19 12 25 97 4 53 9 99 11 101 3 3 28 5 57 6 47 1 53 4 56 24 3 18 10
22 43 22 l39 0 0 -125z m-1530 -5335 c0 -33 -3 -40 -20 -40 -13 0 -20 -7 -20
-20 0 -13 -7 -20 -20 -20 -13 0 -20 7 -20 20 0 13 7 20 20 20 17 0 20 7 20 40
0 33 3 40 20 40 17 0 20 -7 20 -40z m-410 -20 c0 -13 7 -20 20 -20 18 0 20 -7
20 -85 0 -78 -2 -85 -20 -85 -18 0 -20 7 -20 65 0 58 -2 65 -20 65 -14 0 -20
7 -20 21 0 12 -8 23 -20 26 -37 10 -23 33 20 33 33 0 40 -3 40 -20z m-50 -137
c0 -21 3 -48 6 -60 5 -19 2 -23 -15 -23 -19 0 -21 6 -21 60 0 47 3 60 15 60
11 0 15 -11 15 -37z m-1440 -338 c0 -78 2 -85 20 -85 20 0 20 -7 20 -285 0
-278 0 -285 -20 -285 -18 0 -20 -7 -20 -65 0 -58 -2 -65 -20 -65 -11 0 -20 -6
-20 -14 0 -9 -15 -17 -40 -21 -30 -5 -40 -11 -40 -26 0 -16 -7 -19 -45 -19
-38 0 -45 -3 -45 -20 0 -18 -7 -20 -60 -20 -53 0 -60 2 -60 20 0 13 -7 20 -20
20 -18 0 -20 7 -20 80 0 73 2 80 20 80 17 0 20 7 20 41 0 32 4 42 20 46 11 3
20 14 20 24 0 14 7 19 25 19 18 0 25 5 25 20 0 11 6 20 14 20 9 0 17 15 21 40
5 30 11 40 26 40 12 0 19 7 19 20 0 13 7 20 20 20 17 0 20 7 20 45 0 38 3 45
20 45 19 0 20 7 20 205 l0 205 40 0 40 0 0 -85z m662 -1455 c3 -27 3 -72 0
-100 -4 -40 -8 -50 -23 -50 -12 0 -19 -7 -19 -20 0 -13 -7 -20 -20 -20 -18 0
-20 7 -20 80 0 73 2 80 20 80 17 0 20 7 20 40 0 32 4 40 19 40 15 0 19 -10 23
-50z"/>
<path d="M9060 11820 c0 -11 7 -20 15 -20 8 0 15 9 15 20 0 11 -7 20 -15 20
-8 0 -15 -9 -15 -20z"/>
<path d="M11341 5669 c-77 -13 -227 -65 -289 -101 -90 -51 -196 -142 -256
-218 -68 -88 -138 -227 -169 -335 l-22 -80 -3 -1647 c-2 -1119 1 -1648 8
-1648 5 0 10 -9 10 -20 0 -15 7 -20 25 -20 18 0 25 -5 25 -20 0 -11 6 -20 14
-20 8 0 16 -10 18 -22 2 -15 11 -24 26 -26 14 -2 22 -10 22 -23 0 -12 7 -19
20 -19 11 0 20 -7 20 -15 0 -8 9 -15 20 -15 11 0 20 7 20 15 0 11 11 15 40 15
33 0 40 3 40 19 0 15 10 21 40 26 30 5 40 11 40 26 0 12 7 19 19 19 10 0 21 9
24 20 3 12 14 20 26 20 14 0 21 6 21 20 0 13 7 20 20 20 13 0 20 7 20 20 0 17
7 20 40 20 33 0 40 3 40 20 0 13 7 20 20 20 14 0 20 7 20 21 0 12 8 23 20 26
11 3 20 12 20 20 0 8 9 17 20 20 11 3 20 11 20 18 0 8 10 15 23 17 14 2 23 11
25 26 2 14 10 22 23 22 10 0 19 6 19 14 0 7 9 16 20 19 12 3 20 14 20 26 0 14
6 21 20 21 13 0 20 7 20 20 0 15 7 20 25 20 18 0 25 5 25 19 0 14 10 21 35 25
26 5 35 12 35 27 0 30 44 22 48 -8 2 -13 9 -23 16 -23 15 0 26 -43 26 -96 0
-27 4 -34 20 -34 17 0 20 -7 20 -40 0 -33 3 -40 20 -40 18 0 20 -7 20 -80 0
-69 -2 -80 -17 -80 -15 0 -14 -3 5 -22 17 -18 36 -23 92 -26 66 -4 71 -3 99
25 38 38 49 93 30 147 -20 57 -53 76 -148 88 l-81 11 0 72 0 72 73 5 c106 7
147 41 147 123 0 116 -192 145 -238 35 l-17 -40 -89 0 -89 0 7 41 c22 137 141
223 306 223 94 -1 147 -16 202 -57 112 -86 128 -243 36 -343 -22 -24 -49 -46
-61 -50 -19 -6 -19 -7 9 -21 85 -44 124 -113 124 -223 0 -87 -20 -138 -71
-187 -59 -55 -121 -77 -226 -77 l-93 -1 0 -42 c0 -36 -3 -43 -20 -43 -19 0
-20 -7 -20 -100 l0 -100 40 0 c39 0 40 1 40 36 0 27 5 37 20 41 11 3 20 14 20
24 0 12 7 19 19 19 15 0 21 10 26 40 7 41 35 57 35 20 0 -13 7 -20 19 -20 15
0 21 -10 26 -39 4 -27 13 -41 26 -44 14 -4 19 -14 19 -41 0 -29 4 -36 20 -36
15 0 20 -7 20 -25 0 -18 5 -25 20 -25 17 0 20 -7 20 -40 l0 -40 40 0 40 0 0
-40 c0 -32 4 -40 19 -40 14 0 20 -10 25 -39 4 -27 12 -40 26 -44 12 -3 20 -14
20 -26 0 -12 6 -21 14 -21 9 0 17 -15 21 -40 5 -30 11 -40 26 -40 16 0 19 -7
19 -40 0 -33 3 -40 20 -40 13 0 20 -7 20 -20 0 -13 7 -20 20 -20 13 0 20 -7
20 -20 0 -13 7 -20 20 -20 14 0 20 -7 20 -21 0 -12 8 -23 20 -26 11 -3 20 -14
20 -24 0 -12 7 -19 20 -19 13 0 20 -7 20 -20 0 -13 7 -20 19 -20 15 0 21 -10
26 -41 5 -28 11 -39 20 -35 8 3 33 10 57 16 79 21 395 139 560 209 891 378
1714 949 2364 1641 l134 143 0 417 c0 441 5 540 25 540 9 0 15 26 20 79 6 67
10 80 27 84 10 3 18 11 17 19 -6 46 2 108 15 108 19 0 26 46 26 184 0 143 -7
196 -26 196 -10 0 -14 13 -14 39 0 83 -13 161 -26 161 -9 0 -14 13 -14 38 0
84 -13 172 -25 172 -16 0 -25 46 -25 130 0 59 -2 68 -20 73 -19 5 -20 14 -20
166 0 130 -3 161 -14 161 -18 0 -26 45 -26 156 0 87 -1 94 -20 94 -19 0 -20 7
-20 145 0 138 -1 145 -20 145 -18 0 -20 7 -20 60 l0 59 -41 11 c-23 6 -67 16
-98 21 -73 12 -4027 10 -4100 -2z m2587 -336 c2 -13 9 -23 17 -23 15 0 25 -31
25 -82 0 -31 4 -38 20 -38 19 0 20 -7 20 -120 0 -118 -2 -126 -32 -121 -5 0
-8 -9 -8 -22 0 -53 -36 -42 -45 14 -4 24 -12 39 -21 39 -11 0 -14 15 -14 63 0
34 -3 120 -7 190 l-6 129 24 -4 c16 -2 25 -11 27 -25z m23 -456 c-1 -12 -15
-9 -19 4 -3 6 1 10 8 8 6 -3 11 -8 11 -12z m-882 -503 c87 -73 10 -208 -100
-175 -50 15 -79 53 -79 103 0 88 108 132 179 72z m-339 -499 l0 -475 -90 0
-90 0 0 475 0 475 90 0 90 0 0 -475z m-558 388 c37 -17 88 -51 113 -74 45 -42
105 -130 105 -156 0 -10 -26 -13 -97 -13 l-96 0 -35 41 c-49 57 -100 79 -187
79 -82 0 -134 -20 -184 -71 -59 -58 -76 -110 -76 -224 0 -93 2 -104 31 -155
40 -70 97 -115 170 -131 101 -23 214 17 257 91 l18 30 105 0 104 0 -30 -61
c-61 -120 -171 -196 -317 -220 -202 -33 -403 70 -485 248 -28 60 -32 81 -36
175 -3 89 -1 119 17 177 39 129 141 233 276 280 50 18 79 21 170 19 99 -3 116
-6 177 -35z m2938 -68 l0 -85 80 0 80 0 0 -75 0 -75 -80 0 -80 0 0 -189 c0
-222 0 -221 102 -221 l58 0 0 -75 0 -75 -82 0 c-100 0 -147 12 -189 47 -61 52
-69 85 -69 310 l0 202 -42 3 -43 3 -3 73 -3 72 46 0 45 0 0 85 0 85 90 0 90 0
0 -85z m-1388 -103 c65 -28 133 -94 165 -160 21 -44 28 -74 31 -144 l4 -88
-262 0 -262 0 6 -32 c8 -41 33 -77 76 -105 64 -44 188 -22 220 38 9 17 22 19
106 19 94 0 95 0 89 -22 -21 -67 -96 -146 -174 -182 -37 -17 -65 -21 -146 -21
-87 0 -107 3 -155 26 -80 37 -125 81 -162 157 -31 63 -33 73 -33 177 0 98 3
116 26 165 46 99 105 150 214 187 58 19 199 11 257 -15z m817 12 c64 -19 130
-76 163 -142 22 -45 23 -58 26 -304 l3 -258 -90 0 -90 0 -3 234 c-3 258 -4
260 -72 310 -38 29 -134 29 -173 0 -63 -47 -68 -67 -71 -316 l-3 -228 -90 0
-89 0 0 355 0 355 90 0 90 0 0 -40 c0 -22 3 -40 7 -40 4 0 19 11 33 25 61 59
171 79 269 49z m-1449 -349 l0 -355 -90 0 -90 0 0 355 0 355 90 0 90 0 0 -355z
m-330 -1615 l0 -119 123 -3 122 -3 3 -77 3 -77 -123 -3 -123 -3 -3 -122 -3
-123 -84 0 -85 0 0 125 0 125 -120 0 -120 0 0 80 0 80 120 0 120 0 0 120 0
120 85 0 85 0 0 -120z"/>
<path d="M13480 3948 c-40 -28 -67 -63 -76 -100 l-6 -28 171 0 c125 0 171 3
171 12 0 33 -43 96 -79 116 -54 30 -136 30 -181 0z"/>
<path d="M9720 2690 c0 -11 7 -20 15 -20 8 0 15 9 15 20 0 11 -7 20 -15 20 -8
0 -15 -9 -15 -20z"/>
<path d="M11740 1125 c0 -8 9 -15 20 -15 11 0 20 7 20 15 0 8 -9 15 -20 15
-11 0 -20 -7 -20 -15z"/>
</g>
</svg>
